<svg xmlns="http://www.w3.org/2000/svg" xmlns:xlink="http://www.w3.org/1999/xlink" width="1280" zoomAndPan="magnify" viewBox="0 0 960 540.000001" height="720" preserveAspectRatio="xMidYMid meet" version="1.0"><defs><g/><clipPath id="be88f794ab"><rect x="0" width="210" y="0" height="108"/></clipPath></defs><g fill="#f75000" fill-opacity="1"><g transform="translate(103.829297, 301.870549)"><g><path d="M 12.390625 4.171875 L 8.78125 6.8125 C 5.632812 3.019531 3.535156 -1.039062 2.484375 -5.375 C 1.429688 -9.71875 1.4375 -14.046875 2.5 -18.359375 C 3.570312 -22.679688 5.664062 -26.722656 8.78125 -30.484375 L 12.390625 -27.828125 C 9.796875 -24.035156 8.039062 -20.476562 7.125 -17.15625 C 6.207031 -13.832031 6.179688 -10.46875 7.046875 -7.0625 C 7.910156 -3.664062 9.691406 0.078125 12.390625 4.171875 Z M 12.390625 4.171875 "/></g></g></g><g fill="#f75000" fill-opacity="1"><g transform="translate(121.518185, 329.644851)"><g><path d="M 11.4375 2.421875 L 1.234375 5.75 L 1.125 5.6875 L 1.859375 3.9375 L 12.0625 0.5625 L 12.171875 0.625 Z M 11.4375 2.421875 "/></g></g></g><g fill="#f75000" fill-opacity="1"><g transform="translate(117.912592, 301.870549)"><g><path d="M 23.15625 17.359375 L 23.9375 19.046875 C 21.6875 20.691406 19.300781 21.925781 16.78125 22.75 C 14.269531 23.582031 12.019531 24 10.03125 24 C 8.414062 24 6.789062 23.695312 5.15625 23.09375 C 3.519531 22.5 2.15625 21.488281 1.0625 20.0625 C -0.0195312 18.632812 -0.5625 16.71875 -0.5625 14.3125 C -0.5625 12.09375 -0.113281 10.257812 0.78125 8.8125 C 1.6875 7.363281 2.910156 6.132812 4.453125 5.125 C 5.992188 4.113281 7.679688 3.191406 9.515625 2.359375 C 8.128906 1.878906 6.703125 1.59375 5.234375 1.5 C 3.773438 1.40625 2.238281 1.359375 0.625 1.359375 L 0.671875 1.296875 L 0.625 1.296875 L 0.625 -1.921875 C 1.519531 -3.378906 2.671875 -4.71875 4.078125 -5.9375 C 5.492188 -7.164062 7.15625 -8.15625 9.0625 -8.90625 C 10.976562 -9.65625 13.160156 -10.03125 15.609375 -10.03125 L 16.28125 -10.03125 C 16.695312 -10.03125 17.035156 -9.894531 17.296875 -9.625 C 17.554688 -9.363281 17.6875 -9.03125 17.6875 -8.625 L 17.6875 -5.234375 C 17.6875 -4.859375 17.554688 -4.53125 17.296875 -4.25 C 17.035156 -3.96875 16.695312 -3.828125 16.28125 -3.828125 L 16 -3.828125 C 14.71875 -3.828125 13.503906 -3.769531 12.359375 -3.65625 C 11.210938 -3.550781 10.097656 -3.328125 9.015625 -2.984375 C 10.367188 -2.796875 11.484375 -2.539062 12.359375 -2.21875 C 13.242188 -1.90625 14.097656 -1.503906 14.921875 -1.015625 C 16.128906 -0.335938 16.675781 0.382812 16.5625 1.15625 C 16.445312 1.925781 16 2.6875 15.21875 3.4375 C 14.5 4.113281 13.519531 4.757812 12.28125 5.375 C 11.039062 6 9.78125 6.675781 8.5 7.40625 C 7.226562 8.132812 6.148438 9 5.265625 10 C 4.378906 11 3.9375 12.210938 3.9375 13.640625 C 3.9375 14.878906 4.414062 15.785156 5.375 16.359375 C 6.332031 16.941406 7.535156 17.328125 8.984375 17.515625 C 10.429688 17.703125 11.90625 17.796875 13.40625 17.796875 C 15.394531 17.796875 17.222656 17.738281 18.890625 17.625 C 20.566406 17.519531 21.988281 17.429688 23.15625 17.359375 Z M 23.15625 17.359375 "/></g></g></g><g fill="#f75000" fill-opacity="1"><g transform="translate(134.194082, 298.039616)"><g><path d="M -1.40625 -1.40625 L -1.40625 -4.734375 C -1.40625 -5.148438 -1.265625 -5.5 -0.984375 -5.78125 C -0.703125 -6.0625 -0.375 -6.203125 0 -6.203125 L 14.078125 -6.203125 C 14.492188 -6.203125 14.832031 -6.066406 15.09375 -5.796875 C 15.363281 -5.535156 15.5 -5.195312 15.5 -4.78125 L 15.5 -1.40625 C 15.5 -1.03125 15.363281 -0.703125 15.09375 -0.421875 C 14.832031 -0.140625 14.492188 0 14.078125 0 L 0 0 C -0.375 0 -0.703125 -0.140625 -0.984375 -0.421875 C -1.265625 -0.703125 -1.40625 -1.03125 -1.40625 -1.40625 Z M -1.40625 -1.40625 "/></g></g></g><g fill="#f75000" fill-opacity="1"><g transform="translate(147.827713, 300.80014)"><g><path d="M 11.4375 2.421875 L 1.234375 5.75 L 1.125 5.6875 L 1.859375 3.9375 L 12.0625 0.5625 L 12.171875 0.625 Z M 11.4375 2.421875 "/></g></g></g><g fill="#f75000" fill-opacity="1"><g transform="translate(148.109402, 290.997443)"><g><path d="M 5.96875 -11.4375 C 7.738281 -10.570312 8.882812 -9.953125 9.40625 -9.578125 C 9.9375 -9.203125 9.898438 -8.617188 9.296875 -7.828125 C 8.660156 -7.003906 7.628906 -6.382812 6.203125 -5.96875 C 4.773438 -5.5625 3.082031 -5.316406 1.125 -5.234375 L 1.125 -6.3125 C 1.914062 -6.53125 2.664062 -6.769531 3.375 -7.03125 C 4.09375 -7.300781 4.789062 -7.601562 5.46875 -7.9375 C 4.71875 -8.238281 4.113281 -8.660156 3.65625 -9.203125 C 3.207031 -9.753906 3.171875 -10.441406 3.546875 -11.265625 C 3.960938 -12.128906 4.664062 -12.890625 5.65625 -13.546875 C 6.65625 -14.203125 8.054688 -14.832031 9.859375 -15.4375 L 9.921875 -15.375 L 8.671875 -12.390625 C 8.109375 -12.242188 7.207031 -11.925781 5.96875 -11.4375 Z M 5.96875 -11.4375 "/></g></g></g><g fill="#f75000" fill-opacity="1"><g transform="translate(148.278416, 298.039616)"><g><path d="M 2.03125 0 L 0 0 C -0.375 0 -0.703125 -0.140625 -0.984375 -0.421875 C -1.265625 -0.703125 -1.40625 -1.03125 -1.40625 -1.40625 L -1.40625 -4.78125 C -1.40625 -5.195312 -1.265625 -5.535156 -0.984375 -5.796875 C -0.703125 -6.066406 -0.351562 -6.203125 0.0625 -6.203125 L 2.53125 -6.203125 C 3.738281 -6.203125 4.765625 -6.414062 5.609375 -6.84375 C 6.453125 -7.28125 7.285156 -8.039062 8.109375 -9.125 L 9.75 -8.84375 C 9.40625 -7.488281 8.929688 -6.132812 8.328125 -4.78125 C 7.734375 -3.4375 6.925781 -2.300781 5.90625 -1.375 C 4.894531 -0.457031 3.601562 0 2.03125 0 Z M 2.03125 0 "/></g></g></g><g fill="#f75000" fill-opacity="1"><g transform="translate(159.712982, 301.870549)"><g><path d="M 7.328125 -3.265625 L 3.09375 0 L 2.25 0 L 2.25 -24.34375 L 6.484375 -27.609375 L 7.328125 -27.609375 Z M 7.328125 -3.265625 "/></g></g></g><g fill="#f75000" fill-opacity="1"><g transform="translate(169.288728, 301.870549)"><g><path d="M 17.46875 -6.203125 C 17.875 -6.203125 18.207031 -6.066406 18.46875 -5.796875 C 18.738281 -5.535156 18.875 -5.195312 18.875 -4.78125 L 18.875 -1.40625 C 18.875 -1.03125 18.738281 -0.703125 18.46875 -0.421875 C 18.207031 -0.140625 17.875 0 17.46875 0 L 14.59375 0 C 14.101562 0 13.707031 0.09375 13.40625 0.28125 C 13.101562 0.46875 12.820312 0.898438 12.5625 1.578125 C 11.925781 3.421875 11.035156 4.8125 9.890625 5.75 C 8.742188 6.6875 7.285156 7.15625 5.515625 7.15625 C 3.753906 7.15625 2 7.066406 0.25 6.890625 C -1.488281 6.722656 -3.242188 6.4375 -5.015625 6.03125 L -5.078125 4.90625 C -2.296875 3.96875 0.179688 3.113281 2.359375 2.34375 C 4.546875 1.570312 6.78125 0.601562 9.0625 -0.5625 L 10.03125 -2.359375 C 10.78125 -3.828125 11.613281 -4.832031 12.53125 -5.375 C 13.457031 -5.925781 14.332031 -6.203125 15.15625 -6.203125 Z M 17.46875 -6.203125 "/></g></g></g><g fill="#f75000" fill-opacity="1"><g transform="translate(186.753304, 301.870549)"><g><path d="M 7.890625 -5.515625 L 4.953125 -1.1875 C 4.578125 -0.582031 4.171875 -0.234375 3.734375 -0.140625 C 3.304688 -0.046875 2.609375 0 1.640625 0 L 0 0 C -0.375 0 -0.703125 -0.140625 -0.984375 -0.421875 C -1.265625 -0.703125 -1.40625 -1.03125 -1.40625 -1.40625 L -1.40625 -4.78125 C -1.40625 -5.195312 -1.265625 -5.535156 -0.984375 -5.796875 C -0.703125 -6.066406 -0.375 -6.203125 0 -6.203125 L 2.8125 -6.203125 L 2.8125 -24.34375 L 7.046875 -27.609375 L 7.890625 -27.609375 Z M 7.890625 -5.515625 "/></g></g></g><g fill="#f75000" fill-opacity="1"><g transform="translate(196.892338, 301.870549)"><g><path d="M 7.328125 -3.265625 L 3.09375 0 L 2.25 0 L 2.25 -24.34375 L 6.484375 -27.609375 L 7.328125 -27.609375 Z M 7.328125 -3.265625 "/></g></g></g><g fill="#f75000" fill-opacity="1"><g transform="translate(206.468084, 301.870549)"><g/></g></g><g fill="#f75000" fill-opacity="1"><g transform="translate(218.748027, 304.631074)"><g><path d="M 11.4375 2.421875 L 1.234375 5.75 L 1.125 5.6875 L 1.859375 3.9375 L 12.0625 0.5625 L 12.171875 0.625 Z M 11.4375 2.421875 "/></g></g></g><g fill="#f75000" fill-opacity="1"><g transform="translate(223.36768, 294.490361)"><g><path d="M 10.3125 -14.3125 L 10.359375 -14.421875 L 10.875 -14.140625 C 10.71875 -12.753906 10.3125 -11.597656 9.65625 -10.671875 C 9 -9.753906 8.28125 -9.296875 7.5 -9.296875 C 6.632812 -9.296875 6.085938 -9.742188 5.859375 -10.640625 C 5.335938 -9.742188 4.507812 -9.296875 3.375 -9.296875 C 2.476562 -9.296875 1.941406 -9.78125 1.765625 -10.75 C 1.597656 -11.726562 1.816406 -12.859375 2.421875 -14.140625 L 2.984375 -14.140625 C 2.796875 -13.390625 2.804688 -12.84375 3.015625 -12.5 C 3.222656 -12.164062 3.515625 -12 3.890625 -12 C 4.296875 -12 4.742188 -12.164062 5.234375 -12.5 C 5.722656 -12.84375 6.097656 -13.390625 6.359375 -14.140625 L 6.703125 -14.140625 C 6.628906 -13.347656 6.742188 -12.773438 7.046875 -12.421875 C 7.347656 -12.066406 7.6875 -11.890625 8.0625 -11.890625 C 8.46875 -11.890625 8.878906 -12.066406 9.296875 -12.421875 C 9.710938 -12.773438 10.050781 -13.40625 10.3125 -14.3125 Z M 10.3125 -14.3125 "/></g></g></g><g fill="#f75000" fill-opacity="1"><g transform="translate(216.043829, 301.870549)"><g><path d="M 17.125 -6.203125 L 18.484375 -6.203125 C 18.890625 -6.203125 19.222656 -6.066406 19.484375 -5.796875 C 19.753906 -5.535156 19.890625 -5.195312 19.890625 -4.78125 L 19.890625 -1.40625 C 19.890625 -1.03125 19.753906 -0.703125 19.484375 -0.421875 C 19.222656 -0.140625 18.890625 0 18.484375 0 L 14.03125 0 L 13.1875 -0.953125 L 12.84375 -2.3125 C 12.207031 -1.519531 11.425781 -0.898438 10.5 -0.453125 C 9.582031 -0.00390625 8.5625 0.21875 7.4375 0.21875 C 6.238281 0.21875 5.066406 -0.0390625 3.921875 -0.5625 C 2.773438 -1.09375 1.675781 -1.75 0.625 -2.53125 L 0.5625 -3.546875 C 3 -4.222656 5.109375 -4.820312 6.890625 -5.34375 C 8.679688 -5.875 10.3125 -6.421875 11.78125 -6.984375 L 11.09375 -9.859375 L 14.703125 -14.03125 L 15.4375 -14.03125 Z M 17.125 -6.203125 "/></g></g></g><g fill="#f75000" fill-opacity="1"><g transform="translate(239.592833, 315.222501)"><g><path d="M 11.4375 2.421875 L 1.234375 5.75 L 1.125 5.6875 L 1.859375 3.9375 L 12.0625 0.5625 L 12.171875 0.625 Z M 11.4375 2.421875 "/></g></g></g><g fill="#f75000" fill-opacity="1"><g transform="translate(230.353515, 310.659175)"><g><path d="M 15.65625 -6.078125 L 18.8125 -2.921875 L 15.65625 0.28125 L 12.453125 -2.921875 Z M 15.65625 -6.078125 "/></g></g></g><g fill="#f75000" fill-opacity="1"><g transform="translate(234.522476, 301.870549)"><g><path d="M 19.5 -15.328125 C 19.90625 -15.328125 20.238281 -15.191406 20.5 -14.921875 C 20.769531 -14.660156 20.90625 -14.328125 20.90625 -13.921875 L 20.90625 -10.53125 C 20.90625 -10.15625 20.769531 -9.828125 20.5 -9.546875 C 20.238281 -9.265625 19.90625 -9.125 19.5 -9.125 L 13.515625 -9.125 C 14.160156 -8.863281 14.769531 -8.5625 15.34375 -8.21875 C 15.925781 -7.882812 16.484375 -7.507812 17.015625 -7.09375 C 17.648438 -6.601562 17.890625 -6.132812 17.734375 -5.6875 C 17.585938 -5.238281 17.289062 -4.601562 16.84375 -3.78125 C 16.238281 -2.613281 14.953125 -1.691406 12.984375 -1.015625 C 11.015625 -0.335938 8.601562 0 5.75 0 L 0 0 C -0.375 0 -0.703125 -0.140625 -0.984375 -0.421875 C -1.265625 -0.703125 -1.40625 -1.03125 -1.40625 -1.40625 L -1.40625 -4.734375 C -1.40625 -5.148438 -1.265625 -5.5 -0.984375 -5.78125 C -0.703125 -6.0625 -0.375 -6.203125 0 -6.203125 C 1.46875 -6.160156 3.046875 -6.148438 4.734375 -6.171875 C 6.421875 -6.191406 8.015625 -6.21875 9.515625 -6.25 C 8.242188 -6.894531 7.015625 -7.476562 5.828125 -8 C 4.648438 -8.519531 3.570312 -8.972656 2.59375 -9.359375 L 2.359375 -10.359375 L 3.828125 -11.9375 C 4.992188 -13.175781 5.929688 -13.984375 6.640625 -14.359375 C 7.359375 -14.734375 8.1875 -14.976562 9.125 -15.09375 C 9.539062 -15.175781 10.21875 -15.222656 11.15625 -15.234375 C 12.09375 -15.253906 13.101562 -15.273438 14.1875 -15.296875 C 15.28125 -15.316406 16.316406 -15.328125 17.296875 -15.328125 C 18.273438 -15.328125 19.007812 -15.328125 19.5 -15.328125 Z M 19.5 -15.328125 "/></g></g></g><g fill="#f75000" fill-opacity="1"><g transform="translate(257.057408, 279.222942)"><g><path d="M 1.640625 -3.828125 L 1.125 -4.671875 C 2.40625 -5.691406 3.429688 -6.546875 4.203125 -7.234375 C 4.972656 -7.929688 5.5625 -8.488281 5.96875 -8.90625 C 5.144531 -9.726562 4.703125 -10.644531 4.640625 -11.65625 C 4.585938 -12.675781 4.863281 -13.484375 5.46875 -14.078125 C 6.0625 -14.722656 6.722656 -15.035156 7.453125 -15.015625 C 8.191406 -14.992188 8.710938 -14.832031 9.015625 -14.53125 C 9.765625 -13.851562 10.070312 -13.023438 9.9375 -12.046875 C 9.8125 -11.078125 9.316406 -10.101562 8.453125 -9.125 C 8.898438 -8.519531 8.9375 -7.9375 8.5625 -7.375 L 8.0625 -6.640625 L 7.9375 -6.640625 C 7.832031 -6.796875 7.703125 -6.96875 7.546875 -7.15625 C 7.398438 -7.34375 7.234375 -7.53125 7.046875 -7.71875 C 6.585938 -7.269531 5.820312 -6.664062 4.75 -5.90625 C 3.6875 -5.15625 2.648438 -4.460938 1.640625 -3.828125 Z M 6.3125 -12.734375 C 6.050781 -12.316406 6.253906 -11.710938 6.921875 -10.921875 L 7.328125 -10.484375 C 7.628906 -10.859375 7.832031 -11.257812 7.9375 -11.6875 C 8.050781 -12.125 8.015625 -12.472656 7.828125 -12.734375 C 7.609375 -12.992188 7.335938 -13.101562 7.015625 -13.0625 C 6.691406 -13.03125 6.457031 -12.921875 6.3125 -12.734375 Z M 6.3125 -12.734375 "/></g></g></g><g fill="#f75000" fill-opacity="1"><g transform="translate(254.015194, 292.743896)"><g><path d="M 12.5 -14.078125 L 15.65625 -14.078125 C 16.070312 -14.078125 16.410156 -13.945312 16.671875 -13.6875 C 16.929688 -13.425781 17.0625 -13.085938 17.0625 -12.671875 L 17.0625 -9.296875 C 17.0625 -8.921875 16.929688 -8.59375 16.671875 -8.3125 C 16.410156 -8.03125 16.070312 -7.890625 15.65625 -7.890625 L 11.71875 -7.890625 C 12.050781 -7.703125 12.265625 -7.4375 12.359375 -7.09375 C 12.453125 -6.757812 12.5 -6.421875 12.5 -6.078125 C 12.5 -5.328125 12.160156 -4.472656 11.484375 -3.515625 C 10.816406 -2.554688 9.84375 -1.726562 8.5625 -1.03125 C 7.28125 -0.34375 5.722656 0 3.890625 0 L 0 0 C -0.375 0 -0.703125 -0.140625 -0.984375 -0.421875 C -1.265625 -0.703125 -1.40625 -1.03125 -1.40625 -1.40625 L -1.40625 -4.78125 C -1.40625 -5.195312 -1.265625 -5.535156 -0.984375 -5.796875 C -0.703125 -6.066406 -0.375 -6.203125 0 -6.203125 L 3.375 -6.203125 L 4.953125 -8.28125 C 6.078125 -9.78125 6.988281 -10.941406 7.6875 -11.765625 C 8.382812 -12.597656 9.085938 -13.191406 9.796875 -13.546875 C 10.515625 -13.898438 11.414062 -14.078125 12.5 -14.078125 Z M 12.5 -14.078125 "/></g></g></g><g fill="#f75000" fill-opacity="1"><g transform="translate(269.620641, 269.363895)"><g><path d="M 5.75 -14.8125 C 7.132812 -14.851562 8.203125 -14.664062 8.953125 -14.25 C 9.703125 -13.84375 10.144531 -13.347656 10.28125 -12.765625 C 10.414062 -12.179688 10.21875 -11.644531 9.6875 -11.15625 C 9.082031 -10.59375 8.234375 -10.113281 7.140625 -9.71875 C 6.054688 -9.320312 4.800781 -8.972656 3.375 -8.671875 L 3.265625 -8.734375 L 3.15625 -9.1875 C 4.050781 -9.519531 4.882812 -9.882812 5.65625 -10.28125 C 6.425781 -10.675781 7.132812 -11.082031 7.78125 -11.5 C 7.019531 -11.757812 6.132812 -11.890625 5.125 -11.890625 C 4.144531 -11.890625 3.351562 -11.8125 2.75 -11.65625 C 2.15625 -11.507812 1.648438 -11.210938 1.234375 -10.765625 L 1.125 -10.8125 C 1.195312 -12.351562 1.628906 -13.394531 2.421875 -13.9375 C 3.210938 -14.488281 4.320312 -14.78125 5.75 -14.8125 Z M 5.75 -14.8125 "/></g></g></g><g fill="#f75000" fill-opacity="1"><g transform="translate(269.676979, 293.41994)"><g><path d="M 7.265625 -6.203125 L 10.078125 -6.203125 C 10.492188 -6.203125 10.832031 -6.066406 11.09375 -5.796875 C 11.363281 -5.535156 11.5 -5.195312 11.5 -4.78125 L 11.5 -1.40625 C 11.5 -1.03125 11.363281 -0.703125 11.09375 -0.421875 C 10.832031 -0.140625 10.492188 0 10.078125 0 L 4.734375 0 L 2.203125 -2.765625 L 2.203125 -8.5625 L 0 -8.5625 C -0.375 -8.5625 -0.703125 -8.703125 -0.984375 -8.984375 C -1.265625 -9.265625 -1.40625 -9.59375 -1.40625 -9.96875 L -1.40625 -13.359375 C -1.40625 -13.765625 -1.265625 -14.097656 -0.984375 -14.359375 C -0.703125 -14.628906 -0.375 -14.765625 0 -14.765625 L 2.203125 -14.765625 L 2.203125 -24.34375 L 6.421875 -27.609375 L 7.265625 -27.609375 Z M 7.265625 -6.203125 "/></g></g></g><g fill="#f75000" fill-opacity="1"><g transform="translate(279.254324, 296.180464)"><g><path d="M 11.4375 2.421875 L 1.234375 5.75 L 1.125 5.6875 L 1.859375 3.9375 L 12.0625 0.5625 L 12.171875 0.625 Z M 11.4375 2.421875 "/></g></g></g><g fill="#f75000" fill-opacity="1"><g transform="translate(279.761365, 293.41994)"><g><path d="M 7.890625 -5.515625 L 4.953125 -1.1875 C 4.578125 -0.582031 4.171875 -0.234375 3.734375 -0.140625 C 3.304688 -0.046875 2.609375 0 1.640625 0 L 0 0 C -0.375 0 -0.703125 -0.140625 -0.984375 -0.421875 C -1.265625 -0.703125 -1.40625 -1.03125 -1.40625 -1.40625 L -1.40625 -4.78125 C -1.40625 -5.195312 -1.265625 -5.535156 -0.984375 -5.796875 C -0.703125 -6.066406 -0.375 -6.203125 0 -6.203125 L 2.8125 -6.203125 L 2.8125 -24.34375 L 7.046875 -27.609375 L 7.890625 -27.609375 Z M 7.890625 -5.515625 "/></g></g></g><g fill="#f75000" fill-opacity="1"><g transform="translate(289.900399, 301.870549)"><g><path d="M 9.1875 -15.046875 C 10.082031 -15.046875 10.925781 -14.648438 11.71875 -13.859375 C 12.507812 -13.066406 13.109375 -11.890625 13.515625 -10.328125 C 13.929688 -8.773438 14.007812 -6.832031 13.75 -4.5 C 13.519531 -2.289062 12.953125 -0.296875 12.046875 1.484375 C 11.148438 3.273438 9.859375 4.675781 8.171875 5.6875 C 6.484375 6.707031 4.34375 7.195312 1.75 7.15625 C 0.882812 7.15625 -0.109375 7.066406 -1.234375 6.890625 C -2.359375 6.722656 -3.804688 6.4375 -5.578125 6.03125 L -5.640625 4.84375 C -2.515625 3.601562 0.425781 2.285156 3.1875 0.890625 C 5.945312 -0.492188 8.566406 -2.050781 11.046875 -3.78125 L 10.921875 -4.5 L 8.625 -4.5625 C 7.15625 -4.601562 6.082031 -4.894531 5.40625 -5.4375 C 4.726562 -5.976562 4.367188 -6.671875 4.328125 -7.515625 C 4.296875 -8.359375 4.445312 -9.253906 4.78125 -10.203125 C 5.457031 -12.035156 6.160156 -13.300781 6.890625 -14 C 7.628906 -14.695312 8.394531 -15.046875 9.1875 -15.046875 Z M 9.1875 -15.046875 "/></g></g></g><g fill="#f75000" fill-opacity="1"><g transform="translate(305.221597, 301.870549)"><g/></g></g><g fill="#f75000" fill-opacity="1"><g transform="translate(310.515706, 293.983319)"><g><path d="M 15.65625 -6.078125 L 18.8125 -2.921875 L 15.65625 0.28125 L 12.453125 -2.921875 Z M 15.65625 -6.078125 "/></g></g></g><g fill="#f75000" fill-opacity="1"><g transform="translate(314.797343, 301.870549)"><g><path d="M 22.703125 -6.203125 L 26.421875 -6.203125 C 26.835938 -6.203125 27.175781 -6.066406 27.4375 -5.796875 C 27.695312 -5.535156 27.828125 -5.195312 27.828125 -4.78125 L 27.828125 -1.40625 C 27.828125 -1.03125 27.695312 -0.703125 27.4375 -0.421875 C 27.175781 -0.140625 26.835938 0 26.421875 0 L 23.15625 0 L 23.15625 0.78125 C 23.15625 0.976562 23.097656 1.242188 22.984375 1.578125 C 22.679688 2.742188 22.273438 3.90625 21.765625 5.0625 C 21.265625 6.226562 20.410156 7.300781 19.203125 8.28125 C 18.046875 9.1875 16.648438 9.910156 15.015625 10.453125 C 13.378906 10.992188 11.734375 11.265625 10.078125 11.265625 C 7.304688 11.265625 5.117188 10.484375 3.515625 8.921875 C 1.921875 7.367188 1.113281 5.265625 1.09375 2.609375 C 1.082031 -0.0351562 2.03125 -2.988281 3.9375 -6.25 L 4.5 -7.21875 L 6.3125 -6.703125 L 5.75 -5.515625 C 4.8125 -3.523438 4.425781 -1.734375 4.59375 -0.140625 C 4.757812 1.453125 5.414062 2.71875 6.5625 3.65625 C 7.707031 4.601562 9.21875 5.078125 11.09375 5.078125 C 12.070312 5.078125 13.285156 4.882812 14.734375 4.5 C 16.179688 4.125 17.769531 3.410156 19.5 2.359375 C 19.226562 1.273438 19 0.382812 18.8125 -0.3125 C 18.625 -1.007812 18.425781 -1.75 18.21875 -2.53125 C 18.019531 -3.320312 17.734375 -4.335938 17.359375 -5.578125 L 20.453125 -9.921875 L 21.859375 -9.921875 C 22.273438 -8.640625 22.554688 -7.398438 22.703125 -6.203125 Z M 22.703125 -6.203125 "/></g></g></g><g fill="#f75000" fill-opacity="1"><g transform="translate(328.994365, 317.025292)"><g><path d="M 21.015625 -6.078125 L 24.171875 -2.921875 L 21.015625 0.28125 L 18.203125 -2.53125 L 15.4375 0.28125 L 12.171875 -2.921875 L 15.4375 -6.078125 L 18.203125 -3.328125 Z M 21.015625 -6.078125 "/></g></g></g><g fill="#f75000" fill-opacity="1"><g transform="translate(341.219558, 301.870549)"><g><path d="M 2.03125 0 L 0 0 C -0.375 0 -0.703125 -0.140625 -0.984375 -0.421875 C -1.265625 -0.703125 -1.40625 -1.03125 -1.40625 -1.40625 L -1.40625 -4.78125 C -1.40625 -5.195312 -1.265625 -5.535156 -0.984375 -5.796875 C -0.703125 -6.066406 -0.351562 -6.203125 0.0625 -6.203125 L 2.53125 -6.203125 C 3.738281 -6.203125 4.765625 -6.414062 5.609375 -6.84375 C 6.453125 -7.28125 7.285156 -8.039062 8.109375 -9.125 L 9.75 -8.84375 C 9.40625 -7.488281 8.929688 -6.132812 8.328125 -4.78125 C 7.734375 -3.4375 6.925781 -2.300781 5.90625 -1.375 C 4.894531 -0.457031 3.601562 0 2.03125 0 Z M 2.03125 0 "/></g></g></g><g fill="#f75000" fill-opacity="1"><g transform="translate(352.654124, 301.870549)"><g><path d="M 17.46875 -6.203125 C 17.875 -6.203125 18.207031 -6.066406 18.46875 -5.796875 C 18.738281 -5.535156 18.875 -5.195312 18.875 -4.78125 L 18.875 -1.40625 C 18.875 -1.03125 18.738281 -0.703125 18.46875 -0.421875 C 18.207031 -0.140625 17.875 0 17.46875 0 L 14.59375 0 C 14.101562 0 13.707031 0.09375 13.40625 0.28125 C 13.101562 0.46875 12.820312 0.898438 12.5625 1.578125 C 11.925781 3.421875 11.035156 4.8125 9.890625 5.75 C 8.742188 6.6875 7.285156 7.15625 5.515625 7.15625 C 3.753906 7.15625 2 7.066406 0.25 6.890625 C -1.488281 6.722656 -3.242188 6.4375 -5.015625 6.03125 L -5.078125 4.90625 C -2.296875 3.96875 0.179688 3.113281 2.359375 2.34375 C 4.546875 1.570312 6.78125 0.601562 9.0625 -0.5625 L 10.03125 -2.359375 C 10.78125 -3.828125 11.613281 -4.832031 12.53125 -5.375 C 13.457031 -5.925781 14.332031 -6.203125 15.15625 -6.203125 Z M 17.46875 -6.203125 "/></g></g></g><g fill="#f75000" fill-opacity="1"><g transform="translate(370.287714, 305.194453)"><g><path d="M 11.4375 2.421875 L 1.234375 5.75 L 1.125 5.6875 L 1.859375 3.9375 L 12.0625 0.5625 L 12.171875 0.625 Z M 11.4375 2.421875 "/></g></g></g><g fill="#f75000" fill-opacity="1"><g transform="translate(370.1187, 301.870549)"><g><path d="M 19.609375 -27.609375 L 20.34375 -26.484375 L 18.921875 -21.640625 L 8.390625 -17.015625 L 8.390625 -5.515625 L 5.46875 -1.1875 C 5.09375 -0.582031 4.6875 -0.234375 4.25 -0.140625 C 3.820312 -0.046875 3.117188 0 2.140625 0 L 0 0 C -0.375 0 -0.703125 -0.140625 -0.984375 -0.421875 C -1.265625 -0.703125 -1.40625 -1.03125 -1.40625 -1.40625 L -1.40625 -4.78125 C -1.40625 -5.195312 -1.265625 -5.535156 -0.984375 -5.796875 C -0.703125 -6.066406 -0.375 -6.203125 0 -6.203125 L 3.328125 -6.203125 L 3.328125 -14.765625 L 7.828125 -22.53125 Z M 19.609375 -27.609375 "/></g></g></g><g fill="#f75000" fill-opacity="1"><g transform="translate(384.820295, 301.870549)"><g><path d="M 7.328125 -6.203125 L 9.578125 -6.203125 C 9.992188 -6.203125 10.332031 -6.066406 10.59375 -5.796875 C 10.851562 -5.535156 10.984375 -5.195312 10.984375 -4.78125 L 10.984375 -1.40625 C 10.984375 -1.03125 10.851562 -0.703125 10.59375 -0.421875 C 10.332031 -0.140625 9.992188 0 9.578125 0 L 3.09375 0 L 2.25 -0.953125 L 2.25 -24.34375 L 6.484375 -27.609375 L 7.328125 -27.609375 Z M 7.328125 -6.203125 "/></g></g></g><g fill="#f75000" fill-opacity="1"><g transform="translate(384.763934, 310.659175)"><g><path d="M 15.65625 -6.078125 L 18.8125 -2.921875 L 15.65625 0.28125 L 12.453125 -2.921875 Z M 15.65625 -6.078125 "/></g></g></g><g fill="#f75000" fill-opacity="1"><g transform="translate(394.397629, 301.870549)"><g><path d="M 7.78125 -6.203125 L 12.0625 -6.203125 C 12.46875 -6.203125 12.800781 -6.066406 13.0625 -5.796875 C 13.332031 -5.535156 13.46875 -5.195312 13.46875 -4.78125 L 13.46875 -1.40625 C 13.46875 -1.03125 13.332031 -0.703125 13.0625 -0.421875 C 12.800781 -0.140625 12.46875 0 12.0625 0 L 6.984375 0 L 5.921875 -1.015625 C 5.316406 -0.335938 4.546875 0 3.609375 0 L 0 0 C -0.375 0 -0.703125 -0.140625 -0.984375 -0.421875 C -1.265625 -0.703125 -1.40625 -1.03125 -1.40625 -1.40625 L -1.40625 -4.78125 C -1.40625 -5.195312 -1.273438 -5.535156 -1.015625 -5.796875 C -0.753906 -6.066406 -0.414062 -6.203125 0 -6.203125 C 1.65625 -6.160156 3.015625 -6.382812 4.078125 -6.875 C 5.148438 -7.363281 6.117188 -8.359375 6.984375 -9.859375 L 8.625 -9.578125 Z M 7.78125 -6.203125 "/></g></g></g><g fill="#f75000" fill-opacity="1"><g transform="translate(406.453831, 301.870549)"><g><path d="M 7.890625 -5.515625 L 4.953125 -1.1875 C 4.578125 -0.582031 4.171875 -0.234375 3.734375 -0.140625 C 3.304688 -0.046875 2.609375 0 1.640625 0 L 0 0 C -0.375 0 -0.703125 -0.140625 -0.984375 -0.421875 C -1.265625 -0.703125 -1.40625 -1.03125 -1.40625 -1.40625 L -1.40625 -4.78125 C -1.40625 -5.195312 -1.265625 -5.535156 -0.984375 -5.796875 C -0.703125 -6.066406 -0.375 -6.203125 0 -6.203125 L 2.8125 -6.203125 L 2.8125 -24.34375 L 7.046875 -27.609375 L 7.890625 -27.609375 Z M 7.890625 -5.515625 "/></g></g></g><g fill="#f75000" fill-opacity="1"><g transform="translate(416.592854, 301.870549)"><g><path d="M 7.328125 -3.265625 L 3.09375 0 L 2.25 0 L 2.25 -24.34375 L 6.484375 -27.609375 L 7.328125 -27.609375 Z M 7.328125 -3.265625 "/></g></g></g><g fill="#f75000" fill-opacity="1"><g transform="translate(426.168611, 301.870549)"><g><path d="M 9.1875 -15.046875 C 10.082031 -15.046875 10.925781 -14.648438 11.71875 -13.859375 C 12.507812 -13.066406 13.109375 -11.890625 13.515625 -10.328125 C 13.929688 -8.773438 14.007812 -6.832031 13.75 -4.5 C 13.519531 -2.289062 12.953125 -0.296875 12.046875 1.484375 C 11.148438 3.273438 9.859375 4.675781 8.171875 5.6875 C 6.484375 6.707031 4.34375 7.195312 1.75 7.15625 C 0.882812 7.15625 -0.109375 7.066406 -1.234375 6.890625 C -2.359375 6.722656 -3.804688 6.4375 -5.578125 6.03125 L -5.640625 4.84375 C -2.515625 3.601562 0.425781 2.285156 3.1875 0.890625 C 5.945312 -0.492188 8.566406 -2.050781 11.046875 -3.78125 L 10.921875 -4.5 L 8.625 -4.5625 C 7.15625 -4.601562 6.082031 -4.894531 5.40625 -5.4375 C 4.726562 -5.976562 4.367188 -6.671875 4.328125 -7.515625 C 4.296875 -8.359375 4.445312 -9.253906 4.78125 -10.203125 C 5.457031 -12.035156 6.160156 -13.300781 6.890625 -14 C 7.628906 -14.695312 8.394531 -15.046875 9.1875 -15.046875 Z M 9.1875 -15.046875 "/></g></g></g><g fill="#f75000" fill-opacity="1"><g transform="translate(441.489809, 301.870549)"><g/></g></g><g fill="#f75000" fill-opacity="1"><g transform="translate(451.065544, 301.870549)"><g><path d="M 8.5625 -22.984375 L 9.75 -20.953125 L 6.8125 -19.828125 L 9.75 -18.703125 L 8.5625 -16.671875 L 6.140625 -18.640625 L 6.640625 -15.546875 L 4.28125 -15.546875 L 4.78125 -18.59375 L 2.359375 -16.671875 L 1.1875 -18.703125 L 4.0625 -19.828125 L 1.1875 -20.953125 L 2.359375 -22.984375 L 4.78125 -21.015625 L 4.28125 -24.109375 L 6.640625 -24.109375 L 6.140625 -21.015625 Z M 8.5625 -22.984375 "/></g></g></g><g fill="#f75000" fill-opacity="1"><g transform="translate(461.936845, 301.870549)"><g/></g></g><g fill="#f75000" fill-opacity="1"><g transform="translate(471.512602, 301.870549)"><g><path d="M 7.328125 -3.265625 L 3.09375 0 L 2.25 0 L 2.25 -24.34375 L 6.484375 -27.609375 L 7.328125 -27.609375 Z M 7.328125 -3.265625 "/></g></g></g><g fill="#f75000" fill-opacity="1"><g transform="translate(485.031946, 292.574894)"><g><path d="M 5.75 -14.8125 C 7.132812 -14.851562 8.203125 -14.664062 8.953125 -14.25 C 9.703125 -13.84375 10.144531 -13.347656 10.28125 -12.765625 C 10.414062 -12.179688 10.21875 -11.644531 9.6875 -11.15625 C 9.082031 -10.59375 8.234375 -10.113281 7.140625 -9.71875 C 6.054688 -9.320312 4.800781 -8.972656 3.375 -8.671875 L 3.265625 -8.734375 L 3.15625 -9.1875 C 4.050781 -9.519531 4.882812 -9.882812 5.65625 -10.28125 C 6.425781 -10.675781 7.132812 -11.082031 7.78125 -11.5 C 7.019531 -11.757812 6.132812 -11.890625 5.125 -11.890625 C 4.144531 -11.890625 3.351562 -11.8125 2.75 -11.65625 C 2.15625 -11.507812 1.648438 -11.210938 1.234375 -10.765625 L 1.125 -10.8125 C 1.195312 -12.351562 1.628906 -13.394531 2.421875 -13.9375 C 3.210938 -14.488281 4.320312 -14.78125 5.75 -14.8125 Z M 5.75 -14.8125 "/></g></g></g><g fill="#f75000" fill-opacity="1"><g transform="translate(481.088337, 301.870549)"><g><path d="M 9.1875 -15.046875 C 10.082031 -15.046875 10.925781 -14.648438 11.71875 -13.859375 C 12.507812 -13.066406 13.109375 -11.890625 13.515625 -10.328125 C 13.929688 -8.773438 14.007812 -6.832031 13.75 -4.5 C 13.519531 -2.289062 12.953125 -0.296875 12.046875 1.484375 C 11.148438 3.273438 9.859375 4.675781 8.171875 5.6875 C 6.484375 6.707031 4.34375 7.195312 1.75 7.15625 C 0.882812 7.15625 -0.109375 7.066406 -1.234375 6.890625 C -2.359375 6.722656 -3.804688 6.4375 -5.578125 6.03125 L -5.640625 4.84375 C -2.515625 3.601562 0.425781 2.285156 3.1875 0.890625 C 5.945312 -0.492188 8.566406 -2.050781 11.046875 -3.78125 L 10.921875 -4.5 L 8.625 -4.5625 C 7.15625 -4.601562 6.082031 -4.894531 5.40625 -5.4375 C 4.726562 -5.976562 4.367188 -6.671875 4.328125 -7.515625 C 4.296875 -8.359375 4.445312 -9.253906 4.78125 -10.203125 C 5.457031 -12.035156 6.160156 -13.300781 6.890625 -14 C 7.628906 -14.695312 8.394531 -15.046875 9.1875 -15.046875 Z M 9.1875 -15.046875 "/></g></g></g><g fill="#f75000" fill-opacity="1"><g transform="translate(501.761593, 293.138262)"><g><path d="M 11.4375 -13.515625 L 1.234375 -10.203125 L 1.125 -10.25 L 1.859375 -12 L 12.0625 -15.375 L 12.171875 -15.328125 Z M 11.4375 -13.515625 "/></g></g></g><g fill="#f75000" fill-opacity="1"><g transform="translate(492.240574, 293.1946)"><g><path d="M 15.65625 -6.078125 L 18.8125 -2.921875 L 15.65625 0.28125 L 12.453125 -2.921875 Z M 15.65625 -6.078125 "/></g></g></g><g fill="#f75000" fill-opacity="1"><g transform="translate(496.409535, 301.870549)"><g><path d="M 17.46875 -6.203125 C 17.875 -6.203125 18.207031 -6.066406 18.46875 -5.796875 C 18.738281 -5.535156 18.875 -5.195312 18.875 -4.78125 L 18.875 -1.40625 C 18.875 -1.03125 18.738281 -0.703125 18.46875 -0.421875 C 18.207031 -0.140625 17.875 0 17.46875 0 L 14.59375 0 C 14.101562 0 13.707031 0.09375 13.40625 0.28125 C 13.101562 0.46875 12.820312 0.898438 12.5625 1.578125 C 11.925781 3.421875 11.035156 4.8125 9.890625 5.75 C 8.742188 6.6875 7.285156 7.15625 5.515625 7.15625 C 3.753906 7.15625 2 7.066406 0.25 6.890625 C -1.488281 6.722656 -3.242188 6.4375 -5.015625 6.03125 L -5.078125 4.90625 C -2.296875 3.96875 0.179688 3.113281 2.359375 2.34375 C 4.546875 1.570312 6.78125 0.601562 9.0625 -0.5625 L 10.03125 -2.359375 C 10.78125 -3.828125 11.613281 -4.832031 12.53125 -5.375 C 13.457031 -5.925781 14.332031 -6.203125 15.15625 -6.203125 Z M 17.46875 -6.203125 "/></g></g></g><g fill="#f75000" fill-opacity="1"><g transform="translate(516.916312, 281.701787)"><g><path d="M 11.4375 -13.515625 L 1.234375 -10.203125 L 1.125 -10.25 L 1.859375 -12 L 12.0625 -15.375 L 12.171875 -15.328125 Z M 11.4375 -13.515625 "/></g></g></g><g fill="#f75000" fill-opacity="1"><g transform="translate(507.395294, 281.758125)"><g><path d="M 15.65625 -6.078125 L 18.8125 -2.921875 L 15.65625 0.28125 L 12.453125 -2.921875 Z M 15.65625 -6.078125 "/></g></g></g><g fill="#f75000" fill-opacity="1"><g transform="translate(513.87411, 301.870549)"><g><path d="M 9.75 -6.203125 L 16.953125 -6.203125 L 16.953125 -5.078125 L 13.96875 0 L 0 0 C -0.375 0 -0.703125 -0.140625 -0.984375 -0.421875 C -1.265625 -0.703125 -1.40625 -1.03125 -1.40625 -1.40625 L -1.40625 -4.78125 C -1.40625 -5.195312 -1.265625 -5.535156 -0.984375 -5.796875 C -0.703125 -6.066406 -0.375 -6.203125 0 -6.203125 L 2.53125 -6.203125 C 2.269531 -6.878906 2.101562 -7.597656 2.03125 -8.359375 C 1.957031 -9.128906 2.050781 -9.984375 2.3125 -10.921875 C 2.570312 -11.867188 3.03125 -12.78125 3.6875 -13.65625 C 4.34375 -14.539062 5.160156 -15.273438 6.140625 -15.859375 C 7.117188 -16.441406 8.191406 -16.675781 9.359375 -16.5625 C 10.890625 -16.445312 12.632812 -15.847656 14.59375 -14.765625 L 12.84375 -9.515625 L 12.5 -9.40625 C 11.039062 -10.082031 9.46875 -10.476562 7.78125 -10.59375 C 7.289062 -10.625 6.789062 -10.628906 6.28125 -10.609375 C 5.769531 -10.597656 5.253906 -10.554688 4.734375 -10.484375 C 5.554688 -9.503906 6.363281 -8.6875 7.15625 -8.03125 C 7.945312 -7.375 8.8125 -6.765625 9.75 -6.203125 Z M 9.75 -6.203125 "/></g></g></g><g fill="#f75000" fill-opacity="1"><g transform="translate(532.518629, 301.870549)"><g/></g></g><g fill="#f75000" fill-opacity="1"><g transform="translate(542.094387, 301.870549)"><g><path d="M 7.328125 -3.265625 L 3.09375 0 L 2.25 0 L 2.25 -24.34375 L 6.484375 -27.609375 L 7.328125 -27.609375 Z M 7.328125 -3.265625 "/></g></g></g><g fill="#f75000" fill-opacity="1"><g transform="translate(549.078599, 283.560916)"><g><path d="M 15.65625 -6.078125 L 18.8125 -2.921875 L 15.65625 0.28125 L 12.453125 -2.921875 Z M 15.65625 -6.078125 "/></g></g></g><g fill="#f75000" fill-opacity="1"><g transform="translate(551.670144, 301.870549)"><g><path d="M 13.0625 -15.78125 L 14.25 -15.78125 C 14.8125 -14.425781 15.242188 -13.070312 15.546875 -11.71875 C 15.847656 -10.363281 15.960938 -8.972656 15.890625 -7.546875 C 15.847656 -5.972656 15.3125 -4.519531 14.28125 -3.1875 C 13.25 -1.851562 11.679688 -0.863281 9.578125 -0.21875 C 8.222656 0.15625 6.8125 0.394531 5.34375 0.5 C 3.882812 0.613281 2.382812 0.632812 0.84375 0.5625 L 0.5625 -0.0625 L 3.9375 -5.515625 C 5.03125 -5.484375 6.253906 -5.53125 7.609375 -5.65625 C 8.960938 -5.789062 10.40625 -6.046875 11.9375 -6.421875 C 11.34375 -8.222656 10.613281 -9.96875 9.75 -11.65625 Z M 13.0625 -15.78125 "/></g></g></g><g fill="#f75000" fill-opacity="1"><g transform="translate(568.286726, 304.462071)"><g><path d="M 5.96875 3.9375 C 7.738281 4.800781 8.882812 5.421875 9.40625 5.796875 C 9.9375 6.171875 9.898438 6.753906 9.296875 7.546875 C 8.660156 8.367188 7.628906 8.988281 6.203125 9.40625 C 4.773438 9.820312 3.082031 10.066406 1.125 10.140625 L 1.125 9.0625 C 1.914062 8.84375 2.664062 8.597656 3.375 8.328125 C 4.09375 8.066406 4.789062 7.769531 5.46875 7.4375 C 4.71875 7.132812 4.113281 6.710938 3.65625 6.171875 C 3.207031 5.628906 3.171875 4.941406 3.546875 4.109375 C 3.960938 3.242188 4.664062 2.484375 5.65625 1.828125 C 6.65625 1.171875 8.054688 0.539062 9.859375 -0.0625 L 9.921875 0 L 8.671875 2.984375 C 8.109375 3.140625 7.207031 3.457031 5.96875 3.9375 Z M 5.96875 3.9375 "/></g></g></g><g fill="#f75000" fill-opacity="1"><g transform="translate(569.244471, 301.870549)"><g><path d="M 7.328125 -3.265625 L 3.09375 0 L 2.25 0 L 2.25 -24.34375 L 6.484375 -27.609375 L 7.328125 -27.609375 Z M 7.328125 -3.265625 "/></g></g></g><g fill="#f75000" fill-opacity="1"><g transform="translate(578.820182, 301.870549)"><g/></g></g><g fill="#f75000" fill-opacity="1"><g transform="translate(590.649411, 295.448093)"><g><path d="M 10.3125 -14.3125 L 10.359375 -14.421875 L 10.875 -14.140625 C 10.71875 -12.753906 10.3125 -11.597656 9.65625 -10.671875 C 9 -9.753906 8.28125 -9.296875 7.5 -9.296875 C 6.632812 -9.296875 6.085938 -9.742188 5.859375 -10.640625 C 5.335938 -9.742188 4.507812 -9.296875 3.375 -9.296875 C 2.476562 -9.296875 1.941406 -9.78125 1.765625 -10.75 C 1.597656 -11.726562 1.816406 -12.859375 2.421875 -14.140625 L 2.984375 -14.140625 C 2.796875 -13.390625 2.804688 -12.84375 3.015625 -12.5 C 3.222656 -12.164062 3.515625 -12 3.890625 -12 C 4.296875 -12 4.742188 -12.164062 5.234375 -12.5 C 5.722656 -12.84375 6.097656 -13.390625 6.359375 -14.140625 L 6.703125 -14.140625 C 6.628906 -13.347656 6.742188 -12.773438 7.046875 -12.421875 C 7.347656 -12.066406 7.6875 -11.890625 8.0625 -11.890625 C 8.46875 -11.890625 8.878906 -12.066406 9.296875 -12.421875 C 9.710938 -12.773438 10.050781 -13.40625 10.3125 -14.3125 Z M 10.3125 -14.3125 "/></g></g></g><g fill="#f75000" fill-opacity="1"><g transform="translate(581.804493, 317.025292)"><g><path d="M 21.015625 -6.078125 L 24.171875 -2.921875 L 21.015625 0.28125 L 18.203125 -2.53125 L 15.4375 0.28125 L 12.171875 -2.921875 L 15.4375 -6.078125 L 18.203125 -3.328125 Z M 21.015625 -6.078125 "/></g></g></g><g fill="#f75000" fill-opacity="1"><g transform="translate(588.39594, 301.870549)"><g><path d="M 26.984375 -7.21875 C 27.960938 -6.644531 28.640625 -6.03125 29.015625 -5.375 C 29.390625 -4.71875 29.273438 -3.734375 28.671875 -2.421875 L 27.046875 1.078125 C 25.992188 1.828125 24.695312 2.601562 23.15625 3.40625 C 21.613281 4.21875 19.875 4.882812 17.9375 5.40625 C 16.007812 5.9375 13.914062 6.203125 11.65625 6.203125 C 7.976562 6.203125 5.34375 5.421875 3.75 3.859375 C 2.15625 2.296875 1.5 0.203125 1.78125 -2.421875 C 2.0625 -5.046875 3.160156 -8.015625 5.078125 -11.328125 L 5.640625 -12.28125 L 7.4375 -11.78125 L 6.875 -10.59375 C 5.9375 -8.601562 5.503906 -6.804688 5.578125 -5.203125 C 5.648438 -3.609375 6.296875 -2.34375 7.515625 -1.40625 C 8.742188 -0.46875 10.59375 0 13.0625 0 C 15.207031 0 17.226562 -0.304688 19.125 -0.921875 C 21.019531 -1.546875 22.550781 -2.117188 23.71875 -2.640625 C 21.65625 -3.546875 20.078125 -4.4375 18.984375 -5.3125 C 17.898438 -6.195312 17.359375 -7.523438 17.359375 -9.296875 C 17.359375 -11.140625 17.851562 -12.800781 18.84375 -14.28125 C 19.84375 -15.757812 21.128906 -16.929688 22.703125 -17.796875 C 24.273438 -18.660156 25.925781 -19.09375 27.65625 -19.09375 L 27.890625 -18.640625 L 26.25 -12.90625 C 25.351562 -12.71875 24.5 -12.488281 23.6875 -12.21875 C 22.882812 -11.957031 22.050781 -11.601562 21.1875 -11.15625 C 21.820312 -10.101562 22.65625 -9.347656 23.6875 -8.890625 C 24.71875 -8.441406 25.816406 -7.882812 26.984375 -7.21875 Z M 26.984375 -7.21875 "/></g></g></g><g fill="#f75000" fill-opacity="1"><g transform="translate(621.179177, 310.659174)"><g><path d="M 11.4375 2.421875 L 1.234375 5.75 L 1.125 5.6875 L 1.859375 3.9375 L 12.0625 0.5625 L 12.171875 0.625 Z M 11.4375 2.421875 "/></g></g></g><g fill="#f75000" fill-opacity="1"><g transform="translate(615.094726, 293.194599)"><g><path d="M 15.65625 -6.078125 L 18.8125 -2.921875 L 15.65625 0.28125 L 12.453125 -2.921875 Z M 15.65625 -6.078125 "/></g></g></g><g fill="#f75000" fill-opacity="1"><g transform="translate(619.263687, 301.870548)"><g><path d="M 17.46875 -6.203125 C 17.875 -6.203125 18.207031 -6.066406 18.46875 -5.796875 C 18.738281 -5.535156 18.875 -5.195312 18.875 -4.78125 L 18.875 -1.40625 C 18.875 -1.03125 18.738281 -0.703125 18.46875 -0.421875 C 18.207031 -0.140625 17.875 0 17.46875 0 L 14.59375 0 C 14.101562 0 13.707031 0.09375 13.40625 0.28125 C 13.101562 0.46875 12.820312 0.898438 12.5625 1.578125 C 11.925781 3.421875 11.035156 4.8125 9.890625 5.75 C 8.742188 6.6875 7.285156 7.15625 5.515625 7.15625 C 3.753906 7.15625 2 7.066406 0.25 6.890625 C -1.488281 6.722656 -3.242188 6.4375 -5.015625 6.03125 L -5.078125 4.90625 C -2.296875 3.96875 0.179688 3.113281 2.359375 2.34375 C 4.546875 1.570312 6.78125 0.601562 9.0625 -0.5625 L 10.03125 -2.359375 C 10.78125 -3.828125 11.613281 -4.832031 12.53125 -5.375 C 13.457031 -5.925781 14.332031 -6.203125 15.15625 -6.203125 Z M 17.46875 -6.203125 "/></g></g></g><g fill="#f75000" fill-opacity="1"><g transform="translate(639.995817, 284.744)"><g><path d="M 11.4375 -13.515625 L 1.234375 -10.203125 L 1.125 -10.25 L 1.859375 -12 L 12.0625 -15.375 L 12.171875 -15.328125 Z M 11.4375 -13.515625 "/></g></g></g><g fill="#f75000" fill-opacity="1"><g transform="translate(630.474798, 284.800338)"><g><path d="M 15.65625 -6.078125 L 18.8125 -2.921875 L 15.65625 0.28125 L 12.453125 -2.921875 Z M 15.65625 -6.078125 "/></g></g></g><g fill="#f75000" fill-opacity="1"><g transform="translate(636.728263, 301.870548)"><g><path d="M 13.0625 -6.203125 L 17.125 -6.203125 C 17.539062 -6.203125 17.878906 -6.066406 18.140625 -5.796875 C 18.398438 -5.535156 18.53125 -5.195312 18.53125 -4.78125 L 18.53125 -1.40625 C 18.53125 -1.03125 18.398438 -0.703125 18.140625 -0.421875 C 17.878906 -0.140625 17.539062 0 17.125 0 L 16.0625 0 C 14.445312 0 12.976562 -0.128906 11.65625 -0.390625 C 10.34375 -0.648438 9.179688 -0.972656 8.171875 -1.359375 C 7.003906 -0.867188 5.816406 -0.519531 4.609375 -0.3125 C 3.410156 -0.101562 2.15625 0 0.84375 0 L 0 0 C -0.375 0 -0.703125 -0.140625 -0.984375 -0.421875 C -1.265625 -0.703125 -1.40625 -1.03125 -1.40625 -1.40625 L -1.40625 -4.734375 C -1.40625 -5.148438 -1.265625 -5.5 -0.984375 -5.78125 C -0.703125 -6.0625 -0.375 -6.203125 0 -6.203125 L 3.9375 -6.203125 C 3.675781 -6.765625 3.476562 -7.257812 3.34375 -7.6875 C 3.21875 -8.125 3.117188 -8.472656 3.046875 -8.734375 C 3.796875 -11.171875 5.035156 -13.03125 6.765625 -14.3125 C 8.191406 -14.5 9.503906 -14.5625 10.703125 -14.5 C 11.898438 -14.445312 12.851562 -14.15625 13.5625 -13.625 C 14.28125 -13.101562 14.640625 -12.1875 14.640625 -10.875 C 14.640625 -9.289062 14.113281 -7.734375 13.0625 -6.203125 Z M 13.0625 -6.203125 "/></g></g></g><g fill="#f75000" fill-opacity="1"><g transform="translate(654.1365, 278.715899)"><g><path d="M 5.75 -14.8125 C 7.132812 -14.851562 8.203125 -14.664062 8.953125 -14.25 C 9.703125 -13.84375 10.144531 -13.347656 10.28125 -12.765625 C 10.414062 -12.179688 10.21875 -11.644531 9.6875 -11.15625 C 9.082031 -10.59375 8.234375 -10.113281 7.140625 -9.71875 C 6.054688 -9.320312 4.800781 -8.972656 3.375 -8.671875 L 3.265625 -8.734375 L 3.15625 -9.1875 C 4.050781 -9.519531 4.882812 -9.882812 5.65625 -10.28125 C 6.425781 -10.675781 7.132812 -11.082031 7.78125 -11.5 C 7.019531 -11.757812 6.132812 -11.890625 5.125 -11.890625 C 4.144531 -11.890625 3.351562 -11.8125 2.75 -11.65625 C 2.15625 -11.507812 1.648438 -11.210938 1.234375 -10.765625 L 1.125 -10.8125 C 1.195312 -12.351562 1.628906 -13.394531 2.421875 -13.9375 C 3.210938 -14.488281 4.320312 -14.78125 5.75 -14.8125 Z M 5.75 -14.8125 "/></g></g></g><g fill="#f75000" fill-opacity="1"><g transform="translate(653.85481, 301.870548)"><g><path d="M 7.890625 -5.515625 L 4.953125 -1.1875 C 4.578125 -0.582031 4.171875 -0.234375 3.734375 -0.140625 C 3.304688 -0.046875 2.609375 0 1.640625 0 L 0 0 C -0.375 0 -0.703125 -0.140625 -0.984375 -0.421875 C -1.265625 -0.703125 -1.40625 -1.03125 -1.40625 -1.40625 L -1.40625 -4.78125 C -1.40625 -5.195312 -1.265625 -5.535156 -0.984375 -5.796875 C -0.703125 -6.066406 -0.375 -6.203125 0 -6.203125 L 2.8125 -6.203125 L 2.8125 -24.34375 L 7.046875 -27.609375 L 7.890625 -27.609375 Z M 7.890625 -5.515625 "/></g></g></g><g fill="#f75000" fill-opacity="1"><g transform="translate(663.99381, 301.870548)"><g><path d="M 7.328125 -3.265625 L 3.09375 0 L 2.25 0 L 2.25 -24.34375 L 6.484375 -27.609375 L 7.328125 -27.609375 Z M 7.328125 -3.265625 "/></g></g></g><g fill="#f75000" fill-opacity="1"><g transform="translate(673.569567, 301.870548)"><g><path d="M 9.1875 -15.046875 C 10.082031 -15.046875 10.925781 -14.648438 11.71875 -13.859375 C 12.507812 -13.066406 13.109375 -11.890625 13.515625 -10.328125 C 13.929688 -8.773438 14.007812 -6.832031 13.75 -4.5 C 13.519531 -2.289062 12.953125 -0.296875 12.046875 1.484375 C 11.148438 3.273438 9.859375 4.675781 8.171875 5.6875 C 6.484375 6.707031 4.34375 7.195312 1.75 7.15625 C 0.882812 7.15625 -0.109375 7.066406 -1.234375 6.890625 C -2.359375 6.722656 -3.804688 6.4375 -5.578125 6.03125 L -5.640625 4.84375 C -2.515625 3.601562 0.425781 2.285156 3.1875 0.890625 C 5.945312 -0.492188 8.566406 -2.050781 11.046875 -3.78125 L 10.921875 -4.5 L 8.625 -4.5625 C 7.15625 -4.601562 6.082031 -4.894531 5.40625 -5.4375 C 4.726562 -5.976562 4.367188 -6.671875 4.328125 -7.515625 C 4.296875 -8.359375 4.445312 -9.253906 4.78125 -10.203125 C 5.457031 -12.035156 6.160156 -13.300781 6.890625 -14 C 7.628906 -14.695312 8.394531 -15.046875 9.1875 -15.046875 Z M 9.1875 -15.046875 "/></g></g></g><g fill="#f75000" fill-opacity="1"><g transform="translate(688.890788, 301.870548)"><g/></g></g><g fill="#f75000" fill-opacity="1"><g transform="translate(703.705881, 316.968953)"><g><path d="M 11.4375 2.421875 L 1.234375 5.75 L 1.125 5.6875 L 1.859375 3.9375 L 12.0625 0.5625 L 12.171875 0.625 Z M 11.4375 2.421875 "/></g></g></g><g fill="#f75000" fill-opacity="1"><g transform="translate(698.466499, 301.870548)"><g><path d="M 25.921875 -6.203125 L 29.515625 -6.203125 C 29.929688 -6.203125 30.269531 -6.066406 30.53125 -5.796875 C 30.789062 -5.535156 30.921875 -5.195312 30.921875 -4.78125 L 30.921875 -1.40625 C 30.921875 -1.03125 30.789062 -0.703125 30.53125 -0.421875 C 30.269531 -0.140625 29.929688 0 29.515625 0 L 25.96875 0 L 25.96875 1.078125 C 25.96875 1.265625 25.910156 1.503906 25.796875 1.796875 L 24.21875 6.359375 C 23.25 7.378906 21.972656 8.273438 20.390625 9.046875 C 18.816406 9.816406 17.128906 10.414062 15.328125 10.84375 C 13.523438 11.28125 11.796875 11.5 10.140625 11.5 C 6.984375 11.5 4.707031 10.71875 3.3125 9.15625 C 1.925781 7.59375 1.394531 5.488281 1.71875 2.84375 C 2.039062 0.195312 3.160156 -2.757812 5.078125 -6.03125 L 5.640625 -6.984375 L 7.4375 -6.484375 L 6.875 -5.296875 C 5.9375 -3.304688 5.484375 -1.515625 5.515625 0.078125 C 5.554688 1.679688 6.128906 2.953125 7.234375 3.890625 C 8.347656 4.828125 9.972656 5.296875 12.109375 5.296875 C 13.535156 5.296875 14.867188 5.109375 16.109375 4.734375 C 17.347656 4.359375 18.90625 3.703125 20.78125 2.765625 L 20.78125 -24.34375 L 25.015625 -27.609375 L 25.859375 -27.609375 L 25.859375 -25.96875 Z M 25.921875 -6.203125 "/></g></g></g><g fill="#f75000" fill-opacity="1"><g transform="translate(728.719693, 304.631072)"><g><path d="M 11.4375 2.421875 L 1.234375 5.75 L 1.125 5.6875 L 1.859375 3.9375 L 12.0625 0.5625 L 12.171875 0.625 Z M 11.4375 2.421875 "/></g></g></g><g fill="#f75000" fill-opacity="1"><g transform="translate(718.409943, 279.053926)"><g><path d="M 15.65625 -6.078125 L 18.8125 -2.921875 L 15.65625 0.28125 L 12.453125 -2.921875 Z M 15.65625 -6.078125 "/></g></g></g><g fill="#f75000" fill-opacity="1"><g transform="translate(727.987299, 301.870547)"><g><path d="M 11.5 -11.9375 C 11.6875 -10.0625 11.46875 -8.203125 10.84375 -6.359375 C 10.226562 -4.523438 9.164062 -3.003906 7.65625 -1.796875 C 6.15625 -0.597656 4.1875 0 1.75 0 L 0.0625 0 C -0.3125 0 -0.648438 -0.140625 -0.953125 -0.421875 C -1.253906 -0.703125 -1.40625 -1.03125 -1.40625 -1.40625 L -1.40625 -4.78125 C -1.40625 -5.195312 -1.265625 -5.535156 -0.984375 -5.796875 C -0.703125 -6.066406 -0.375 -6.203125 0 -6.203125 C 0.789062 -6.203125 1.972656 -6.238281 3.546875 -6.3125 C 5.128906 -6.382812 6.859375 -6.628906 8.734375 -7.046875 L 8.625 -8.0625 L 6.3125 -8.109375 C 4.84375 -8.148438 3.78125 -8.441406 3.125 -8.984375 C 2.46875 -9.523438 2.109375 -10.226562 2.046875 -11.09375 C 1.992188 -11.957031 2.140625 -12.84375 2.484375 -13.75 C 3.160156 -15.582031 3.863281 -16.847656 4.59375 -17.546875 C 5.320312 -18.242188 6.082031 -18.59375 6.875 -18.59375 C 7.769531 -18.59375 8.546875 -18.269531 9.203125 -17.625 C 9.867188 -16.988281 10.390625 -16.164062 10.765625 -15.15625 C 11.140625 -14.144531 11.382812 -13.070312 11.5 -11.9375 Z M 11.5 -11.9375 "/></g></g></g><g fill="#f75000" fill-opacity="1"><g transform="translate(741.167999, 301.870547)"><g><path d="M 7.328125 -3.265625 L 3.09375 0 L 2.25 0 L 2.25 -24.34375 L 6.484375 -27.609375 L 7.328125 -27.609375 Z M 7.328125 -3.265625 "/></g></g></g><g fill="#f75000" fill-opacity="1"><g transform="translate(750.743757, 301.870547)"><g><path d="M 12.28125 -6.203125 L 15.71875 -6.203125 C 16.132812 -6.203125 16.472656 -6.066406 16.734375 -5.796875 C 16.992188 -5.535156 17.125 -5.195312 17.125 -4.78125 L 17.125 -1.40625 C 17.125 -1.03125 16.992188 -0.703125 16.734375 -0.421875 C 16.472656 -0.140625 16.132812 0 15.71875 0 L 12.625 0 C 12.25 3.34375 11.304688 5.878906 9.796875 7.609375 C 8.296875 9.335938 5.859375 10.203125 2.484375 10.203125 C 1.203125 10.203125 -0.195312 10.097656 -1.71875 9.890625 C -3.238281 9.679688 -4.898438 9.40625 -6.703125 9.0625 L -6.765625 7.890625 C -3.492188 6.796875 -0.460938 5.675781 2.328125 4.53125 C 5.128906 3.382812 7.660156 2.117188 9.921875 0.734375 L 9.796875 0 L 7.5 0 C 6.03125 0 4.96875 -0.269531 4.3125 -0.8125 C 3.65625 -1.363281 3.296875 -2.066406 3.234375 -2.921875 C 3.179688 -3.785156 3.320312 -4.691406 3.65625 -5.640625 C 4.332031 -7.472656 5.046875 -8.738281 5.796875 -9.4375 C 6.546875 -10.132812 7.300781 -10.484375 8.0625 -10.484375 C 8.925781 -10.484375 9.738281 -10.125 10.5 -9.40625 C 11.269531 -8.695312 11.863281 -7.628906 12.28125 -6.203125 Z M 12.28125 -6.203125 "/></g></g></g><g fill="#f75000" fill-opacity="1"><g transform="translate(757.278865, 280.969393)"><g><path d="M 21.015625 -6.359375 L 24.171875 -3.21875 L 21.015625 0 L 18.203125 -2.8125 L 15.4375 0 L 12.171875 -3.21875 L 15.4375 -6.359375 L 18.203125 -3.609375 Z M 21.015625 -6.359375 "/></g></g></g><g fill="#f75000" fill-opacity="1"><g transform="translate(766.461856, 301.870547)"><g><path d="M 13.921875 -6.203125 L 15.5 -6.203125 C 15.90625 -6.203125 16.238281 -6.066406 16.5 -5.796875 C 16.769531 -5.535156 16.90625 -5.195312 16.90625 -4.78125 L 16.90625 -1.40625 C 16.90625 -1.03125 16.769531 -0.703125 16.5 -0.421875 C 16.238281 -0.140625 15.90625 0 15.5 0 L 14.03125 0 C 13.09375 0 12.003906 -0.101562 10.765625 -0.3125 C 9.523438 -0.519531 8.300781 -0.867188 7.09375 -1.359375 C 6.226562 -0.941406 5.269531 -0.609375 4.21875 -0.359375 C 3.164062 -0.117188 1.984375 0 0.671875 0 L 0 0 C -0.375 0 -0.703125 -0.140625 -0.984375 -0.421875 C -1.265625 -0.703125 -1.40625 -1.03125 -1.40625 -1.40625 L -1.40625 -4.78125 C -1.40625 -5.195312 -1.265625 -5.535156 -0.984375 -5.796875 C -0.703125 -6.066406 -0.375 -6.203125 0 -6.203125 L 0.390625 -6.203125 C 0.546875 -6.203125 0.769531 -6.207031 1.0625 -6.21875 C 1.363281 -6.238281 1.703125 -6.269531 2.078125 -6.3125 C 1.972656 -6.757812 1.921875 -7.226562 1.921875 -7.71875 C 1.921875 -8.8125 2.066406 -9.972656 2.359375 -11.203125 C 2.660156 -12.441406 3.117188 -13.613281 3.734375 -14.71875 C 4.359375 -15.832031 5.128906 -16.742188 6.046875 -17.453125 C 6.972656 -18.171875 8.035156 -18.53125 9.234375 -18.53125 C 10.328125 -18.53125 11.171875 -18.238281 11.765625 -17.65625 C 12.367188 -17.070312 12.789062 -16.328125 13.03125 -15.421875 C 13.28125 -14.523438 13.382812 -13.550781 13.34375 -12.5 C 13.3125 -11.445312 13.21875 -10.4375 13.0625 -9.46875 C 12.988281 -8.9375 12.867188 -8.398438 12.703125 -7.859375 C 12.535156 -7.316406 12.300781 -6.78125 12 -6.25 C 12.332031 -6.21875 12.660156 -6.203125 12.984375 -6.203125 C 13.304688 -6.203125 13.617188 -6.203125 13.921875 -6.203125 Z M 4.734375 -9.1875 C 5.628906 -8.539062 6.492188 -8.015625 7.328125 -7.609375 C 7.890625 -7.828125 8.421875 -8.085938 8.921875 -8.390625 C 9.429688 -8.691406 9.875 -9.03125 10.25 -9.40625 C 10.132812 -10.039062 9.859375 -10.6875 9.421875 -11.34375 C 8.992188 -12.007812 8.59375 -12.34375 8.21875 -12.34375 C 7.738281 -12.34375 7.1875 -12.085938 6.5625 -11.578125 C 5.945312 -11.066406 5.335938 -10.269531 4.734375 -9.1875 Z M 4.734375 -9.1875 "/></g></g></g><g fill="#f75000" fill-opacity="1"><g transform="translate(781.95465, 301.870547)"><g><path d="M 7.828125 -6.203125 L 10.640625 -6.203125 C 11.054688 -6.203125 11.394531 -6.066406 11.65625 -5.796875 C 11.925781 -5.535156 12.0625 -5.195312 12.0625 -4.78125 L 12.0625 -1.40625 C 12.0625 -1.03125 11.925781 -0.703125 11.65625 -0.421875 C 11.394531 -0.140625 11.054688 0 10.640625 0 L 5.296875 0 L 4.34375 -0.90625 C 3.96875 -0.632812 3.550781 -0.414062 3.09375 -0.25 C 2.644531 -0.0820312 2.066406 0 1.359375 0 L 0 0 C -0.375 0 -0.703125 -0.140625 -0.984375 -0.421875 C -1.265625 -0.703125 -1.40625 -1.03125 -1.40625 -1.40625 L -1.40625 -4.78125 C -1.40625 -5.195312 -1.265625 -5.535156 -0.984375 -5.796875 C -0.703125 -6.066406 -0.375 -6.203125 0 -6.203125 L 2.765625 -6.203125 L 2.765625 -24.34375 L 6.984375 -27.609375 L 7.828125 -27.609375 Z M 7.828125 -6.203125 "/></g></g></g><g fill="#f75000" fill-opacity="1"><g transform="translate(792.602381, 301.870547)"><g><path d="M 7.890625 -5.515625 L 4.953125 -1.1875 C 4.578125 -0.582031 4.171875 -0.234375 3.734375 -0.140625 C 3.304688 -0.046875 2.609375 0 1.640625 0 L 0 0 C -0.375 0 -0.703125 -0.140625 -0.984375 -0.421875 C -1.265625 -0.703125 -1.40625 -1.03125 -1.40625 -1.40625 L -1.40625 -4.78125 C -1.40625 -5.195312 -1.265625 -5.535156 -0.984375 -5.796875 C -0.703125 -6.066406 -0.375 -6.203125 0 -6.203125 L 2.8125 -6.203125 L 2.8125 -24.34375 L 7.046875 -27.609375 L 7.890625 -27.609375 Z M 7.890625 -5.515625 "/></g></g></g><g fill="#f75000" fill-opacity="1"><g transform="translate(802.741426, 301.870547)"><g/></g></g><g fill="#f75000" fill-opacity="1"><g transform="translate(812.317184, 301.870547)"><g><path d="M 25.921875 -6.203125 L 29.515625 -6.203125 C 29.929688 -6.203125 30.269531 -6.066406 30.53125 -5.796875 C 30.789062 -5.535156 30.921875 -5.195312 30.921875 -4.78125 L 30.921875 -1.40625 C 30.921875 -1.03125 30.789062 -0.703125 30.53125 -0.421875 C 30.269531 -0.140625 29.929688 0 29.515625 0 L 25.96875 0 L 25.96875 1.078125 C 25.96875 1.265625 25.910156 1.503906 25.796875 1.796875 L 24.21875 6.359375 C 23.25 7.378906 21.972656 8.273438 20.390625 9.046875 C 18.816406 9.816406 17.128906 10.414062 15.328125 10.84375 C 13.523438 11.28125 11.796875 11.5 10.140625 11.5 C 6.984375 11.5 4.707031 10.71875 3.3125 9.15625 C 1.925781 7.59375 1.394531 5.488281 1.71875 2.84375 C 2.039062 0.195312 3.160156 -2.757812 5.078125 -6.03125 L 5.640625 -6.984375 L 7.4375 -6.484375 L 6.875 -5.296875 C 5.9375 -3.304688 5.484375 -1.515625 5.515625 0.078125 C 5.554688 1.679688 6.128906 2.953125 7.234375 3.890625 C 8.347656 4.828125 9.972656 5.296875 12.109375 5.296875 C 13.535156 5.296875 14.867188 5.109375 16.109375 4.734375 C 17.347656 4.359375 18.90625 3.703125 20.78125 2.765625 L 20.78125 -24.34375 L 25.015625 -27.609375 L 25.859375 -27.609375 L 25.859375 -25.96875 Z M 25.921875 -6.203125 "/></g></g></g><g fill="#f75000" fill-opacity="1"><g transform="translate(842.175966, 274.941303)"><g><path d="M 1.640625 -3.828125 L 1.125 -4.671875 C 2.40625 -5.691406 3.429688 -6.546875 4.203125 -7.234375 C 4.972656 -7.929688 5.5625 -8.488281 5.96875 -8.90625 C 5.144531 -9.726562 4.703125 -10.644531 4.640625 -11.65625 C 4.585938 -12.675781 4.863281 -13.484375 5.46875 -14.078125 C 6.0625 -14.722656 6.722656 -15.035156 7.453125 -15.015625 C 8.191406 -14.992188 8.710938 -14.832031 9.015625 -14.53125 C 9.765625 -13.851562 10.070312 -13.023438 9.9375 -12.046875 C 9.8125 -11.078125 9.316406 -10.101562 8.453125 -9.125 C 8.898438 -8.519531 8.9375 -7.9375 8.5625 -7.375 L 8.0625 -6.640625 L 7.9375 -6.640625 C 7.832031 -6.796875 7.703125 -6.96875 7.546875 -7.15625 C 7.398438 -7.34375 7.234375 -7.53125 7.046875 -7.71875 C 6.585938 -7.269531 5.820312 -6.664062 4.75 -5.90625 C 3.6875 -5.15625 2.648438 -4.460938 1.640625 -3.828125 Z M 6.3125 -12.734375 C 6.050781 -12.316406 6.253906 -11.710938 6.921875 -10.921875 L 7.328125 -10.484375 C 7.628906 -10.859375 7.832031 -11.257812 7.9375 -11.6875 C 8.050781 -12.125 8.015625 -12.472656 7.828125 -12.734375 C 7.609375 -12.992188 7.335938 -13.101562 7.015625 -13.0625 C 6.691406 -13.03125 6.457031 -12.921875 6.3125 -12.734375 Z M 6.3125 -12.734375 "/></g></g></g><g fill="#f75000" fill-opacity="1"><g transform="translate(829.781759, 279.335616)"><g><path d="M 21.015625 -6.359375 L 24.171875 -3.21875 L 21.015625 0 L 18.203125 -2.8125 L 15.4375 0 L 12.171875 -3.21875 L 15.4375 -6.359375 L 18.203125 -3.609375 Z M 21.015625 -6.359375 "/></g></g></g><g fill="#f75000" fill-opacity="1"><g transform="translate(841.837939, 301.870548)"><g><path d="M 11.5 -11.9375 C 11.6875 -10.0625 11.46875 -8.203125 10.84375 -6.359375 C 10.226562 -4.523438 9.164062 -3.003906 7.65625 -1.796875 C 6.15625 -0.597656 4.1875 0 1.75 0 L 0.0625 0 C -0.3125 0 -0.648438 -0.140625 -0.953125 -0.421875 C -1.253906 -0.703125 -1.40625 -1.03125 -1.40625 -1.40625 L -1.40625 -4.78125 C -1.40625 -5.195312 -1.265625 -5.535156 -0.984375 -5.796875 C -0.703125 -6.066406 -0.375 -6.203125 0 -6.203125 C 0.789062 -6.203125 1.972656 -6.238281 3.546875 -6.3125 C 5.128906 -6.382812 6.859375 -6.628906 8.734375 -7.046875 L 8.625 -8.0625 L 6.3125 -8.109375 C 4.84375 -8.148438 3.78125 -8.441406 3.125 -8.984375 C 2.46875 -9.523438 2.109375 -10.226562 2.046875 -11.09375 C 1.992188 -11.957031 2.140625 -12.84375 2.484375 -13.75 C 3.160156 -15.582031 3.863281 -16.847656 4.59375 -17.546875 C 5.320312 -18.242188 6.082031 -18.59375 6.875 -18.59375 C 7.769531 -18.59375 8.546875 -18.269531 9.203125 -17.625 C 9.867188 -16.988281 10.390625 -16.164062 10.765625 -15.15625 C 11.140625 -14.144531 11.382812 -13.070312 11.5 -11.9375 Z M 11.5 -11.9375 "/></g></g></g><g fill="#f75000" fill-opacity="1"><g transform="translate(855.028003, 301.870549)"><g><path d="M 5.296875 6.8125 L 1.6875 4.171875 C 4.394531 0.078125 6.179688 -3.664062 7.046875 -7.0625 C 7.910156 -10.46875 7.890625 -13.832031 6.984375 -17.15625 C 6.085938 -20.476562 4.320312 -24.035156 1.6875 -27.828125 L 5.296875 -30.484375 C 8.453125 -26.722656 10.554688 -22.679688 11.609375 -18.359375 C 12.660156 -14.046875 12.664062 -9.71875 11.625 -5.375 C 10.59375 -1.039062 8.484375 3.019531 5.296875 6.8125 Z M 5.296875 6.8125 "/></g></g></g><g transform="matrix(1, 0, 0, 1, 379, 146)"><g clip-path="url(#be88f794ab)"><g fill="#cedcc1" fill-opacity="1"><g transform="translate(5.392051, 87.68276)"><g><path d="M 14.921875 -38.765625 C 14.921875 -40.335938 15.453125 -41.644531 16.515625 -42.6875 C 17.585938 -43.726562 18.832031 -44.25 20.25 -44.25 C 21.726562 -44.25 22.882812 -43.789062 23.71875 -42.875 C 24.5625 -41.957031 24.984375 -40.816406 24.984375 -39.453125 C 24.984375 -38.128906 24.488281 -36.921875 23.5 -35.828125 C 22.507812 -34.734375 21.175781 -34.1875 19.5 -34.1875 C 18.125 -34.1875 17.015625 -34.617188 16.171875 -35.484375 C 15.335938 -36.347656 14.921875 -37.441406 14.921875 -38.765625 Z M 26.28125 -38.765625 C 26.28125 -40.335938 26.8125 -41.644531 27.875 -42.6875 C 28.9375 -43.726562 30.179688 -44.25 31.609375 -44.25 C 33.078125 -44.25 34.226562 -43.789062 35.0625 -42.875 C 35.90625 -41.957031 36.328125 -40.816406 36.328125 -39.453125 C 36.328125 -38.128906 35.832031 -36.921875 34.84375 -35.828125 C 33.851562 -34.734375 32.519531 -34.1875 30.84375 -34.1875 C 29.46875 -34.1875 28.363281 -34.617188 27.53125 -35.484375 C 26.695312 -36.347656 26.28125 -37.441406 26.28125 -38.765625 Z M 7.15625 -19.34375 C 8.070312 -18.6875 8.328125 -17.796875 7.921875 -16.671875 C 7.054688 -14.234375 6.703125 -12.226562 6.859375 -10.65625 C 7.003906 -8.78125 7.835938 -7.320312 9.359375 -6.28125 C 10.890625 -5.238281 12.820312 -4.585938 15.15625 -4.328125 C 17.488281 -4.078125 19.945312 -4.15625 22.53125 -4.5625 C 25.125 -4.96875 27.601562 -5.664062 29.96875 -6.65625 C 32.332031 -7.65625 34.300781 -8.914062 35.875 -10.4375 C 37.445312 -11.957031 38.332031 -13.679688 38.53125 -15.609375 C 38.789062 -17.691406 38.242188 -19.175781 36.890625 -20.0625 C 35.546875 -20.957031 33.664062 -21.441406 31.25 -21.515625 C 28.84375 -21.585938 26.09375 -21.484375 23 -21.203125 C 19.90625 -20.929688 16.707031 -20.664062 13.40625 -20.40625 C 10.757812 -20.207031 8.863281 -20.5 7.71875 -21.28125 C 6.582031 -22.070312 6.191406 -23.941406 6.546875 -26.890625 C 6.753906 -28.304688 6.992188 -29.304688 7.265625 -29.890625 C 7.546875 -30.472656 7.6875 -30.765625 7.6875 -30.765625 C 7.6875 -30.765625 8.15625 -30.625 9.09375 -30.34375 C 10.039062 -30.0625 11.753906 -29.972656 14.234375 -30.078125 C 18.453125 -30.285156 22.273438 -30.515625 25.703125 -30.765625 C 29.128906 -31.015625 32.148438 -31.101562 34.765625 -31.03125 C 37.378906 -30.957031 39.535156 -30.539062 41.234375 -29.78125 C 42.941406 -29.019531 44.160156 -27.722656 44.890625 -25.890625 C 45.628906 -24.066406 45.820312 -21.503906 45.46875 -18.203125 C 45.113281 -14.597656 44.070312 -11.4375 42.34375 -8.71875 C 40.613281 -6 38.453125 -3.765625 35.859375 -2.015625 C 33.273438 -0.265625 30.472656 1.039062 27.453125 1.90625 C 24.429688 2.769531 21.421875 3.160156 18.421875 3.078125 C 15.429688 3.003906 12.691406 2.457031 10.203125 1.4375 C 7.710938 0.425781 5.707031 -1.039062 4.1875 -2.96875 C 2.457031 -5.300781 1.566406 -7.800781 1.515625 -10.46875 C 1.472656 -13.132812 2.082031 -15.863281 3.34375 -18.65625 C 3.65625 -19.363281 4.148438 -19.796875 4.828125 -19.953125 C 5.515625 -20.109375 6.164062 -19.984375 6.78125 -19.578125 Z M 7.15625 -19.34375 "/></g></g></g><g fill="#cedcc1" fill-opacity="1"><g transform="translate(51.009185, 87.68276)"><g><path d="M 42.71875 -18.203125 C 42.414062 -15.109375 41.460938 -12.390625 39.859375 -10.046875 C 38.265625 -7.710938 36.234375 -5.757812 33.765625 -4.1875 C 31.304688 -2.613281 28.601562 -1.378906 25.65625 -0.484375 C 22.71875 0.398438 19.75 0.976562 16.75 1.25 C 13.757812 1.53125 10.941406 1.519531 8.296875 1.21875 C 6.210938 0.96875 4.789062 0.15625 4.03125 -1.21875 C 3.269531 -2.59375 2.96875 -3.910156 3.125 -5.171875 C 3.269531 -6.648438 3.597656 -7.375 4.109375 -7.34375 C 4.617188 -7.320312 5.226562 -7.054688 5.9375 -6.546875 C 7.414062 -5.535156 9.347656 -4.863281 11.734375 -4.53125 C 14.117188 -4.195312 16.65625 -4.195312 19.34375 -4.53125 C 22.03125 -4.863281 24.578125 -5.507812 26.984375 -6.46875 C 29.398438 -7.4375 31.421875 -8.679688 33.046875 -10.203125 C 34.671875 -11.722656 35.585938 -13.523438 35.796875 -15.609375 C 36.046875 -17.691406 35.597656 -19.28125 34.453125 -20.375 C 33.316406 -21.46875 31.65625 -22.203125 29.46875 -22.578125 C 27.289062 -22.960938 24.738281 -23.128906 21.8125 -23.078125 C 18.894531 -23.023438 15.785156 -22.875 12.484375 -22.625 C 9.847656 -22.414062 7.957031 -22.703125 6.8125 -23.484375 C 5.675781 -24.273438 5.285156 -26.144531 5.640625 -29.09375 C 5.835938 -30.507812 6.078125 -31.507812 6.359375 -32.09375 C 6.640625 -32.675781 6.78125 -32.96875 6.78125 -32.96875 C 6.78125 -32.96875 7.25 -32.828125 8.1875 -32.546875 C 9.125 -32.273438 10.835938 -32.191406 13.328125 -32.296875 C 16.171875 -32.390625 18.566406 -32.445312 20.515625 -32.46875 C 22.472656 -32.5 24.175781 -32.488281 25.625 -32.4375 C 27.070312 -32.382812 28.457031 -32.285156 29.78125 -32.140625 C 34.144531 -31.679688 37.492188 -30.191406 39.828125 -27.671875 C 42.160156 -25.160156 43.125 -22.003906 42.71875 -18.203125 Z M 42.71875 -18.203125 "/></g></g></g><g fill="#cedcc1" fill-opacity="1"><g transform="translate(93.808565, 87.68276)"><g><path d="M -4.34375 -11.265625 C -4.238281 -11.984375 -3.984375 -12.492188 -3.578125 -12.796875 C -3.171875 -13.097656 -2.710938 -13.25 -2.203125 -13.25 C -2.410156 -12.4375 -2.320312 -11.519531 -1.9375 -10.5 C -1.5625 -9.488281 -0.914062 -8.628906 0 -7.921875 C 0.507812 -7.566406 1.09375 -7.257812 1.75 -7 C 2.40625 -6.75 3.140625 -6.625 3.953125 -6.625 C 5.328125 -6.625 6.507812 -7.179688 7.5 -8.296875 C 8.488281 -9.410156 9.160156 -11.085938 9.515625 -13.328125 L 12.640625 -30.84375 C 13.097656 -33.226562 13.222656 -34.914062 13.015625 -35.90625 C 12.816406 -36.894531 12.71875 -37.390625 12.71875 -37.390625 C 12.71875 -37.390625 13.019531 -37.503906 13.625 -37.734375 C 14.238281 -37.960938 15.253906 -38.078125 16.671875 -38.078125 C 19.617188 -38.078125 21.410156 -37.492188 22.046875 -36.328125 C 22.679688 -35.160156 22.769531 -33.226562 22.3125 -30.53125 L 19.953125 -16.75 C 19.703125 -15.226562 19.382812 -13.832031 19 -12.5625 C 18.625 -11.289062 18.304688 -10.273438 18.046875 -9.515625 C 16.984375 -6.523438 15.332031 -4.191406 13.09375 -2.515625 C 10.863281 -0.835938 8.453125 0 5.859375 0 C 3.984375 0 2.375 -0.390625 1.03125 -1.171875 C -0.3125 -1.960938 -1.414062 -2.953125 -2.28125 -4.140625 C -3.144531 -5.335938 -3.738281 -6.570312 -4.0625 -7.84375 C -4.394531 -9.113281 -4.488281 -10.253906 -4.34375 -11.265625 Z M -4.953125 10.046875 C -4.953125 8.472656 -4.414062 7.164062 -3.34375 6.125 C -2.28125 5.082031 -1.039062 4.5625 0.375 4.5625 C 1.851562 4.5625 3.007812 5.019531 3.84375 5.9375 C 4.6875 6.851562 5.109375 8 5.109375 9.375 C 5.109375 10.632812 4.609375 11.820312 3.609375 12.9375 C 2.617188 14.0625 1.289062 14.625 -0.375 14.625 C -1.75 14.625 -2.851562 14.191406 -3.6875 13.328125 C -4.53125 12.460938 -4.953125 11.367188 -4.953125 10.046875 Z M 6.390625 10.046875 C 6.390625 8.472656 6.921875 7.164062 7.984375 6.125 C 9.054688 5.082031 10.304688 4.5625 11.734375 4.5625 C 13.203125 4.5625 14.351562 5.019531 15.1875 5.9375 C 16.03125 6.851562 16.453125 8 16.453125 9.375 C 16.453125 10.6875 15.957031 11.890625 14.96875 12.984375 C 13.976562 14.078125 12.644531 14.625 10.96875 14.625 C 9.59375 14.625 8.484375 14.191406 7.640625 13.328125 C 6.804688 12.460938 6.390625 11.367188 6.390625 10.046875 Z M 6.390625 10.046875 "/></g></g></g><g fill="#cedcc1" fill-opacity="1"><g transform="translate(115.208255, 87.68276)"><g><path d="M -4.34375 -11.265625 C -4.238281 -11.984375 -3.984375 -12.492188 -3.578125 -12.796875 C -3.171875 -13.097656 -2.710938 -13.25 -2.203125 -13.25 C -2.410156 -12.4375 -2.320312 -11.519531 -1.9375 -10.5 C -1.5625 -9.488281 -0.914062 -8.628906 0 -7.921875 C 1.0625 -7.109375 2.414062 -6.382812 4.0625 -5.75 C 5.71875 -5.113281 7.585938 -4.59375 9.671875 -4.1875 C 9.867188 -4.945312 10.097656 -5.988281 10.359375 -7.3125 L 13.9375 -30.84375 C 14.289062 -33.226562 14.390625 -34.914062 14.234375 -35.90625 C 14.085938 -36.894531 14.015625 -37.390625 14.015625 -37.390625 C 14.015625 -37.390625 14.316406 -37.503906 14.921875 -37.734375 C 15.535156 -37.960938 16.550781 -38.078125 17.96875 -38.078125 C 20.613281 -38.078125 22.289062 -37.609375 23 -36.671875 C 23.707031 -35.734375 23.960938 -34.222656 23.765625 -32.140625 L 23.609375 -30.53125 C 26.503906 -32.664062 29.488281 -34.210938 32.5625 -35.171875 C 35.632812 -36.140625 38.578125 -36.535156 41.390625 -36.359375 C 44.210938 -36.179688 46.710938 -35.457031 48.890625 -34.1875 C 51.078125 -32.925781 52.738281 -31.125 53.875 -28.78125 C 55.019531 -26.445312 55.46875 -23.601562 55.21875 -20.25 C 54.957031 -16.90625 53.960938 -13.960938 52.234375 -11.421875 C 50.515625 -8.878906 48.269531 -6.71875 45.5 -4.9375 C 42.738281 -3.164062 39.628906 -1.722656 36.171875 -0.609375 C 32.722656 0.503906 29.117188 1.289062 25.359375 1.75 C 21.597656 2.207031 17.890625 2.382812 14.234375 2.28125 C 11.492188 2.175781 8.878906 1.796875 6.390625 1.140625 C 3.910156 0.484375 1.703125 -0.554688 -0.234375 -1.984375 C -1.804688 -3.203125 -2.929688 -4.710938 -3.609375 -6.515625 C -4.296875 -8.316406 -4.539062 -9.898438 -4.34375 -11.265625 Z M 18.96875 -3.5 C 20.632812 -3.550781 22.359375 -3.691406 24.140625 -3.921875 C 25.921875 -4.148438 27.722656 -4.519531 29.546875 -5.03125 C 32.953125 -5.9375 35.859375 -7.34375 38.265625 -9.25 C 40.679688 -11.15625 42.5 -13.285156 43.71875 -15.640625 C 44.9375 -18.003906 45.441406 -20.367188 45.234375 -22.734375 C 45.035156 -25.097656 43.96875 -27.191406 42.03125 -29.015625 C 40.8125 -30.179688 39.378906 -30.90625 37.734375 -31.1875 C 36.085938 -31.46875 34.363281 -31.390625 32.5625 -30.953125 C 30.757812 -30.523438 29.03125 -29.851562 27.375 -28.9375 C 25.726562 -28.019531 24.296875 -26.929688 23.078125 -25.671875 L 19.953125 -6.703125 C 19.703125 -5.328125 19.375 -4.257812 18.96875 -3.5 Z M 18.96875 -3.5 "/></g></g></g><g fill="#cedcc1" fill-opacity="1"><g transform="translate(169.735587, 87.68276)"><g><path d="M 21.328125 -44.171875 C 19.953125 -44.171875 18.84375 -44.601562 18 -45.46875 C 17.164062 -46.332031 16.75 -47.421875 16.75 -48.734375 C 16.75 -50.304688 17.28125 -51.613281 18.34375 -52.65625 C 19.414062 -53.695312 20.660156 -54.21875 22.078125 -54.21875 C 23.554688 -54.21875 24.710938 -53.757812 25.546875 -52.84375 C 26.390625 -51.9375 26.8125 -50.796875 26.8125 -49.421875 C 26.8125 -48.097656 26.316406 -46.890625 25.328125 -45.796875 C 24.335938 -44.710938 23.003906 -44.171875 21.328125 -44.171875 Z M 32.671875 -44.171875 C 31.296875 -44.171875 30.191406 -44.601562 29.359375 -45.46875 C 28.523438 -46.332031 28.109375 -47.421875 28.109375 -48.734375 C 28.109375 -50.304688 28.640625 -51.613281 29.703125 -52.65625 C 30.765625 -53.695312 32.007812 -54.21875 33.4375 -54.21875 C 34.90625 -54.21875 36.054688 -53.757812 36.890625 -52.84375 C 37.734375 -51.9375 38.15625 -50.796875 38.15625 -49.421875 C 38.15625 -48.097656 37.660156 -46.890625 36.671875 -45.796875 C 35.679688 -44.710938 34.347656 -44.171875 32.671875 -44.171875 Z M 26.734375 -40.671875 C 29.878906 -40.671875 32.453125 -39.859375 34.453125 -38.234375 C 36.460938 -36.609375 37.46875 -34.578125 37.46875 -32.140625 C 37.519531 -31.628906 37.503906 -31.039062 37.421875 -30.375 C 37.347656 -29.71875 37.265625 -29.007812 37.171875 -28.25 L 33.96875 -11.421875 C 33.457031 -8.878906 32.335938 -6.707031 30.609375 -4.90625 C 28.890625 -3.101562 26.796875 -1.671875 24.328125 -0.609375 C 21.867188 0.453125 19.253906 1.160156 16.484375 1.515625 C 13.722656 1.878906 11.035156 1.878906 8.421875 1.515625 C 5.804688 1.160156 3.46875 0.441406 1.40625 -0.640625 C -0.644531 -1.734375 -2.203125 -3.164062 -3.265625 -4.9375 C -4.335938 -6.71875 -4.671875 -8.828125 -4.265625 -11.265625 C -4.160156 -11.984375 -3.90625 -12.492188 -3.5 -12.796875 C -3.09375 -13.097656 -2.632812 -13.25 -2.125 -13.25 C -2.582031 -11.519531 -2.328125 -9.992188 -1.359375 -8.671875 C -0.398438 -7.359375 1.015625 -6.332031 2.890625 -5.59375 C 4.773438 -4.863281 6.859375 -4.472656 9.140625 -4.421875 C 11.421875 -4.367188 13.675781 -4.707031 15.90625 -5.4375 C 18.144531 -6.175781 20.078125 -7.359375 21.703125 -8.984375 C 17.898438 -9.242188 14.816406 -10.195312 12.453125 -11.84375 C 10.085938 -13.488281 8.4375 -15.503906 7.5 -17.890625 C 6.5625 -20.273438 6.28125 -22.785156 6.65625 -25.421875 C 7.039062 -28.066406 8.054688 -30.546875 9.703125 -32.859375 C 11.359375 -35.171875 13.617188 -37.050781 16.484375 -38.5 C 19.359375 -39.945312 22.773438 -40.671875 26.734375 -40.671875 Z M 26.578125 -36.859375 C 23.890625 -36.859375 21.71875 -36.195312 20.0625 -34.875 C 18.414062 -33.5625 17.273438 -31.898438 16.640625 -29.890625 C 16.003906 -27.890625 15.890625 -25.832031 16.296875 -23.71875 C 16.703125 -21.613281 17.640625 -19.773438 19.109375 -18.203125 C 20.585938 -16.628906 22.59375 -15.613281 25.125 -15.15625 C 25.175781 -15.257812 25.203125 -15.375 25.203125 -15.5 C 25.203125 -15.625 25.226562 -15.738281 25.28125 -15.84375 L 27.5 -28.5625 C 27.90625 -30.945312 28.015625 -32.632812 27.828125 -33.625 C 27.648438 -34.613281 27.5625 -35.109375 27.5625 -35.109375 C 27.5625 -35.109375 27.703125 -35.171875 27.984375 -35.296875 C 28.265625 -35.421875 28.707031 -35.535156 29.3125 -35.640625 C 28.65625 -36.453125 27.742188 -36.859375 26.578125 -36.859375 Z M 26.578125 -36.859375 "/></g></g></g><g fill="#15789a" fill-opacity="1"><g transform="translate(0.467664, 80.904911)"><g><path d="M 14.921875 -38.765625 C 14.921875 -40.335938 15.453125 -41.644531 16.515625 -42.6875 C 17.585938 -43.726562 18.832031 -44.25 20.25 -44.25 C 21.726562 -44.25 22.882812 -43.789062 23.71875 -42.875 C 24.5625 -41.957031 24.984375 -40.816406 24.984375 -39.453125 C 24.984375 -38.128906 24.488281 -36.921875 23.5 -35.828125 C 22.507812 -34.734375 21.175781 -34.1875 19.5 -34.1875 C 18.125 -34.1875 17.015625 -34.617188 16.171875 -35.484375 C 15.335938 -36.347656 14.921875 -37.441406 14.921875 -38.765625 Z M 26.28125 -38.765625 C 26.28125 -40.335938 26.8125 -41.644531 27.875 -42.6875 C 28.9375 -43.726562 30.179688 -44.25 31.609375 -44.25 C 33.078125 -44.25 34.226562 -43.789062 35.0625 -42.875 C 35.90625 -41.957031 36.328125 -40.816406 36.328125 -39.453125 C 36.328125 -38.128906 35.832031 -36.921875 34.84375 -35.828125 C 33.851562 -34.734375 32.519531 -34.1875 30.84375 -34.1875 C 29.46875 -34.1875 28.363281 -34.617188 27.53125 -35.484375 C 26.695312 -36.347656 26.28125 -37.441406 26.28125 -38.765625 Z M 7.15625 -19.34375 C 8.070312 -18.6875 8.328125 -17.796875 7.921875 -16.671875 C 7.054688 -14.234375 6.703125 -12.226562 6.859375 -10.65625 C 7.003906 -8.78125 7.835938 -7.320312 9.359375 -6.28125 C 10.890625 -5.238281 12.820312 -4.585938 15.15625 -4.328125 C 17.488281 -4.078125 19.945312 -4.15625 22.53125 -4.5625 C 25.125 -4.96875 27.601562 -5.664062 29.96875 -6.65625 C 32.332031 -7.65625 34.300781 -8.914062 35.875 -10.4375 C 37.445312 -11.957031 38.332031 -13.679688 38.53125 -15.609375 C 38.789062 -17.691406 38.242188 -19.175781 36.890625 -20.0625 C 35.546875 -20.957031 33.664062 -21.441406 31.25 -21.515625 C 28.84375 -21.585938 26.09375 -21.484375 23 -21.203125 C 19.90625 -20.929688 16.707031 -20.664062 13.40625 -20.40625 C 10.757812 -20.207031 8.863281 -20.5 7.71875 -21.28125 C 6.582031 -22.070312 6.191406 -23.941406 6.546875 -26.890625 C 6.753906 -28.304688 6.992188 -29.304688 7.265625 -29.890625 C 7.546875 -30.472656 7.6875 -30.765625 7.6875 -30.765625 C 7.6875 -30.765625 8.15625 -30.625 9.09375 -30.34375 C 10.039062 -30.0625 11.753906 -29.972656 14.234375 -30.078125 C 18.453125 -30.285156 22.273438 -30.515625 25.703125 -30.765625 C 29.128906 -31.015625 32.148438 -31.101562 34.765625 -31.03125 C 37.378906 -30.957031 39.535156 -30.539062 41.234375 -29.78125 C 42.941406 -29.019531 44.160156 -27.722656 44.890625 -25.890625 C 45.628906 -24.066406 45.820312 -21.503906 45.46875 -18.203125 C 45.113281 -14.597656 44.070312 -11.4375 42.34375 -8.71875 C 40.613281 -6 38.453125 -3.765625 35.859375 -2.015625 C 33.273438 -0.265625 30.472656 1.039062 27.453125 1.90625 C 24.429688 2.769531 21.421875 3.160156 18.421875 3.078125 C 15.429688 3.003906 12.691406 2.457031 10.203125 1.4375 C 7.710938 0.425781 5.707031 -1.039062 4.1875 -2.96875 C 2.457031 -5.300781 1.566406 -7.800781 1.515625 -10.46875 C 1.472656 -13.132812 2.082031 -15.863281 3.34375 -18.65625 C 3.65625 -19.363281 4.148438 -19.796875 4.828125 -19.953125 C 5.515625 -20.109375 6.164062 -19.984375 6.78125 -19.578125 Z M 7.15625 -19.34375 "/></g></g></g><g fill="#15789a" fill-opacity="1"><g transform="translate(46.084799, 80.904911)"><g><path d="M 42.71875 -18.203125 C 42.414062 -15.109375 41.460938 -12.390625 39.859375 -10.046875 C 38.265625 -7.710938 36.234375 -5.757812 33.765625 -4.1875 C 31.304688 -2.613281 28.601562 -1.378906 25.65625 -0.484375 C 22.71875 0.398438 19.75 0.976562 16.75 1.25 C 13.757812 1.53125 10.941406 1.519531 8.296875 1.21875 C 6.210938 0.96875 4.789062 0.15625 4.03125 -1.21875 C 3.269531 -2.59375 2.96875 -3.910156 3.125 -5.171875 C 3.269531 -6.648438 3.597656 -7.375 4.109375 -7.34375 C 4.617188 -7.320312 5.226562 -7.054688 5.9375 -6.546875 C 7.414062 -5.535156 9.347656 -4.863281 11.734375 -4.53125 C 14.117188 -4.195312 16.65625 -4.195312 19.34375 -4.53125 C 22.03125 -4.863281 24.578125 -5.507812 26.984375 -6.46875 C 29.398438 -7.4375 31.421875 -8.679688 33.046875 -10.203125 C 34.671875 -11.722656 35.585938 -13.523438 35.796875 -15.609375 C 36.046875 -17.691406 35.597656 -19.28125 34.453125 -20.375 C 33.316406 -21.46875 31.65625 -22.203125 29.46875 -22.578125 C 27.289062 -22.960938 24.738281 -23.128906 21.8125 -23.078125 C 18.894531 -23.023438 15.785156 -22.875 12.484375 -22.625 C 9.847656 -22.414062 7.957031 -22.703125 6.8125 -23.484375 C 5.675781 -24.273438 5.285156 -26.144531 5.640625 -29.09375 C 5.835938 -30.507812 6.078125 -31.507812 6.359375 -32.09375 C 6.640625 -32.675781 6.78125 -32.96875 6.78125 -32.96875 C 6.78125 -32.96875 7.25 -32.828125 8.1875 -32.546875 C 9.125 -32.273438 10.835938 -32.191406 13.328125 -32.296875 C 16.171875 -32.390625 18.566406 -32.445312 20.515625 -32.46875 C 22.472656 -32.5 24.175781 -32.488281 25.625 -32.4375 C 27.070312 -32.382812 28.457031 -32.285156 29.78125 -32.140625 C 34.144531 -31.679688 37.492188 -30.191406 39.828125 -27.671875 C 42.160156 -25.160156 43.125 -22.003906 42.71875 -18.203125 Z M 42.71875 -18.203125 "/></g></g></g><g fill="#15789a" fill-opacity="1"><g transform="translate(88.884179, 80.904911)"><g><path d="M -4.34375 -11.265625 C -4.238281 -11.984375 -3.984375 -12.492188 -3.578125 -12.796875 C -3.171875 -13.097656 -2.710938 -13.25 -2.203125 -13.25 C -2.410156 -12.4375 -2.320312 -11.519531 -1.9375 -10.5 C -1.5625 -9.488281 -0.914062 -8.628906 0 -7.921875 C 0.507812 -7.566406 1.09375 -7.257812 1.75 -7 C 2.40625 -6.75 3.140625 -6.625 3.953125 -6.625 C 5.328125 -6.625 6.507812 -7.179688 7.5 -8.296875 C 8.488281 -9.410156 9.160156 -11.085938 9.515625 -13.328125 L 12.640625 -30.84375 C 13.097656 -33.226562 13.222656 -34.914062 13.015625 -35.90625 C 12.816406 -36.894531 12.71875 -37.390625 12.71875 -37.390625 C 12.71875 -37.390625 13.019531 -37.503906 13.625 -37.734375 C 14.238281 -37.960938 15.253906 -38.078125 16.671875 -38.078125 C 19.617188 -38.078125 21.410156 -37.492188 22.046875 -36.328125 C 22.679688 -35.160156 22.769531 -33.226562 22.3125 -30.53125 L 19.953125 -16.75 C 19.703125 -15.226562 19.382812 -13.832031 19 -12.5625 C 18.625 -11.289062 18.304688 -10.273438 18.046875 -9.515625 C 16.984375 -6.523438 15.332031 -4.191406 13.09375 -2.515625 C 10.863281 -0.835938 8.453125 0 5.859375 0 C 3.984375 0 2.375 -0.390625 1.03125 -1.171875 C -0.3125 -1.960938 -1.414062 -2.953125 -2.28125 -4.140625 C -3.144531 -5.335938 -3.738281 -6.570312 -4.0625 -7.84375 C -4.394531 -9.113281 -4.488281 -10.253906 -4.34375 -11.265625 Z M -4.953125 10.046875 C -4.953125 8.472656 -4.414062 7.164062 -3.34375 6.125 C -2.28125 5.082031 -1.039062 4.5625 0.375 4.5625 C 1.851562 4.5625 3.007812 5.019531 3.84375 5.9375 C 4.6875 6.851562 5.109375 8 5.109375 9.375 C 5.109375 10.632812 4.609375 11.820312 3.609375 12.9375 C 2.617188 14.0625 1.289062 14.625 -0.375 14.625 C -1.75 14.625 -2.851562 14.191406 -3.6875 13.328125 C -4.53125 12.460938 -4.953125 11.367188 -4.953125 10.046875 Z M 6.390625 10.046875 C 6.390625 8.472656 6.921875 7.164062 7.984375 6.125 C 9.054688 5.082031 10.304688 4.5625 11.734375 4.5625 C 13.203125 4.5625 14.351562 5.019531 15.1875 5.9375 C 16.03125 6.851562 16.453125 8 16.453125 9.375 C 16.453125 10.6875 15.957031 11.890625 14.96875 12.984375 C 13.976562 14.078125 12.644531 14.625 10.96875 14.625 C 9.59375 14.625 8.484375 14.191406 7.640625 13.328125 C 6.804688 12.460938 6.390625 11.367188 6.390625 10.046875 Z M 6.390625 10.046875 "/></g></g></g><g fill="#15789a" fill-opacity="1"><g transform="translate(110.283868, 80.904911)"><g><path d="M -4.34375 -11.265625 C -4.238281 -11.984375 -3.984375 -12.492188 -3.578125 -12.796875 C -3.171875 -13.097656 -2.710938 -13.25 -2.203125 -13.25 C -2.410156 -12.4375 -2.320312 -11.519531 -1.9375 -10.5 C -1.5625 -9.488281 -0.914062 -8.628906 0 -7.921875 C 1.0625 -7.109375 2.414062 -6.382812 4.0625 -5.75 C 5.71875 -5.113281 7.585938 -4.59375 9.671875 -4.1875 C 9.867188 -4.945312 10.097656 -5.988281 10.359375 -7.3125 L 13.9375 -30.84375 C 14.289062 -33.226562 14.390625 -34.914062 14.234375 -35.90625 C 14.085938 -36.894531 14.015625 -37.390625 14.015625 -37.390625 C 14.015625 -37.390625 14.316406 -37.503906 14.921875 -37.734375 C 15.535156 -37.960938 16.550781 -38.078125 17.96875 -38.078125 C 20.613281 -38.078125 22.289062 -37.609375 23 -36.671875 C 23.707031 -35.734375 23.960938 -34.222656 23.765625 -32.140625 L 23.609375 -30.53125 C 26.503906 -32.664062 29.488281 -34.210938 32.5625 -35.171875 C 35.632812 -36.140625 38.578125 -36.535156 41.390625 -36.359375 C 44.210938 -36.179688 46.710938 -35.457031 48.890625 -34.1875 C 51.078125 -32.925781 52.738281 -31.125 53.875 -28.78125 C 55.019531 -26.445312 55.46875 -23.601562 55.21875 -20.25 C 54.957031 -16.90625 53.960938 -13.960938 52.234375 -11.421875 C 50.515625 -8.878906 48.269531 -6.71875 45.5 -4.9375 C 42.738281 -3.164062 39.628906 -1.722656 36.171875 -0.609375 C 32.722656 0.503906 29.117188 1.289062 25.359375 1.75 C 21.597656 2.207031 17.890625 2.382812 14.234375 2.28125 C 11.492188 2.175781 8.878906 1.796875 6.390625 1.140625 C 3.910156 0.484375 1.703125 -0.554688 -0.234375 -1.984375 C -1.804688 -3.203125 -2.929688 -4.710938 -3.609375 -6.515625 C -4.296875 -8.316406 -4.539062 -9.898438 -4.34375 -11.265625 Z M 18.96875 -3.5 C 20.632812 -3.550781 22.359375 -3.691406 24.140625 -3.921875 C 25.921875 -4.148438 27.722656 -4.519531 29.546875 -5.03125 C 32.953125 -5.9375 35.859375 -7.34375 38.265625 -9.25 C 40.679688 -11.15625 42.5 -13.285156 43.71875 -15.640625 C 44.9375 -18.003906 45.441406 -20.367188 45.234375 -22.734375 C 45.035156 -25.097656 43.96875 -27.191406 42.03125 -29.015625 C 40.8125 -30.179688 39.378906 -30.90625 37.734375 -31.1875 C 36.085938 -31.46875 34.363281 -31.390625 32.5625 -30.953125 C 30.757812 -30.523438 29.03125 -29.851562 27.375 -28.9375 C 25.726562 -28.019531 24.296875 -26.929688 23.078125 -25.671875 L 19.953125 -6.703125 C 19.703125 -5.328125 19.375 -4.257812 18.96875 -3.5 Z M 18.96875 -3.5 "/></g></g></g><g fill="#15789a" fill-opacity="1"><g transform="translate(164.8112, 80.904911)"><g><path d="M 21.328125 -44.171875 C 19.953125 -44.171875 18.84375 -44.601562 18 -45.46875 C 17.164062 -46.332031 16.75 -47.421875 16.75 -48.734375 C 16.75 -50.304688 17.28125 -51.613281 18.34375 -52.65625 C 19.414062 -53.695312 20.660156 -54.21875 22.078125 -54.21875 C 23.554688 -54.21875 24.710938 -53.757812 25.546875 -52.84375 C 26.390625 -51.9375 26.8125 -50.796875 26.8125 -49.421875 C 26.8125 -48.097656 26.316406 -46.890625 25.328125 -45.796875 C 24.335938 -44.710938 23.003906 -44.171875 21.328125 -44.171875 Z M 32.671875 -44.171875 C 31.296875 -44.171875 30.191406 -44.601562 29.359375 -45.46875 C 28.523438 -46.332031 28.109375 -47.421875 28.109375 -48.734375 C 28.109375 -50.304688 28.640625 -51.613281 29.703125 -52.65625 C 30.765625 -53.695312 32.007812 -54.21875 33.4375 -54.21875 C 34.90625 -54.21875 36.054688 -53.757812 36.890625 -52.84375 C 37.734375 -51.9375 38.15625 -50.796875 38.15625 -49.421875 C 38.15625 -48.097656 37.660156 -46.890625 36.671875 -45.796875 C 35.679688 -44.710938 34.347656 -44.171875 32.671875 -44.171875 Z M 26.734375 -40.671875 C 29.878906 -40.671875 32.453125 -39.859375 34.453125 -38.234375 C 36.460938 -36.609375 37.46875 -34.578125 37.46875 -32.140625 C 37.519531 -31.628906 37.503906 -31.039062 37.421875 -30.375 C 37.347656 -29.71875 37.265625 -29.007812 37.171875 -28.25 L 33.96875 -11.421875 C 33.457031 -8.878906 32.335938 -6.707031 30.609375 -4.90625 C 28.890625 -3.101562 26.796875 -1.671875 24.328125 -0.609375 C 21.867188 0.453125 19.253906 1.160156 16.484375 1.515625 C 13.722656 1.878906 11.035156 1.878906 8.421875 1.515625 C 5.804688 1.160156 3.46875 0.441406 1.40625 -0.640625 C -0.644531 -1.734375 -2.203125 -3.164062 -3.265625 -4.9375 C -4.335938 -6.71875 -4.671875 -8.828125 -4.265625 -11.265625 C -4.160156 -11.984375 -3.90625 -12.492188 -3.5 -12.796875 C -3.09375 -13.097656 -2.632812 -13.25 -2.125 -13.25 C -2.582031 -11.519531 -2.328125 -9.992188 -1.359375 -8.671875 C -0.398438 -7.359375 1.015625 -6.332031 2.890625 -5.59375 C 4.773438 -4.863281 6.859375 -4.472656 9.140625 -4.421875 C 11.421875 -4.367188 13.675781 -4.707031 15.90625 -5.4375 C 18.144531 -6.175781 20.078125 -7.359375 21.703125 -8.984375 C 17.898438 -9.242188 14.816406 -10.195312 12.453125 -11.84375 C 10.085938 -13.488281 8.4375 -15.503906 7.5 -17.890625 C 6.5625 -20.273438 6.28125 -22.785156 6.65625 -25.421875 C 7.039062 -28.066406 8.054688 -30.546875 9.703125 -32.859375 C 11.359375 -35.171875 13.617188 -37.050781 16.484375 -38.5 C 19.359375 -39.945312 22.773438 -40.671875 26.734375 -40.671875 Z M 26.578125 -36.859375 C 23.890625 -36.859375 21.71875 -36.195312 20.0625 -34.875 C 18.414062 -33.5625 17.273438 -31.898438 16.640625 -29.890625 C 16.003906 -27.890625 15.890625 -25.832031 16.296875 -23.71875 C 16.703125 -21.613281 17.640625 -19.773438 19.109375 -18.203125 C 20.585938 -16.628906 22.59375 -15.613281 25.125 -15.15625 C 25.175781 -15.257812 25.203125 -15.375 25.203125 -15.5 C 25.203125 -15.625 25.226562 -15.738281 25.28125 -15.84375 L 27.5 -28.5625 C 27.90625 -30.945312 28.015625 -32.632812 27.828125 -33.625 C 27.648438 -34.613281 27.5625 -35.109375 27.5625 -35.109375 C 27.5625 -35.109375 27.703125 -35.171875 27.984375 -35.296875 C 28.265625 -35.421875 28.707031 -35.535156 29.3125 -35.640625 C 28.65625 -36.453125 27.742188 -36.859375 26.578125 -36.859375 Z M 26.578125 -36.859375 "/></g></g></g></g></g></svg>