<?xml version="1.0" encoding="UTF-8" standalone="no"?>
<svg
   width="346"
   height="91"
   xml:space="preserve"
   overflow="hidden"
   version="1.1"
   id="svg5"
   sodipodi:docname="صورة1.svg"
   inkscape:version="1.4.3 (0d15f75, 2025-12-25)"
   xmlns:inkscape="http://www.inkscape.org/namespaces/inkscape"
   xmlns:sodipodi="http://sodipodi.sourceforge.net/DTD/sodipodi-0.dtd"
   xmlns="http://www.w3.org/2000/svg"
   xmlns:svg="http://www.w3.org/2000/svg"><sodipodi:namedview
     id="namedview5"
     pagecolor="#ffffff"
     bordercolor="#000000"
     borderopacity="0.25"
     inkscape:showpageshadow="2"
     inkscape:pageopacity="0.0"
     inkscape:pagecheckerboard="0"
     inkscape:deskcolor="#d1d1d1"
     inkscape:zoom="3.6234113"
     inkscape:cx="185.04661"
     inkscape:cy="35.463818"
     inkscape:window-width="1920"
     inkscape:window-height="991"
     inkscape:window-x="-9"
     inkscape:window-y="-9"
     inkscape:window-maximized="1"
     inkscape:current-layer="g5" /><defs
     id="defs1"><clipPath
       id="clip0"><rect
         x="0"
         y="0"
         width="346"
         height="91"
         id="rect1" /></clipPath></defs><g
     clip-path="url(#clip0)"
     id="g5"><path
       d="M270.976 82.5543C269.385 81.6269 268.475 80.8939 268.475 80.5393 268.475 79.7922 271.288 75.6303 271.79 75.6349 272.008 75.6374 273.204 76.2874 274.446 77.0803 277.011 78.7169 276.818 78.7758 278.559 75.8232 279.046 74.9974 279.653 74.2416 279.909 74.1437 280.459 73.9326 285.582 77.1352 285.582 77.6903 285.582 77.9008 284.964 79.0126 284.208 80.1608 282.572 82.6464 282.169 82.7142 279.307 80.9857 278.252 80.3487 277.306 79.8275 277.204 79.8275 277.101 79.8275 276.523 80.6627 275.917 81.6835 274.807 83.556 274.391 84.0145 273.801 84.0129 273.623 84.0124 272.352 83.3561 270.976 82.5543ZM205.371 70.0183C196.722 68.5873 191.642 65.699 189.541 61.0182 187.673 56.856 188.181 52.6227 191.177 47.3879 193.114 44.004 194.036 42.8848 194.683 43.1331 195.11 43.297 194.934 43.8345 193.606 46.4182 191.683 50.1611 191.339 52.1149 192.125 54.8199 193.469 59.443 199.422 62.6358 208.756 63.7389 212.601 64.1934 221.462 63.9079 225.383 63.2032 231.099 62.176 239.424 59.7434 239.424 59.1007 239.424 58.9434 239.191 58.3646 238.907 57.8147 238.533 57.091 238.422 56.1782 238.507 54.5097 238.68 51.0688 240.072 48.4627 243.602 44.967 246.748 41.8511 249.435 40.1182 251.477 39.8881 252.699 39.7504 253.021 39.8575 254.018 40.7324 254.645 41.2835 255.504 42.4981 255.926 43.4314 256.572 44.8607 256.692 45.6375 256.684 48.3562 256.673 52.2272 256.106 54.1404 254.091 57.0826L252.694 59.1239 255.662 59.8287C261.28 61.1629 266.43 60.592 270.168 58.2208 272.153 56.9609 274.292 54.979 275.416 53.3576 276.466 51.8424 277.313 51.7144 277.964 52.9726 279.627 56.1885 285.295 59.0924 292.199 60.2653L295.911 67.2675C285.453 66.4341 280.077 64.4598 276.839 60.2632 276.101 59.3065 275.32 58.5238 275.103 58.5238 274.886 58.5238 274.023 59.3782 273.186 60.4225 269.332 65.2274 265.823 66.943 259.849 66.943 255.932 66.943 252.145 66.137 248.297 64.4846L245.693 63.3659 241.51 64.8454C236.007 66.7914 230.265 68.3585 224.899 69.379 219.545 70.3973 209.624 70.7221 205.371 70.0183ZM249.903 55.61C251.329 54.895 252.82 54.0396 253.215 53.709 253.913 53.1242 253.92 53.059 253.459 51.2871 252.472 47.4974 250.955 45.6483 249.191 46.084 247.723 46.4466 245.454 48.0729 243.33 50.2847 241.164 52.5404 241.13 52.7567 242.713 54.2361 243.384 54.8641 246.758 56.8884 247.159 56.9041 247.241 56.9077 248.476 56.325 249.903 55.61ZM243.863 33.6222C242.487 32.897 241.361 32.1183 241.361 31.8917 241.361 31.2984 244.25 26.2456 244.589 26.2456 245.253 26.2456 250.076 29.3266 250.076 29.7509 250.076 30.5672 247.351 34.9531 246.848 34.9468 246.582 34.9432 245.238 34.3473 243.863 33.6222ZM272.861 35.6153C272.861 36.2762 273.656 34.4003 277.795 32.1775 279.888 31.0537 281.486 30.0258 281.346 29.8933 280.844 29.4174 277.556 28.6256 276.111 28.6326 274.354 28.6412 272.2 29.5519 271.081 30.759 270.636 31.239 270.188 31.5472 270.084 31.4439 269.732 31.0919 270.75 28.8905 271.87 27.5827 274.097 24.9808 277.407 24.4099 281.898 25.8534 283.23 26.2816 284.725 26.7217 285.221 26.8314 285.717 26.9411 286.2 27.2338 286.296 27.4818 286.548 28.1386 285.259 30.8561 284.578 31.1046 284.259 31.2212 283.521 31.727 282.939 32.2286 281.442 33.5183 279.696 34.3465 276.55 35.2581 273.419 36.1654 272.861 35.0111 272.861 35.6153Z"
       id="path1" /><path
       d="M291.899 60.2187C297.761 61.1601 304.647 61.0015 310.877 58.1464 313.907 56.758 316.255 54.2578 317.776 50.8022 318.095 50.0754 318.476 49.4808 318.621 49.4808 319.905 49.4808 318.312 55.3701 316.157 58.5916 315.552 59.4951 315.552 59.4956 316.126 59.4956 317.709 59.4956 323.162 58.549 325.032 57.9497 329.13 56.6357 330.848 54.9986 333.693 49.6969 334.537 48.1245 335.349 46.838 335.498 46.838 336.027 46.838 335.951 47.87 335.239 50.3497 334.843 51.7321 334.599 52.9931 334.697 53.1518 335.236 54.0241 342.175 56.4477 342.882 56.0107 343.239 55.7899 343.221 50.8128 342.855 48.8372 342.606 47.4878 342.653 46.8891 343.18 44.742 343.876 41.9021 344.351 41.0149 344.812 41.6914 345.592 42.8349 345.929 44.9775 345.926 48.7662 345.918 54.5482 344.692 59.7698 342.882 61.7078 342.183 62.4559 341.908 62.5558 340.547 62.5558 337.86 62.5558 334.925 61.4253 331.518 59.0784 331.238 58.8859 331.077 58.9018 330.993 59.13 330.927 59.3114 330.504 59.969 330.053 60.5915 327.599 63.9785 320.848 65.715 313.701 64.7977L311.016 64.453 307.678 65.4252C302.362 66.9731 299.933 67.4168 295.885 67.265ZM308.323 26.2467C308.159 26.0827 308.905 23.4501 309.281 22.8663 309.543 22.4584 311.631 21.6608 324.183 17.1742 329.743 15.1871 335.219 13.2039 336.353 12.7672 337.487 12.3305 338.476 12.0717 338.551 12.1922 338.753 12.5194 337.915 15.1495 337.498 15.4955 337.086 15.8371 332.85 17.4057 321.448 21.4392 314.851 23.773 312.121 24.8153 308.776 26.2788 308.615 26.3493 308.411 26.3348 308.323 26.2463Z"
       id="path2" /><path
       d="m 89.726897,87.311197 c 0.09052,-0.222652 0.317406,-0.931297 0.504584,-1.574717 0.301081,-1.036241 0.50997,-1.240644 1.825676,-1.788395 2.788539,-1.161005 22.803443,-8.304638 22.922013,-8.181266 0.2744,0.28569 -0.57568,2.503191 -1.14541,2.988804 -0.34082,0.290606 -3.45104,1.533157 -6.91095,2.761279 -3.45969,1.228026 -8.697523,3.126971 -11.63964,4.21972 -2.942118,1.09275 -5.43298,1.985197 -5.53516,1.983172 -0.10198,-0.002 -0.111542,-0.185845 -0.02212,-0.408618 z m -38.10045,-3.030822 c -1.167756,-0.710666 -2.26786,-1.473701 -2.444603,-1.695444 -0.254138,-0.318797 -0.01272,-0.882825 1.152089,-2.694614 0.918671,-1.428587 1.654991,-2.285773 1.955466,-2.276521 0.265085,0.0084 1.427444,0.658298 2.583098,1.444638 l 2.100997,1.429788 1.463555,-2.215151 c 0.804884,-1.218299 1.548748,-2.213963 1.653039,-2.212497 0.379268,0.0054 5.280835,3.327732 5.275916,3.576083 -0.0071,0.35753 -0.511971,1.240705 -1.688113,2.953048 -1.241747,1.807964 -1.609697,1.832083 -4.161111,0.272449 -1.056125,-0.645442 -2.024414,-1.175721 -2.151688,-1.178242 -0.127375,-0.0025 -0.635058,0.658152 -1.128298,1.468243 -1.241214,2.038519 -1.273882,2.07698 -1.916008,2.2588 -0.382319,0.108249 -1.273091,-0.265565 -2.694339,-1.13058 z M 24.206076,78.180155 C 18.079679,77.371972 9.5439569,74.083589 9.5744664,72.543291 c 0.00974,-0.492204 1.1039616,-0.373911 5.0369176,0.544856 4.584344,1.070796 11.4792,1.333192 14.515363,0.552165 5.616311,-1.44466 10.099173,-4.660414 13.667948,-9.804647 1.465522,-2.112492 3.405151,-5.861716 4.309513,-8.33019 l 0.557126,-1.520765 -1.327695,0.0017 c -1.835996,0.0018 -2.533532,-0.296131 -3.023803,-1.292136 -0.533734,-1.084182 -0.726827,-3.272935 -0.385775,-4.372997 l 0.262417,-0.846569 2.821752,-0.100939 c 3.591449,-0.128501 5.685455,-1.006905 7.305724,-3.064622 1.255933,-1.59504 1.598775,-2.568342 2.0736,-5.887489 0.40621,-2.839413 0.562027,-3.328522 1.056929,-3.318719 0.627878,0.01244 1.718817,3.157057 2.941286,8.47781 1.45773,6.345113 2.337722,9.378935 3.422987,11.800101 2.265163,5.05365 7.397661,7.518276 15.243232,7.319707 8.310292,-0.210167 14.287962,-3.123658 17.180903,-8.373897 0.596037,-1.081609 1.202036,-1.964281 1.346607,-1.961417 0.496003,0.0098 0.604749,1.493168 0.226111,3.086983 -0.439102,1.848967 -1.477235,4.142958 -2.703542,5.974232 -0.473493,0.706962 -0.861973,1.343393 -0.863375,1.414179 -0.0071,0.35563 5.439246,-0.306944 7.285788,-0.886489 4.16449,-1.306784 6.83563,-3.236464 9.29724,-6.716798 0.68637,-0.971397 1.39815,-1.710347 1.57983,-1.642236 0.7059,0.264632 0.21688,2.735331 -0.98923,5.001091 l -1.17179,2.199926 1.16617,0.456984 c 2.83457,1.110152 5.30741,1.445489 6.43099,0.872028 0.6709,-0.341681 2.00688,-2.801806 3.41106,-6.281181 1.08333,-2.682472 1.72514,-3.827486 2.14006,-3.819268 0.53589,0.01061 0.51678,0.924616 -0.0667,3.1687 -0.58466,2.249462 -0.58887,2.361101 -0.10822,2.737193 3.02763,2.371623 8.51311,3.05799 13.39343,1.676167 2.12132,-0.600608 4.005,-1.525285 4.0128,-1.969518 0.008,-0.398222 -2.39706,-2.091581 -3.59654,-2.533421 -0.564,-0.20751 -1.61456,-0.290831 -2.60941,-0.206717 -0.91571,0.07738 -1.71727,0.0465 -1.78199,-0.069 -0.24732,-0.440784 0.78761,-3.355661 1.64514,-4.636229 1.81292,-2.704928 3.98145,-3.820703 7.70499,-3.963291 4.96074,-0.189897 9.58938,1.843666 10.43429,4.583336 0.22173,0.722333 0.20264,1.332574 -0.0793,2.435907 -0.46513,1.819847 -0.67523,2.226765 -2.09066,4.052193 -0.62097,0.800759 -1.13033,1.520414 -1.13189,1.599098 -0.008,0.424618 3.37382,1.15364 6.21968,1.340634 3.68492,0.242124 5.19627,-0.01299 6.54917,-1.105819 1.67922,-1.357211 1.82259,-1.929984 1.39208,-5.544319 -1.20063,-10.079554 -5.40237,-34.523657 -6.24831,-36.352668 -1.06271,-2.297897 -0.99719,-2.777793 0.73296,-5.343732 0.85734,-1.270671 1.69105,-2.3082648 1.85403,-2.3056367 0.16198,0.00246 0.62696,0.7653667 1.03163,1.6951627 0.40467,0.929697 1.29541,2.466138 1.97878,3.414156 0.68335,0.94812 1.24057,1.851831 1.23746,2.008401 -0.003,0.156471 -0.61241,1.075482 -1.3537,2.042192 l -1.34908,1.757728 1.5714,8.428073 c 2.62922,14.103234 3.35189,19.530309 3.26413,24.516449 -0.0675,3.7651 -0.40051,5.323912 -1.67874,7.847694 -1.74559,3.445906 -5.02357,5.38207 -9.0041,5.318829 -3.38959,-0.05394 -6.68023,-1.367361 -10.20334,-4.072662 l -1.77634,-1.364246 -1.50728,0.958439 c -4.24731,2.700617 -7.95504,3.861719 -12.01385,3.76222 -3.29405,-0.08065 -4.801,-0.552786 -7.30712,-2.288657 -0.90771,-0.629199 -1.67334,-1.109855 -1.70018,-1.068078 -0.0268,0.04187 -0.67701,1.054599 -1.44385,2.250547 -2.84331,4.431161 -4.902,4.798964 -10.77915,1.925511 l -2.45738,-1.2015 -1.94178,0.969435 c -2.92469,1.460267 -5.114787,1.912785 -8.914935,1.842214 -2.315903,-0.04297 -3.796641,-0.222331 -5.098372,-0.617488 -2.292961,-0.696245 -2.237258,-0.695843 -4.87171,-0.03759 -7.977646,1.993605 -15.634327,1.533084 -19.355642,-1.16414 C 61.4622,63.989954 60.192215,61.325581 58.108741,52.179026 57.48247,49.429485 56.825837,46.793764 56.64975,46.321785 l -0.320169,-0.85811 -0.370419,1.128386 c -0.879311,2.678212 -2.198342,4.418932 -4.54221,5.994824 -1.550142,1.042105 -1.723432,1.257016 -1.741295,2.15884 -0.06041,3.049801 -2.279299,9.930108 -4.301591,13.338328 -2.148219,3.620467 -5.461814,7.01101 -8.257746,8.449324 -3.013696,1.550421 -8.416602,2.239559 -12.910244,1.646752 z M 180.81066,64.325678 c -0.44039,-7.407774 -2.04826,-17.832359 -5.68889,-36.873591 -0.9816,-5.129946 -1.77374,-9.826854 -1.76164,-10.437534 0.0268,-1.354934 0.86363,-5.577791 1.29569,-6.536223 0.44046,-0.9779686 0.69483,-0.388116 1.04613,2.427893 0.15623,1.25234 1.65388,9.969909 3.32901,19.372426 3.54096,19.881824 3.84331,21.987624 3.76573,26.257825 -0.0672,3.798014 -0.94343,8.294143 -1.61031,8.280934 -0.12496,-0.0025 -0.2948,-1.123759 -0.37572,-2.49173 z M 100.8973,41.687464 c -1.080873,-0.627929 -2.200562,-1.412157 -2.488168,-1.742917 -0.515267,-0.59252 -0.508436,-0.624291 0.469396,-2.17153 0.545611,-0.863664 1.318822,-1.937462 1.718092,-2.386344 l 0.72601,-0.815982 2.17724,1.463505 c 1.19749,0.804972 2.28782,1.465695 2.42289,1.46837 0.13488,0.0026 0.79053,-0.872316 1.4565,-1.944438 0.66606,-1.07212 1.34008,-2.025559 1.49695,-2.118571 0.31271,-0.184543 2.54028,1.071218 4.42349,2.493191 l 1.18748,0.896492 -0.56589,1.0491 c -0.95625,1.770809 -2.34633,3.427305 -2.86719,3.414789 -0.27192,-0.0066 -1.45567,-0.586044 -2.62901,-1.287718 l -2.13396,-1.27561 -0.96298,1.539931 c -0.98075,1.568386 -1.8699,2.581477 -2.25278,2.567191 -0.11714,-0.0043 -1.09719,-0.521631 -2.17807,-1.149459 z m 1.35159,-10.877967 c -1.49222,-0.836716 -2.268505,-1.446109 -2.312209,-1.814946 -0.08391,-0.707201 2.559839,-5.187924 3.055139,-5.178113 0.65888,0.01308 5.1575,2.949716 5.14935,3.361436 -0.0144,0.724957 -2.75837,4.919739 -3.20878,4.905316 -0.24029,-0.0076 -1.44797,-0.580789 -2.6835,-1.273693 z m 20.39848,-7.492105 c 0.27814,-0.812851 0.77528,-1.622565 1.13582,-1.848569 0.55501,-0.348078 21.89026,-8.228707 23.37054,-8.632472 0.48069,-0.131006 0.51991,-0.04042 0.34074,0.7741 -0.48894,2.214151 -0.56803,2.268096 -6.38168,4.363976 -2.9859,1.076679 -8.34498,3.047336 -11.90805,4.379135 -3.56207,1.33192 -6.60721,2.419028 -6.76417,2.415919 -0.16997,-0.0034 -0.0862,-0.594424 0.2068,-1.452089 z"
       id="path3" /><path
       d="M218.113 21.9703C218.174 21.7879 219.284 20.9171 220.579 20.0352 223.808 17.8369 227.794 14.4556 229.208 12.7146L230.383 11.2681 228.319 10.5395C225.326 9.48318 224.852 9.05849 224.862 7.4426 224.877 4.9874 227.104 1.52241 229.37 0.425507 230.447-0.0961609 230.625-0.112274 231.46 0.236328 232.118 0.51133 232.533 0.960396 232.951 1.84954 233.634 3.30322 234.131 6.43186 233.904 7.85215 233.746 8.83938 233.762 8.86155 234.839 9.18446 235.848 9.48658 235.921 9.57052 235.76 10.2355 235.299 12.1425 235.211 12.232 233.975 12.0466L232.829 11.8747 231.788 13.3859C229.987 16.0005 225.559 19.3162 220.967 21.4886 219.171 22.338 217.921 22.5492 218.113 21.9703ZM231.426 4.56518C230.693 2.90653 229.816 2.69678 228.589 3.88616 227.716 4.73232 226.919 6.1729 227.18 6.43368 227.251 6.50483 228.318 6.95693 229.552 7.43829L231.794 8.31344 231.874 7.03642C231.927 6.19421 231.775 5.35276 231.426 4.56518Z"
       id="path4" /><path
       d="M 13.701981,61.993962 C 9.9335637,60.565854 9.3560994,55.869797 12.061897,48.655667 c 0.462372,-1.232685 0.98938,-2.520601 1.171106,-2.86197 0.232514,-0.43668 0.256454,-0.740967 0.08092,-1.026298 -0.177021,-0.287562 -0.08132,-1.258858 0.329417,-3.341432 0.318419,-1.614711 0.633838,-2.988534 0.700856,-3.052919 0.261409,-0.251373 3.775194,1.075373 6.138577,2.31762 5.699489,2.995859 8.063552,7.237507 7.057028,12.662138 -0.376353,2.028845 -1.689791,4.547628 -3.021026,5.79351 -2.693244,2.520557 -7.996082,3.916615 -10.816735,2.847647 z m 6.128993,-6.671032 c 1.951045,-0.462653 4.629991,-1.650333 4.82955,-2.141177 0.225524,-0.554442 -1.436861,-2.712687 -3.069383,-3.985067 -1.396122,-1.088262 -5.432953,-3.259131 -6.348066,-3.413984 -1.201501,-0.203234 -2.61613,6.695104 -1.679246,8.18875 0.932475,1.486458 3.428166,2.024688 6.267145,1.351478 z M 11.124782,27.717102 c -1.3418759,-0.811833 -2.5366717,-1.65746 -2.6550752,-1.879249 -0.1572547,-0.294471 0.1717596,-0.995694 1.220264,-2.600745 1.9462242,-2.979341 1.9185822,-2.956784 2.9428102,-2.407293 0.460704,0.247272 1.593205,0.957239 2.516638,1.577748 0.923441,0.62061 1.76019,1.125879 1.859419,1.122843 0.0992,-0.0013 0.85784,-1.060519 1.685759,-2.349976 0.827901,-1.289558 1.612507,-2.342526 1.743681,-2.339928 0.45781,0.009 5.677492,3.677157 5.671383,3.985595 -0.0092,0.46461 -2.654758,4.394989 -3.158138,4.691979 -0.461683,0.27231 -1.630477,-0.249539 -4.338596,-1.936701 l -1.279641,-0.797397 -1.334882,2.114279 c -0.734204,1.162888 -1.431003,2.112375 -1.548351,2.110051 -0.117436,-0.0023 -0.364659,0.03828 -0.549478,0.09044 -0.184779,0.05216 -1.433909,-0.569708 -2.775795,-1.381541 z"
       id="path5" /></g></svg>
