<svg xmlns="http://www.w3.org/2000/svg" xmlns:xlink="http://www.w3.org/1999/xlink" width="1280" zoomAndPan="magnify" viewBox="0 0 960 540.000001" height="720" preserveAspectRatio="xMidYMid meet" version="1.0"><defs><g/></defs><g fill="#000000" fill-opacity="1"><g transform="translate(432.913169, 203.106111)"><g><path d="M 10.484375 -29.328125 L 8.46875 -26.125 L 5.328125 -28.015625 C 5.035156 -27.597656 4.710938 -27.140625 4.359375 -26.640625 C 4.015625 -26.140625 3.691406 -25.679688 3.390625 -25.265625 L 0.296875 -27.46875 L 2.25 -30.734375 L 5.375 -28.671875 C 5.707031 -29.128906 6.046875 -29.585938 6.390625 -30.046875 C 6.742188 -30.503906 7.085938 -30.960938 7.421875 -31.421875 Z M 9.375 -8.578125 C 9.375 -8.816406 9.257812 -9.101562 9.03125 -9.4375 C 8.8125 -9.769531 8.472656 -10.117188 8.015625 -10.484375 C 7.285156 -11.078125 6.582031 -11.523438 5.90625 -11.828125 C 5.226562 -12.128906 4.609375 -12.28125 4.046875 -12.28125 C 3.703125 -12.28125 3.382812 -12.175781 3.09375 -11.96875 C 2.8125 -11.769531 2.5625 -11.492188 2.34375 -11.140625 C 2.132812 -10.796875 1.972656 -10.390625 1.859375 -9.921875 C 1.742188 -9.453125 1.6875 -8.957031 1.6875 -8.4375 C 1.6875 -7.132812 2.742188 -6.484375 4.859375 -6.484375 C 5.453125 -6.484375 6.019531 -6.535156 6.5625 -6.640625 C 7.113281 -6.753906 7.59375 -6.90625 8 -7.09375 C 8.414062 -7.28125 8.75 -7.5 9 -7.75 C 9.25 -8.007812 9.375 -8.285156 9.375 -8.578125 Z M 11.328125 -9.328125 C 11.328125 -8.273438 11.15625 -7.285156 10.8125 -6.359375 C 10.476562 -5.441406 10.015625 -4.644531 9.421875 -3.96875 C 8.828125 -3.289062 8.125 -2.753906 7.3125 -2.359375 C 6.507812 -1.972656 5.625 -1.78125 4.65625 -1.78125 C 3.9375 -1.78125 3.285156 -1.910156 2.703125 -2.171875 C 2.128906 -2.441406 1.644531 -2.804688 1.25 -3.265625 C 0.851562 -3.722656 0.546875 -4.265625 0.328125 -4.890625 C 0.109375 -5.515625 0 -6.191406 0 -6.921875 C 0 -7.710938 0.140625 -8.609375 0.421875 -9.609375 C 0.703125 -10.609375 1.109375 -11.660156 1.640625 -12.765625 C 2.179688 -13.890625 2.632812 -14.800781 3 -15.5 C 3.375 -16.207031 3.691406 -16.753906 3.953125 -17.140625 C 4.210938 -17.535156 4.453125 -17.796875 4.671875 -17.921875 C 4.890625 -18.054688 5.125 -18.125 5.375 -18.125 C 6.59375 -18.125 7.832031 -17.316406 9.09375 -15.703125 C 10.582031 -13.765625 11.328125 -11.640625 11.328125 -9.328125 Z M 11.328125 -9.328125 "/></g></g><g transform="translate(447.745077, 203.106111)"><g><path d="M 11.515625 -21.984375 L 9.1875 -18.96875 L 6.359375 -21.5625 L 8.609375 -24.46875 Z M 13.328125 -4.609375 C 13.328125 -2.703125 13.023438 -0.878906 12.421875 0.859375 C 11.828125 2.609375 10.976562 4.234375 9.875 5.734375 C 8.726562 7.203125 7.492188 8.320312 6.171875 9.09375 C 4.859375 9.863281 3.472656 10.25 2.015625 10.25 C 0.328125 10.25 -1.898438 9.625 -4.671875 8.375 L -4.09375 7.84375 C -2.800781 8.144531 -1.75 8.296875 -0.9375 8.296875 C 0.851562 8.296875 2.515625 7.800781 4.046875 6.8125 C 5.140625 6.101562 6.140625 5.359375 7.046875 4.578125 C 7.960938 3.804688 8.796875 2.972656 9.546875 2.078125 C 11.023438 0.316406 11.765625 -1.160156 11.765625 -2.359375 C 11.765625 -3.171875 11.335938 -4.40625 10.484375 -6.0625 C 9.640625 -7.726562 9.21875 -8.816406 9.21875 -9.328125 C 9.21875 -9.503906 9.257812 -9.71875 9.34375 -9.96875 C 9.425781 -10.226562 9.546875 -10.523438 9.703125 -10.859375 L 10.90625 -13.125 C 12.519531 -10.84375 13.328125 -8.003906 13.328125 -4.609375 Z M 13.328125 -4.609375 "/></g></g><g transform="translate(464.588884, 203.106111)"><g><path d="M 10.625 -6.671875 C 11.382812 -6.234375 12.425781 -6.015625 13.75 -6.015625 C 13.125 -8.210938 12.148438 -9.3125 10.828125 -9.3125 C 10.722656 -9.3125 10.59375 -9.269531 10.4375 -9.1875 C 10.28125 -9.113281 10.128906 -9.015625 9.984375 -8.890625 C 9.847656 -8.765625 9.726562 -8.613281 9.625 -8.4375 C 9.519531 -8.269531 9.46875 -8.101562 9.46875 -7.9375 C 9.46875 -7.40625 9.851562 -6.984375 10.625 -6.671875 Z M 18.484375 -2.34375 L 15.296875 -2.34375 C 14.816406 -0.46875 14.28125 1.226562 13.6875 2.75 C 13.101562 4.269531 12.507812 5.519531 11.90625 6.5 C 10.738281 8.257812 9.453125 9.625 8.046875 10.59375 C 6.640625 11.5625 5.148438 12.046875 3.578125 12.046875 C 1.847656 12.046875 -0.515625 11.1875 -3.515625 9.46875 L -2.921875 8.9375 C -1.566406 9.46875 -0.382812 9.734375 0.625 9.734375 C 3.632812 9.734375 6.457031 8.539062 9.09375 6.15625 C 10.394531 4.976562 11.453125 3.664062 12.265625 2.21875 C 13.085938 0.78125 13.660156 -0.738281 13.984375 -2.34375 L 13.078125 -2.34375 C 12.222656 -2.34375 11.429688 -2.414062 10.703125 -2.5625 C 9.972656 -2.707031 9.34375 -2.910156 8.8125 -3.171875 C 8.28125 -3.441406 7.867188 -3.773438 7.578125 -4.171875 C 7.296875 -4.566406 7.15625 -5.007812 7.15625 -5.5 C 7.15625 -6.601562 7.910156 -8.453125 9.421875 -11.046875 C 10.285156 -12.410156 11.109375 -13.09375 11.890625 -13.09375 C 12.316406 -13.09375 12.738281 -12.898438 13.15625 -12.515625 C 13.570312 -12.140625 13.941406 -11.625 14.265625 -10.96875 C 14.597656 -10.3125 14.867188 -9.554688 15.078125 -8.703125 C 15.285156 -7.847656 15.40625 -6.953125 15.4375 -6.015625 L 18.484375 -6.015625 Z M 18.484375 -2.34375 "/></g></g></g><g fill="#000000" fill-opacity="1"><g transform="translate(482.368458, 203.106111)"><g><path d="M 5.703125 -35.90625 C 5.703125 -36.132812 5.660156 -36.359375 5.578125 -36.578125 C 5.492188 -36.796875 5.375 -36.988281 5.21875 -37.15625 C 5.070312 -37.332031 4.90625 -37.472656 4.71875 -37.578125 C 4.53125 -37.679688 4.335938 -37.734375 4.140625 -37.734375 C 3.816406 -37.734375 3.65625 -37.53125 3.65625 -37.125 C 3.65625 -36.84375 3.820312 -36.507812 4.15625 -36.125 C 4.5 -35.75 4.976562 -35.347656 5.59375 -34.921875 C 5.632812 -35.109375 5.660156 -35.28125 5.671875 -35.4375 C 5.691406 -35.59375 5.703125 -35.75 5.703125 -35.90625 Z M 7.65625 -30.21875 L 5.21875 -31.796875 C 4.050781 -30.390625 2.957031 -29.3125 1.9375 -28.5625 C 0.925781 -27.8125 0.046875 -27.4375 -0.703125 -27.4375 C -1.109375 -27.4375 -1.738281 -27.578125 -2.59375 -27.859375 C -1.582031 -28.398438 -0.523438 -29.066406 0.578125 -29.859375 C 1.691406 -30.660156 2.796875 -31.550781 3.890625 -32.53125 C 3.296875 -32.988281 2.84375 -33.445312 2.53125 -33.90625 C 2.21875 -34.363281 2.0625 -34.820312 2.0625 -35.28125 C 2.0625 -35.695312 2.140625 -36.195312 2.296875 -36.78125 C 2.453125 -37.363281 2.679688 -37.921875 2.984375 -38.453125 C 3.285156 -38.984375 3.65625 -39.429688 4.09375 -39.796875 C 4.53125 -40.160156 5.03125 -40.34375 5.59375 -40.34375 C 6.96875 -40.34375 7.65625 -39.457031 7.65625 -37.6875 C 7.65625 -37.21875 7.578125 -36.691406 7.421875 -36.109375 C 7.265625 -35.523438 7.035156 -34.878906 6.734375 -34.171875 C 7.046875 -33.941406 7.421875 -33.628906 7.859375 -33.234375 Z M 7.65625 -30.21875 "/></g></g></g><g fill="#000000" fill-opacity="1"><g transform="translate(482.368458, 203.106111)"><g><path d="M 28.0625 -11.5625 L 27.046875 -8.28125 L 25.734375 -8.28125 C 25.367188 -8.28125 24.898438 -8.296875 24.328125 -8.328125 C 23.765625 -8.359375 23.1875 -8.390625 22.59375 -8.421875 C 22 -8.453125 21.441406 -8.484375 20.921875 -8.515625 C 20.398438 -8.546875 20 -8.5625 19.71875 -8.5625 C 18.582031 -8.5625 17.410156 -8.425781 16.203125 -8.15625 C 14.992188 -7.882812 13.800781 -7.484375 12.625 -6.953125 C 12.46875 -6.867188 12.125 -6.675781 11.59375 -6.375 C 11.070312 -6.082031 10.5 -5.769531 9.875 -5.4375 C 9.257812 -5.113281 8.6875 -4.800781 8.15625 -4.5 C 7.632812 -4.207031 7.296875 -4.023438 7.140625 -3.953125 C 6.671875 -3.703125 6.203125 -3.472656 5.734375 -3.265625 C 5.265625 -3.066406 4.785156 -2.894531 4.296875 -2.75 C 3.804688 -2.613281 3.28125 -2.507812 2.71875 -2.4375 C 2.164062 -2.375 1.570312 -2.34375 0.9375 -2.34375 L -0.703125 -2.34375 L -0.703125 -6.015625 L 0 -6.015625 C 0.9375 -6.015625 1.796875 -6.046875 2.578125 -6.109375 C 3.367188 -6.179688 4.109375 -6.285156 4.796875 -6.421875 C 5.492188 -6.554688 6.160156 -6.71875 6.796875 -6.90625 C 7.429688 -7.101562 8.066406 -7.320312 8.703125 -7.5625 C 10.203125 -8.113281 11.429688 -8.566406 12.390625 -8.921875 C 13.359375 -9.273438 14.03125 -9.5 14.40625 -9.59375 C 14.09375 -9.664062 13.601562 -9.835938 12.9375 -10.109375 C 12.28125 -10.390625 11.484375 -10.738281 10.546875 -11.15625 C 9.660156 -11.5625 8.835938 -11.867188 8.078125 -12.078125 C 7.328125 -12.285156 6.65625 -12.390625 6.0625 -12.390625 C 5.09375 -12.390625 3.882812 -12.128906 2.4375 -11.609375 L 2.203125 -11.5625 C 3.210938 -14.832031 5.050781 -16.46875 7.71875 -16.46875 C 8.9375 -16.46875 11.164062 -15.640625 14.40625 -13.984375 C 17.601562 -12.367188 21.320312 -11.5625 25.5625 -11.5625 Z M 14.875 1.5 L 12.984375 4.703125 L 9.734375 2.6875 L 11.75 -0.5625 Z M 14.875 1.5 "/></g></g></g><g fill="#000000" fill-opacity="1"><g transform="translate(512.780888, 203.106111)"><g><path d="M 5.703125 -33.140625 C 5.703125 -33.378906 5.578125 -33.644531 5.328125 -33.9375 C 5.078125 -34.238281 4.773438 -34.523438 4.421875 -34.796875 C 4.078125 -35.066406 3.707031 -35.289062 3.3125 -35.46875 C 2.925781 -35.65625 2.59375 -35.75 2.3125 -35.75 C 1.15625 -35.75 0.578125 -35.078125 0.578125 -33.734375 C 0.578125 -32.535156 1.5 -31.9375 3.34375 -31.9375 C 4.914062 -31.9375 5.703125 -32.335938 5.703125 -33.140625 Z M 7.4375 -33.890625 C 7.4375 -33.234375 7.304688 -32.601562 7.046875 -32 C 6.796875 -31.40625 6.453125 -30.878906 6.015625 -30.421875 C 5.585938 -29.960938 5.097656 -29.59375 4.546875 -29.3125 C 3.992188 -29.03125 3.421875 -28.890625 2.828125 -28.890625 C 0.648438 -28.890625 -0.4375 -30.117188 -0.4375 -32.578125 C -0.4375 -33.441406 -0.335938 -34.226562 -0.140625 -34.9375 C 0.046875 -35.644531 0.320312 -36.253906 0.6875 -36.765625 C 1.050781 -37.285156 1.488281 -37.6875 2 -37.96875 C 2.507812 -38.25 3.066406 -38.390625 3.671875 -38.390625 C 4.148438 -38.390625 4.613281 -38.257812 5.0625 -38 C 5.519531 -37.738281 5.925781 -37.394531 6.28125 -36.96875 C 6.632812 -36.550781 6.914062 -36.070312 7.125 -35.53125 C 7.332031 -35 7.4375 -34.453125 7.4375 -33.890625 Z M 7.4375 -33.890625 "/></g></g></g><g fill="#000000" fill-opacity="1"><g transform="translate(512.780888, 203.106111)"><g><path d="M 13.328125 -4.609375 C 13.328125 -2.703125 13.023438 -0.878906 12.421875 0.859375 C 11.828125 2.609375 10.976562 4.234375 9.875 5.734375 C 8.726562 7.203125 7.492188 8.320312 6.171875 9.09375 C 4.859375 9.863281 3.472656 10.25 2.015625 10.25 C 0.328125 10.25 -1.898438 9.625 -4.671875 8.375 L -4.09375 7.84375 C -2.800781 8.144531 -1.75 8.296875 -0.9375 8.296875 C 0.851562 8.296875 2.515625 7.800781 4.046875 6.8125 C 5.140625 6.101562 6.140625 5.359375 7.046875 4.578125 C 7.960938 3.804688 8.796875 2.972656 9.546875 2.078125 C 11.023438 0.316406 11.765625 -1.160156 11.765625 -2.359375 C 11.765625 -3.171875 11.335938 -4.40625 10.484375 -6.0625 C 9.640625 -7.726562 9.21875 -8.816406 9.21875 -9.328125 C 9.21875 -9.503906 9.257812 -9.71875 9.34375 -9.96875 C 9.425781 -10.226562 9.546875 -10.523438 9.703125 -10.859375 L 10.90625 -13.125 C 12.519531 -10.84375 13.328125 -8.003906 13.328125 -4.609375 Z M 13.328125 -4.609375 "/></g></g></g><g fill="#000000" fill-opacity="1"><g transform="translate(529.624695, 203.106111)"><g><path d="M 7.1875 -51.0625 C 7.1875 -52.039062 6.738281 -52.53125 5.84375 -52.53125 C 5.40625 -52.53125 5.1875 -52.238281 5.1875 -51.65625 C 5.1875 -51.1875 5.757812 -50.59375 6.90625 -49.875 C 7.007812 -50.09375 7.082031 -50.296875 7.125 -50.484375 C 7.164062 -50.679688 7.1875 -50.875 7.1875 -51.0625 Z M 9.921875 -38.953125 C 9.921875 -38.929688 9.914062 -38.910156 9.90625 -38.890625 C 9.894531 -38.867188 9.890625 -38.84375 9.890625 -38.8125 C 9.890625 -38.78125 9.882812 -38.753906 9.875 -38.734375 C 9.75 -38.109375 9.609375 -37.671875 9.453125 -37.421875 C 9.304688 -37.171875 9.101562 -37.007812 8.84375 -36.9375 L 0.5625 -34.578125 C 0.632812 -34.984375 0.726562 -35.3125 0.84375 -35.5625 C 0.96875 -35.820312 1.140625 -36.039062 1.359375 -36.21875 C 1.578125 -36.394531 1.859375 -36.5625 2.203125 -36.71875 C 2.554688 -36.875 3.007812 -37.054688 3.5625 -37.265625 C 2.21875 -37.921875 1.546875 -38.707031 1.546875 -39.625 C 1.546875 -40.007812 1.734375 -40.453125 2.109375 -40.953125 C 2.953125 -42.128906 3.785156 -43.019531 4.609375 -43.625 C 5.429688 -44.226562 6.242188 -44.53125 7.046875 -44.53125 C 8.097656 -44.53125 8.625 -43.960938 8.625 -42.828125 C 8.625 -42.316406 8.316406 -41.609375 7.703125 -40.703125 C 6.671875 -41.390625 5.875 -41.734375 5.3125 -41.734375 C 5.039062 -41.734375 4.726562 -41.644531 4.375 -41.46875 C 4.019531 -41.300781 3.65625 -41.0625 3.28125 -40.75 C 4.070312 -40.019531 4.828125 -39.46875 5.546875 -39.09375 C 6.273438 -38.71875 6.9375 -38.53125 7.53125 -38.53125 C 8.0625 -38.53125 8.847656 -38.675781 9.890625 -38.96875 Z M 9.375 -46.125 C 8.90625 -46.1875 8.378906 -46.289062 7.796875 -46.4375 C 7.210938 -46.59375 6.625 -46.78125 6.03125 -47 C 4.863281 -46.070312 3.796875 -45.347656 2.828125 -44.828125 C 1.859375 -44.304688 1.070312 -44.046875 0.46875 -44.046875 C 0.21875 -44.046875 -0.078125 -44.09375 -0.421875 -44.1875 C -0.765625 -44.28125 -1.15625 -44.4375 -1.59375 -44.65625 C 1.007812 -45.5 3.125 -46.484375 4.75 -47.609375 C 3.78125 -48.378906 3.296875 -49.226562 3.296875 -50.15625 C 3.296875 -50.601562 3.40625 -51.046875 3.625 -51.484375 C 3.84375 -51.929688 4.125 -52.332031 4.46875 -52.6875 C 4.8125 -53.039062 5.195312 -53.328125 5.625 -53.546875 C 6.050781 -53.765625 6.476562 -53.875 6.90625 -53.875 C 7.101562 -53.875 7.332031 -53.8125 7.59375 -53.6875 C 7.863281 -53.5625 8.113281 -53.394531 8.34375 -53.1875 C 8.582031 -52.988281 8.78125 -52.769531 8.9375 -52.53125 C 9.09375 -52.300781 9.171875 -52.078125 9.171875 -51.859375 C 9.171875 -51.410156 9.078125 -50.960938 8.890625 -50.515625 C 8.703125 -50.066406 8.4375 -49.632812 8.09375 -49.21875 C 8.4375 -49.03125 8.785156 -48.800781 9.140625 -48.53125 C 9.296875 -48.375 9.375 -47.957031 9.375 -47.28125 Z M 9.375 -46.125 "/></g></g></g><g fill="#000000" fill-opacity="1"><g transform="translate(529.624695, 203.106111)"><g><path d="M 7.609375 -9.875 C 7.609375 -8.03125 7.066406 -5.519531 5.984375 -2.34375 L 5.3125 -2.484375 C 5.539062 -4.148438 5.65625 -5.253906 5.65625 -5.796875 C 5.65625 -7.328125 5.539062 -9.015625 5.3125 -10.859375 C 5.3125 -10.929688 5.269531 -11.253906 5.1875 -11.828125 C 5.113281 -12.410156 5.015625 -13.125 4.890625 -13.96875 C 4.773438 -14.8125 4.65625 -15.71875 4.53125 -16.6875 C 4.40625 -17.664062 4.285156 -18.570312 4.171875 -19.40625 C 4.054688 -20.25 3.960938 -20.957031 3.890625 -21.53125 C 3.828125 -22.113281 3.785156 -22.445312 3.765625 -22.53125 C 3.691406 -23.21875 3.628906 -23.804688 3.578125 -24.296875 C 3.535156 -24.796875 3.515625 -25.210938 3.515625 -25.546875 C 3.515625 -27.148438 4.164062 -29.269531 5.46875 -31.90625 L 5.515625 -31.90625 C 5.546875 -30.269531 5.597656 -28.816406 5.671875 -27.546875 C 5.753906 -26.285156 5.859375 -25.210938 5.984375 -24.328125 L 7.15625 -14.34375 C 7.28125 -13.46875 7.382812 -12.628906 7.46875 -11.828125 C 7.5625 -11.023438 7.609375 -10.375 7.609375 -9.875 Z M 7.609375 -9.875 "/></g></g></g><g fill="#000000" fill-opacity="1"><g transform="translate(208.872235, 300.404991)"><g><path d="M 11.390625 -14.046875 L 7.40625 -14.046875 L 5.65625 -49.890625 L 13.140625 -49.890625 Z M 5.03125 -3.765625 C 5.03125 -5.492188 5.445312 -6.707031 6.28125 -7.40625 C 7.125 -8.101562 8.148438 -8.453125 9.359375 -8.453125 C 10.523438 -8.453125 11.539062 -8.101562 12.40625 -7.40625 C 13.269531 -6.707031 13.703125 -5.492188 13.703125 -3.765625 C 13.703125 -2.085938 13.269531 -0.875 12.40625 -0.125 C 11.539062 0.613281 10.523438 0.984375 9.359375 0.984375 C 8.148438 0.984375 7.125 0.613281 6.28125 -0.125 C 5.445312 -0.875 5.03125 -2.085938 5.03125 -3.765625 Z M 5.03125 -3.765625 "/></g></g></g><g fill="#000000" fill-opacity="1"><g transform="translate(234.932959, 317.599094)"><g><path d="M 8.875 -55.0625 C 8.875 -53.582031 8.347656 -52.285156 7.296875 -51.171875 C 6.234375 -50.035156 5.039062 -49.46875 3.71875 -49.46875 C 1.28125 -49.46875 0.0625 -50.84375 0.0625 -53.59375 C 0.0625 -55.507812 0.492188 -57.070312 1.359375 -58.28125 C 2.203125 -59.5 3.332031 -60.109375 4.75 -60.109375 C 5.8125 -60.109375 6.765625 -59.585938 7.609375 -58.546875 C 8.453125 -57.566406 8.875 -56.40625 8.875 -55.0625 Z M 7 -54.25 C 7 -54.84375 6.507812 -55.488281 5.53125 -56.1875 C 4.59375 -56.851562 3.816406 -57.1875 3.203125 -57.1875 C 1.859375 -57.1875 1.1875 -56.410156 1.1875 -54.859375 C 1.1875 -53.515625 2.234375 -52.84375 4.328125 -52.84375 C 6.109375 -52.84375 7 -53.3125 7 -54.25 Z M 7 -54.25 "/></g></g></g><g fill="#000000" fill-opacity="1"><g transform="translate(227.666406, 300.404991)"><g><path d="M 20.75 -11.734375 L 20.328125 -12.109375 L 14.875 -10.34375 C 14.394531 -10.019531 14.15625 -9.675781 14.15625 -9.3125 C 14.15625 -8.851562 14.492188 -8.289062 15.171875 -7.625 C 15.859375 -6.957031 16.785156 -6.316406 17.953125 -5.703125 L 21.9375 -4.265625 L 22.484375 -4.78125 Z M 27.734375 0 L 27.328125 0.234375 L 25.796875 2.90625 L 17.78125 -0.515625 C 12.769531 -2.992188 10.265625 -4.609375 10.265625 -5.359375 C 10.265625 -5.742188 10.378906 -6.097656 10.609375 -6.421875 L 12.078125 -8.96875 L 12.390625 -9.625 L 11.90625 -10.234375 L 7.84375 -8.9375 C 5 -7.976562 3.578125 -7.035156 3.578125 -6.109375 L 6.3125 10.609375 C 6.3125 12.242188 6.023438 14.269531 5.453125 16.6875 C 4.890625 19.113281 4.515625 20.351562 4.328125 20.40625 L 0.984375 -0.78125 C 0.960938 -1.832031 1.019531 -2.671875 1.15625 -3.296875 C 1.289062 -3.921875 1.453125 -4.515625 1.640625 -5.078125 C 1.753906 -5.378906 1.851562 -5.65625 1.9375 -5.90625 C 2.03125 -6.15625 2.125 -6.394531 2.21875 -6.625 C 2.425781 -7.050781 2.664062 -7.484375 2.9375 -7.921875 L 4.84375 -11.09375 C 5.34375 -11.863281 6.347656 -12.59375 7.859375 -13.28125 C 9.378906 -13.976562 11.410156 -14.804688 13.953125 -15.765625 C 16.472656 -16.472656 19.25 -17.144531 22.28125 -17.78125 C 22.457031 -16.84375 22.664062 -15.84375 22.90625 -14.78125 C 23.144531 -13.726562 23.359375 -12.914062 23.546875 -12.34375 C 23.953125 -11.226562 24.269531 -10.457031 24.5 -10.03125 C 24.726562 -9.644531 25.023438 -9.210938 25.390625 -8.734375 C 25.910156 -8.023438 26.398438 -7.382812 26.859375 -6.8125 C 27.328125 -6.25 27.878906 -5.640625 28.515625 -4.984375 L 30.46875 -4.984375 L 30.46875 0 Z M 27.734375 0 "/></g></g></g><g fill="#000000" fill-opacity="1"><g transform="translate(262.190476, 317.223828)"><g><path d="M 9.65625 -65.171875 C 9.65625 -63.941406 9.328125 -63.132812 8.671875 -62.75 L 0.171875 -57.9375 C 0.210938 -58.707031 0.335938 -59.265625 0.546875 -59.609375 C 0.773438 -59.941406 1.265625 -60.328125 2.015625 -60.765625 Z M 9.65625 -65.171875 "/></g></g></g><g fill="#000000" fill-opacity="1"><g transform="translate(257.926065, 300.404991)"><g><path d="M 12.96875 -5.015625 C 13.0625 -5.765625 12.816406 -6.445312 12.234375 -7.0625 C 11.648438 -7.675781 11.109375 -8.15625 10.609375 -8.5 C 9.335938 -9.425781 7.914062 -9.890625 6.34375 -9.890625 L 5.21875 -9.890625 C 5.238281 -10.117188 5.28125 -10.390625 5.34375 -10.703125 C 5.414062 -11.023438 5.492188 -11.34375 5.578125 -11.65625 C 5.660156 -11.976562 5.75 -12.285156 5.84375 -12.578125 C 5.945312 -12.878906 6.046875 -13.132812 6.140625 -13.34375 C 6.347656 -13.863281 6.601562 -14.34375 6.90625 -14.78125 C 7.21875 -15.226562 7.578125 -15.679688 7.984375 -16.140625 C 9.867188 -17.660156 11.992188 -18.332031 14.359375 -18.15625 C 16.453125 -18.101562 18.351562 -17.191406 20.0625 -15.421875 C 21.46875 -14.015625 22.171875 -12.796875 22.171875 -11.765625 C 22.171875 -11.472656 22.113281 -11.191406 22 -10.921875 C 21.894531 -10.648438 21.632812 -10.179688 21.21875 -9.515625 L 20.203125 -7.921875 C 19.953125 -7.523438 19.78125 -7.0625 19.6875 -6.53125 C 19.59375 -6 19.601562 -5.492188 19.71875 -5.015625 L 24.875 -5.015625 L 24.875 0 L 17.203125 0 L 14.84375 -2.421875 L 14.640625 -2.390625 C 13.472656 -0.910156 12.675781 -0.113281 12.25 0 L -2.859375 0 L -2.859375 -5.015625 Z M 12.96875 -5.015625 "/></g></g></g><g fill="#000000" fill-opacity="1"><g transform="translate(286.480085, 291.876169)"><g><path d="M 11.96875 21.15625 C 11.96875 22.65625 11.570312 23.632812 10.78125 24.09375 L 0.4375 29.953125 C 0.507812 29.085938 0.671875 28.40625 0.921875 27.90625 C 1.210938 27.5 1.804688 27.035156 2.703125 26.515625 Z M 11.96875 21.15625 "/></g></g></g><g fill="#000000" fill-opacity="1"><g transform="translate(281.874516, 315.722751)"><g><path d="M 12.109375 -57.421875 C 12.109375 -53.597656 10.925781 -51.6875 8.5625 -51.6875 C 7.738281 -51.6875 7.007812 -51.925781 6.375 -52.40625 C 6.195312 -51.613281 5.753906 -50.929688 5.046875 -50.359375 C 4.316406 -49.765625 3.578125 -49.46875 2.828125 -49.46875 C 0.960938 -49.46875 0.03125 -50.695312 0.03125 -53.15625 C 0.03125 -53.726562 0.28125 -54.878906 0.78125 -56.609375 L 1.5625 -56.734375 C 1.5625 -54.210938 2.007812 -52.953125 2.90625 -52.953125 C 4.351562 -52.953125 5.375 -54.796875 5.96875 -58.484375 L 6.578125 -58.6875 C 7.109375 -56.457031 7.769531 -55.34375 8.5625 -55.34375 C 9.882812 -55.34375 10.644531 -57.015625 10.84375 -60.359375 L 11.640625 -60.703125 C 11.953125 -59.304688 12.109375 -58.210938 12.109375 -57.421875 Z M 12.109375 -57.421875 "/></g></g></g><g fill="#000000" fill-opacity="1"><g transform="translate(282.181553, 300.404991)"><g><path d="M 14.703125 -28.859375 L 11.125 -24.015625 L 6.109375 -27.609375 L 9.59375 -32.453125 Z M 11.390625 -4.984375 L 12.1875 -8.671875 L 12.390625 -13.34375 L 15.796875 -17.40625 L 15.21875 -10.34375 C 15.21875 -9.3125 15.492188 -8.195312 16.046875 -7 C 16.609375 -5.8125 17.503906 -5.140625 18.734375 -4.984375 L 20.203125 -4.984375 L 20.203125 0 L 15.3125 0 C 13.363281 -2.59375 12.25 -3.890625 11.96875 -3.890625 C 11.71875 -3.890625 10.765625 -2.59375 9.109375 0 L -2.828125 0 L -2.828125 -4.984375 Z M 11.390625 -4.984375 "/></g></g></g><g fill="#000000" fill-opacity="1"><g transform="translate(302.070373, 300.404991)"><g><path d="M -2.078125 -4.984375 L 9.6875 -4.984375 C 9.9375 -5.046875 10.003906 -5.726562 9.890625 -7.03125 C 9.847656 -8.207031 9.75 -9.398438 9.59375 -10.609375 C 9.226562 -13.359375 8.921875 -16.082031 8.671875 -18.78125 C 8.421875 -21.476562 8.238281 -23.144531 8.125 -23.78125 C 7.894531 -25.007812 7.585938 -26.125 7.203125 -27.125 C 7.015625 -27.625 6.757812 -28.25 6.4375 -29 C 6.125 -29.75 5.738281 -30.632812 5.28125 -31.65625 C 5.507812 -32.1875 5.757812 -32.863281 6.03125 -33.6875 C 6.3125 -34.519531 6.632812 -35.515625 7 -36.671875 C 8.175781 -35.765625 9.382812 -34.863281 10.625 -33.96875 C 11.863281 -33.070312 13.132812 -32.191406 14.4375 -31.328125 L 12.5625 -26 L 11.59375 -25.765625 L 13.265625 -9.484375 C 13.410156 -8.367188 13.503906 -7.257812 13.546875 -6.15625 C 13.585938 -5.050781 13.617188 -3.921875 13.640625 -2.765625 L 13.640625 -2.65625 C 13.640625 -0.976562 12.800781 -0.09375 11.125 0 L -2.078125 0 Z M -2.078125 -4.984375 "/></g></g></g><g fill="#000000" fill-opacity="1"><g transform="translate(317.04669, 300.404991)"><g><path d="M 12.390625 -10.140625 C 12.390625 -8.628906 12.289062 -7.234375 12.09375 -5.953125 C 11.90625 -4.671875 11.613281 -3.445312 11.21875 -2.28125 C 10.90625 -0.875 10.488281 0.257812 9.96875 1.125 L 6.953125 -30.125 C 6.953125 -30.257812 7.09375 -30.617188 7.375 -31.203125 C 7.664062 -31.785156 8.128906 -32.585938 8.765625 -33.609375 L 10.640625 -37.328125 L 11.328125 -31.796875 C 11.578125 -30.066406 11.828125 -26.570312 12.078125 -21.3125 C 12.328125 -16.0625 12.429688 -12.335938 12.390625 -10.140625 Z M 12.390625 -10.140625 "/></g></g></g><g fill="#000000" fill-opacity="1"><g transform="translate(331.204256, 300.404991)"><g/></g></g><g fill="#000000" fill-opacity="1"><g transform="translate(352.253052, 315.518063)"><g><path d="M 9.65625 -65.171875 C 9.65625 -63.941406 9.328125 -63.132812 8.671875 -62.75 L 0.171875 -57.9375 C 0.210938 -58.707031 0.335938 -59.265625 0.546875 -59.609375 C 0.773438 -59.941406 1.265625 -60.328125 2.015625 -60.765625 Z M 9.65625 -65.171875 "/></g></g></g><g fill="#000000" fill-opacity="1"><g transform="translate(348.261558, 300.404991)"><g><path d="M 20.328125 -5.65625 C 18.992188 -5.84375 17.796875 -5.960938 16.734375 -6.015625 C 15.679688 -6.078125 14.753906 -6.085938 13.953125 -6.046875 C 13.160156 -6.015625 12.179688 -5.878906 11.015625 -5.640625 C 9.859375 -5.398438 8.597656 -5.03125 7.234375 -4.53125 C 5.867188 -4.03125 4.695312 -3.597656 3.71875 -3.234375 L 3.34375 -3.03125 C 3.664062 -1.300781 3.925781 0.320312 4.125 1.84375 L 4.75 6.375 L 4.984375 9.96875 C 4.984375 10.550781 4.90625 11.273438 4.75 12.140625 C 4.695312 12.390625 4.664062 12.585938 4.65625 12.734375 C 4.644531 12.890625 4.628906 12.988281 4.609375 13.03125 C 4.609375 13.164062 4.570312 13.367188 4.5 13.640625 C 4.457031 13.785156 4.394531 14.007812 4.3125 14.3125 C 4.238281 14.613281 4.128906 15.019531 3.984375 15.53125 C 3.878906 16.03125 3.738281 16.566406 3.5625 17.140625 C 3.394531 17.722656 3.21875 18.34375 3.03125 19 L 2.90625 17.234375 L 0.171875 -2.3125 C 0.171875 -2.5 0.300781 -2.820312 0.5625 -3.28125 C 0.820312 -3.75 1.238281 -4.335938 1.8125 -5.046875 L 3.65625 -7.328125 C 3.789062 -7.578125 4.90625 -8.132812 7 -9 C 8.132812 -9.457031 9.15625 -9.828125 10.0625 -10.109375 C 10.976562 -10.398438 11.785156 -10.585938 12.484375 -10.671875 L 14.015625 -10.84375 L 14.296875 -11.671875 L 12.25 -13.140625 C 10.5625 -14.203125 9.0625 -14.734375 7.75 -14.734375 C 6.71875 -14.734375 5.921875 -14.53125 5.359375 -14.125 C 5.054688 -13.945312 4.710938 -13.6875 4.328125 -13.34375 C 3.941406 -13 3.507812 -12.597656 3.03125 -12.140625 L 3.375 -13.203125 C 4.332031 -14.972656 5.59375 -16.535156 7.15625 -17.890625 C 8.726562 -19.242188 10.039062 -19.898438 11.09375 -19.859375 C 11.363281 -19.859375 11.910156 -19.628906 12.734375 -19.171875 C 13.566406 -18.722656 14.582031 -17.929688 15.78125 -16.796875 C 16.976562 -15.671875 18.269531 -14.425781 19.65625 -13.0625 L 22.484375 -10.03125 Z M 20.328125 -5.65625 "/></g></g></g><g fill="#000000" fill-opacity="1"><g transform="translate(371.937093, 300.404991)"><g><path d="M 21.421875 -10.234375 C 20.585938 -11.554688 19.578125 -12.21875 18.390625 -12.21875 C 17.390625 -12.21875 16.628906 -11.910156 16.109375 -11.296875 C 15.304688 -10.453125 14.789062 -9.632812 14.5625 -8.84375 C 14.5625 -7.726562 15.203125 -6.722656 16.484375 -5.828125 C 17.117188 -5.421875 17.742188 -5.128906 18.359375 -4.953125 C 18.972656 -4.785156 19.628906 -4.703125 20.328125 -4.703125 C 21.691406 -4.703125 22.613281 -5.125 23.09375 -5.96875 L 23.125 -6.34375 C 22.695312 -7.726562 22.335938 -8.726562 22.046875 -9.34375 Z M 26.40625 0 L 26 0.3125 C 25.613281 1.8125 25.003906 3.25 24.171875 4.625 C 23.335938 6 22.265625 7.390625 20.953125 8.796875 C 19.648438 10.210938 18.382812 11.335938 17.15625 12.171875 C 15.925781 13.015625 14.804688 13.4375 13.796875 13.4375 C 12.785156 13.4375 11.503906 13.21875 9.953125 12.78125 C 8.410156 12.351562 6.445312 11.628906 4.0625 10.609375 C 1.675781 9.585938 0.425781 8.835938 0.3125 8.359375 C 0.3125 8.316406 0.390625 8.28125 0.546875 8.25 L 5.28125 9.65625 L 6.828125 9.828125 C 8.484375 9.828125 10.0625 9.625 11.5625 9.21875 C 12.289062 9.007812 13.0625 8.6875 13.875 8.25 C 14.695312 7.820312 15.566406 7.265625 16.484375 6.578125 C 17.347656 5.941406 18.140625 5.335938 18.859375 4.765625 C 19.585938 4.203125 20.21875 3.660156 20.75 3.140625 C 21.976562 2.066406 22.625 1.019531 22.6875 0 L 21.796875 0 C 19.203125 0 16.988281 -0.257812 15.15625 -0.78125 L 15.15625 -0.8125 C 12.582031 -1.539062 11.296875 -2.894531 11.296875 -4.875 C 11.296875 -5.644531 11.519531 -6.660156 11.96875 -7.921875 C 12.425781 -9.191406 13.03125 -10.566406 13.78125 -12.046875 C 15.894531 -15.546875 18 -17.296875 20.09375 -17.296875 C 21.707031 -17.296875 23.3125 -15.84375 24.90625 -12.9375 C 26.09375 -9.925781 26.910156 -7.410156 27.359375 -5.390625 L 27.765625 -4.984375 L 29.34375 -4.984375 L 28.796875 0 Z M 26.40625 0 "/></g></g></g><g fill="#000000" fill-opacity="1"><g transform="translate(400.286334, 300.404991)"><g><path d="M 14.84375 -28.765625 L 11.875 -24.734375 L 7.703125 -27.703125 L 10.609375 -31.734375 Z M 20.984375 -28.765625 L 18.015625 -24.734375 L 13.859375 -27.703125 L 16.75 -31.734375 Z M 21.328125 -8.125 C 21.410156 -9.988281 21.0625 -11.472656 20.28125 -12.578125 C 19.5 -13.679688 18.472656 -14.242188 17.203125 -14.265625 C 15.941406 -14.285156 14.554688 -13.882812 13.046875 -13.0625 C 11.535156 -12.25 10.691406 -11.304688 10.515625 -10.234375 C 10.515625 -9.273438 11.171875 -8.304688 12.484375 -7.328125 C 13.960938 -6.460938 15.484375 -6.128906 17.046875 -6.328125 C 18.617188 -6.523438 20.046875 -7.125 21.328125 -8.125 Z M 7.203125 -4.984375 C 6.878906 -6.503906 6.925781 -7.90625 7.34375 -9.1875 C 7.769531 -10.476562 8.394531 -11.632812 9.21875 -12.65625 C 10.050781 -13.675781 10.773438 -14.429688 11.390625 -14.921875 C 12.003906 -15.410156 12.738281 -15.863281 13.59375 -16.28125 C 14.445312 -16.707031 15.304688 -17.128906 16.171875 -17.546875 C 17.035156 -17.972656 17.867188 -18.316406 18.671875 -18.578125 C 19.484375 -18.835938 20.265625 -18.96875 21.015625 -18.96875 C 21.765625 -18.96875 22.503906 -18.253906 23.234375 -16.828125 C 23.671875 -15.960938 23.953125 -15.222656 24.078125 -14.609375 C 24.203125 -13.992188 24.296875 -13.296875 24.359375 -12.515625 C 24.453125 -11.015625 24 -9.359375 23 -7.546875 L 21.015625 -4.984375 L 28.1875 -4.984375 L 28.1875 0 L -2.796875 0 L -2.796875 -4.984375 Z M 7.203125 -4.984375 "/></g></g></g><g fill="#000000" fill-opacity="1"><g transform="translate(427.509776, 300.404991)"><g><path d="M -2.078125 -4.984375 L 9.6875 -4.984375 C 9.9375 -5.046875 10.003906 -5.726562 9.890625 -7.03125 C 9.847656 -8.207031 9.75 -9.398438 9.59375 -10.609375 C 9.226562 -13.359375 8.921875 -16.082031 8.671875 -18.78125 C 8.421875 -21.476562 8.238281 -23.144531 8.125 -23.78125 C 7.894531 -25.007812 7.585938 -26.125 7.203125 -27.125 C 7.015625 -27.625 6.757812 -28.25 6.4375 -29 C 6.125 -29.75 5.738281 -30.632812 5.28125 -31.65625 C 5.507812 -32.1875 5.757812 -32.863281 6.03125 -33.6875 C 6.3125 -34.519531 6.632812 -35.515625 7 -36.671875 C 8.175781 -35.765625 9.382812 -34.863281 10.625 -33.96875 C 11.863281 -33.070312 13.132812 -32.191406 14.4375 -31.328125 L 12.5625 -26 L 11.59375 -25.765625 L 13.265625 -9.484375 C 13.410156 -8.367188 13.503906 -7.257812 13.546875 -6.15625 C 13.585938 -5.050781 13.617188 -3.921875 13.640625 -2.765625 L 13.640625 -2.65625 C 13.640625 -0.976562 12.800781 -0.09375 11.125 0 L -2.078125 0 Z M -2.078125 -4.984375 "/></g></g></g><g fill="#000000" fill-opacity="1"><g transform="translate(442.486116, 300.404991)"><g><path d="M 12.390625 -10.140625 C 12.390625 -8.628906 12.289062 -7.234375 12.09375 -5.953125 C 11.90625 -4.671875 11.613281 -3.445312 11.21875 -2.28125 C 10.90625 -0.875 10.488281 0.257812 9.96875 1.125 L 6.953125 -30.125 C 6.953125 -30.257812 7.09375 -30.617188 7.375 -31.203125 C 7.664062 -31.785156 8.128906 -32.585938 8.765625 -33.609375 L 10.640625 -37.328125 L 11.328125 -31.796875 C 11.578125 -30.066406 11.828125 -26.570312 12.078125 -21.3125 C 12.328125 -16.0625 12.429688 -12.335938 12.390625 -10.140625 Z M 12.390625 -10.140625 "/></g></g></g><g fill="#000000" fill-opacity="1"><g transform="translate(456.643659, 300.404991)"><g/></g></g><g fill="#000000" fill-opacity="1"><g transform="translate(479.56881, 310.639578)"><g><path d="M 9.546875 -64.25 L 9.3125 -61.484375 L 7.09375 -62.953125 C 4.84375 -60.265625 3 -58.921875 1.5625 -58.921875 C 1.15625 -58.921875 0.613281 -59.035156 -0.0625 -59.265625 C 0.882812 -59.785156 1.851562 -60.40625 2.84375 -61.125 C 3.832031 -61.84375 4.851562 -62.675781 5.90625 -63.625 C 4.769531 -64.488281 4.203125 -65.320312 4.203125 -66.125 C 4.203125 -67.257812 4.609375 -68.429688 5.421875 -69.640625 C 6.015625 -70.429688 6.6875 -70.828125 7.4375 -70.828125 C 8.6875 -70.828125 9.3125 -70.007812 9.3125 -68.375 C 9.3125 -67.414062 9.03125 -66.320312 8.46875 -65.09375 C 8.601562 -65.007812 8.757812 -64.890625 8.9375 -64.734375 C 9.125 -64.585938 9.328125 -64.425781 9.546875 -64.25 Z M 7.609375 -66.734375 C 7.609375 -67.140625 7.453125 -67.523438 7.140625 -67.890625 C 6.835938 -68.253906 6.492188 -68.4375 6.109375 -68.4375 C 5.765625 -68.4375 5.59375 -68.242188 5.59375 -67.859375 C 5.59375 -67.296875 6.207031 -66.601562 7.4375 -65.78125 C 7.550781 -66.238281 7.609375 -66.554688 7.609375 -66.734375 Z M 7.609375 -66.734375 "/></g></g></g><g fill="#000000" fill-opacity="1"><g transform="translate(473.700984, 300.404991)"><g><path d="M 27.609375 0 L 24.15625 0 C 23.945312 0.0195312 23.769531 -0.0859375 23.625 -0.328125 C 23.476562 -0.566406 23.332031 -0.835938 23.1875 -1.140625 C 23.039062 -1.453125 22.875 -1.734375 22.6875 -1.984375 C 22.507812 -2.234375 22.269531 -2.359375 21.96875 -2.359375 C 21.71875 -2.328125 21.410156 -2.171875 21.046875 -1.890625 C 20.679688 -1.609375 20.257812 -1.289062 19.78125 -0.9375 C 19.3125 -0.582031 18.796875 -0.253906 18.234375 0.046875 C 17.679688 0.359375 17.097656 0.546875 16.484375 0.609375 C 8.609375 1.222656 4.0625 1.234375 2.84375 0.640625 C 1.632812 0.0546875 0.992188 -0.675781 0.921875 -1.5625 C 0.847656 -2.457031 0.976562 -3.625 1.3125 -5.0625 C 1.644531 -6.507812 1.976562 -7.753906 2.3125 -8.796875 C 2.65625 -9.847656 2.851562 -10.394531 2.90625 -10.4375 C 2.738281 -7.78125 2.894531 -6.269531 3.375 -5.90625 C 3.675781 -5.269531 4.234375 -4.785156 5.046875 -4.453125 C 5.867188 -4.117188 6.816406 -3.898438 7.890625 -3.796875 C 8.972656 -3.703125 10.132812 -3.695312 11.375 -3.78125 C 12.613281 -3.875 13.785156 -4.03125 14.890625 -4.25 C 15.992188 -4.46875 16.976562 -4.722656 17.84375 -5.015625 C 18.707031 -5.304688 19.320312 -5.613281 19.6875 -5.9375 C 20.226562 -6.800781 20.421875 -7.742188 20.265625 -8.765625 C 19.785156 -11.742188 18.898438 -15.132812 17.609375 -18.9375 L 20.4375 -24.734375 L 24.796875 -7.09375 C 25.023438 -5.570312 25.6875 -4.878906 26.78125 -5.015625 L 27.609375 -5.015625 Z M 27.609375 0 "/></g></g></g><g fill="#000000" fill-opacity="1"><g transform="translate(513.547069, 291.876169)"><g><path d="M 11.96875 21.15625 C 11.96875 22.65625 11.570312 23.632812 10.78125 24.09375 L 0.4375 29.953125 C 0.507812 29.085938 0.671875 28.40625 0.921875 27.90625 C 1.210938 27.5 1.804688 27.035156 2.703125 26.515625 Z M 11.96875 21.15625 "/></g></g></g><g fill="#000000" fill-opacity="1"><g transform="translate(501.163234, 300.404991)"><g><path d="M -3.546875 -4.984375 L 7.203125 -4.984375 L 7.578125 -5.5 L 7.953125 -9.6875 L 11.765625 -13.609375 L 11.296875 -10.75 L 10.84375 -8.765625 L 10.375 -4.984375 L 19.75 -4.984375 L 20.125 -5.5 L 20.5 -9.6875 L 24.328125 -13.609375 L 23.84375 -10.75 L 23.40625 -8.765625 L 22.921875 -4.984375 L 29.75 -4.984375 L 29.8125 -5.5 L 29.234375 -10.171875 L 33.375 -15.046875 L 33.375 -7.703125 L 32.921875 -4.984375 L 36.40625 -4.984375 L 36.40625 0 L 33 0 L 31.59375 -1.703125 L 30.875 0 L 21.796875 0 L 20.234375 -1.734375 L 18.828125 0 L 9.046875 0 L 7.125 -1.296875 L 5.28125 0 L -3.546875 0 Z M -3.546875 -4.984375 "/></g></g></g><g fill="#000000" fill-opacity="1"><g transform="translate(542.476116, 302.72483)"><g><path d="M 8.875 -55.0625 C 8.875 -53.582031 8.347656 -52.285156 7.296875 -51.171875 C 6.234375 -50.035156 5.039062 -49.46875 3.71875 -49.46875 C 1.28125 -49.46875 0.0625 -50.84375 0.0625 -53.59375 C 0.0625 -55.507812 0.492188 -57.070312 1.359375 -58.28125 C 2.203125 -59.5 3.332031 -60.109375 4.75 -60.109375 C 5.8125 -60.109375 6.765625 -59.585938 7.609375 -58.546875 C 8.453125 -57.566406 8.875 -56.40625 8.875 -55.0625 Z M 7 -54.25 C 7 -54.84375 6.507812 -55.488281 5.53125 -56.1875 C 4.59375 -56.851562 3.816406 -57.1875 3.203125 -57.1875 C 1.859375 -57.1875 1.1875 -56.410156 1.1875 -54.859375 C 1.1875 -53.515625 2.234375 -52.84375 4.328125 -52.84375 C 6.109375 -52.84375 7 -53.3125 7 -54.25 Z M 7 -54.25 "/></g></g></g><g fill="#000000" fill-opacity="1"><g transform="translate(537.188255, 300.404991)"><g><path d="M 15.1875 -25.796875 L 11.390625 -29.0625 L 15.078125 -32.65625 L 18.96875 -29.171875 Z M 21.328125 -8.125 C 21.410156 -9.988281 21.0625 -11.472656 20.28125 -12.578125 C 19.5 -13.679688 18.472656 -14.242188 17.203125 -14.265625 C 15.941406 -14.285156 14.554688 -13.882812 13.046875 -13.0625 C 11.535156 -12.25 10.691406 -11.304688 10.515625 -10.234375 C 10.515625 -9.273438 11.171875 -8.304688 12.484375 -7.328125 C 13.960938 -6.460938 15.484375 -6.128906 17.046875 -6.328125 C 18.617188 -6.523438 20.046875 -7.125 21.328125 -8.125 Z M 7.203125 -4.984375 C 6.878906 -6.503906 6.925781 -7.90625 7.34375 -9.1875 C 7.769531 -10.476562 8.394531 -11.632812 9.21875 -12.65625 C 10.050781 -13.675781 10.773438 -14.429688 11.390625 -14.921875 C 12.003906 -15.410156 12.738281 -15.863281 13.59375 -16.28125 C 14.445312 -16.707031 15.304688 -17.128906 16.171875 -17.546875 C 17.035156 -17.972656 17.867188 -18.316406 18.671875 -18.578125 C 19.484375 -18.835938 20.265625 -18.96875 21.015625 -18.96875 C 21.765625 -18.96875 22.503906 -18.253906 23.234375 -16.828125 C 23.671875 -15.960938 23.953125 -15.222656 24.078125 -14.609375 C 24.203125 -13.992188 24.296875 -13.296875 24.359375 -12.515625 C 24.453125 -11.015625 24 -9.359375 23 -7.546875 L 21.015625 -4.984375 L 28.1875 -4.984375 L 28.1875 0 L -2.796875 0 L -2.796875 -4.984375 Z M 7.203125 -4.984375 "/></g></g></g><g fill="#000000" fill-opacity="1"><g transform="translate(564.514069, 301.155524)"><g><path d="M 9.546875 -64.25 L 9.3125 -61.484375 L 7.09375 -62.953125 C 4.84375 -60.265625 3 -58.921875 1.5625 -58.921875 C 1.15625 -58.921875 0.613281 -59.035156 -0.0625 -59.265625 C 0.882812 -59.785156 1.851562 -60.40625 2.84375 -61.125 C 3.832031 -61.84375 4.851562 -62.675781 5.90625 -63.625 C 4.769531 -64.488281 4.203125 -65.320312 4.203125 -66.125 C 4.203125 -67.257812 4.609375 -68.429688 5.421875 -69.640625 C 6.015625 -70.429688 6.6875 -70.828125 7.4375 -70.828125 C 8.6875 -70.828125 9.3125 -70.007812 9.3125 -68.375 C 9.3125 -67.414062 9.03125 -66.320312 8.46875 -65.09375 C 8.601562 -65.007812 8.757812 -64.890625 8.9375 -64.734375 C 9.125 -64.585938 9.328125 -64.425781 9.546875 -64.25 Z M 7.609375 -66.734375 C 7.609375 -67.140625 7.453125 -67.523438 7.140625 -67.890625 C 6.835938 -68.253906 6.492188 -68.4375 6.109375 -68.4375 C 5.765625 -68.4375 5.59375 -68.242188 5.59375 -67.859375 C 5.59375 -67.296875 6.207031 -66.601562 7.4375 -65.78125 C 7.550781 -66.238281 7.609375 -66.554688 7.609375 -66.734375 Z M 7.609375 -66.734375 "/></g></g></g><g fill="#000000" fill-opacity="1"><g transform="translate(563.49062, 300.404991)"><g><path d="M 15.859375 -31.046875 L 12.6875 -26.78125 L 8.296875 -29.953125 L 11.359375 -34.21875 Z M 9.3125 -31.046875 L 6.171875 -26.78125 L 1.734375 -29.953125 L 4.8125 -34.21875 Z M 14.265625 -4.984375 C 14.460938 -6.117188 14.5625 -6.800781 14.5625 -7.03125 C 14.5625 -7.125 14.550781 -7.191406 14.53125 -7.234375 C 14.46875 -7.484375 14.207031 -8.128906 13.75 -9.171875 C 13.320312 -10.203125 12.828125 -11.21875 12.265625 -12.21875 C 11.710938 -13.21875 11.09375 -14.09375 10.40625 -14.84375 L 13 -20.203125 C 13.90625 -18.972656 14.640625 -17.898438 15.203125 -16.984375 C 15.773438 -16.078125 16.289062 -14.9375 16.75 -13.5625 C 17.207031 -12.1875 17.4375 -10.960938 17.4375 -9.890625 C 17.4375 -9.367188 17.414062 -8.828125 17.375 -8.265625 C 17.34375 -7.710938 17.285156 -7.109375 17.203125 -6.453125 L 16.78125 -3.171875 C 16.53125 -1.328125 16.363281 -0.269531 16.28125 0 L -2.1875 0 L -2.1875 -4.984375 Z M 14.265625 -4.984375 "/></g></g></g><g fill="#000000" fill-opacity="1"><g transform="translate(581.264346, 300.404991)"><g/></g></g><g fill="#000000" fill-opacity="1"><g transform="translate(606.441049, 305.385826)"><g><path d="M 11.5625 21.15625 C 11.5625 22.65625 11.164062 23.632812 10.375 24.09375 L 0.03125 29.953125 C 0.101562 29.085938 0.265625 28.40625 0.515625 27.90625 C 0.804688 27.5 1.394531 27.035156 2.28125 26.515625 Z M 11.5625 26.171875 C 11.5625 27.671875 11.164062 28.648438 10.375 29.109375 L 0.03125 34.96875 C 0.101562 34.101562 0.265625 33.421875 0.515625 32.921875 C 0.804688 32.515625 1.394531 32.050781 2.28125 31.53125 Z M 11.5625 26.171875 "/></g></g></g><g fill="#000000" fill-opacity="1"><g transform="translate(598.321625, 300.404991)"><g><path d="M 26.578125 -0.109375 C 25.804688 2.265625 24.160156 5.128906 21.640625 8.484375 C 19.128906 11.835938 16.460938 13.515625 13.640625 13.515625 C 12.117188 13.515625 9.40625 12.785156 5.5 11.328125 C 2.238281 10.234375 0.609375 9.390625 0.609375 8.796875 L 5.1875 10.171875 C 6.894531 10.617188 8.164062 10.84375 9 10.84375 C 11.34375 10.84375 14.539062 9.09375 18.59375 5.59375 C 22.625 2.113281 24.671875 -0.75 24.734375 -3 C 24.828125 -4.570312 24 -6.253906 22.25 -8.046875 C 21.632812 -8.640625 21.023438 -9.21875 20.421875 -9.78125 C 19.816406 -10.351562 19.242188 -10.867188 18.703125 -11.328125 L 20.0625 -17.234375 C 21.382812 -16.523438 22.738281 -15.226562 24.125 -13.34375 C 26.082031 -10.5625 27.0625 -7.523438 27.0625 -4.234375 C 27.0625 -3.660156 27.019531 -3.03125 26.9375 -2.34375 C 26.851562 -1.664062 26.734375 -0.921875 26.578125 -0.109375 Z M 26.578125 -0.109375 "/></g></g></g><g fill="#000000" fill-opacity="1"><g transform="translate(625.818007, 300.404991)"><g><path d="M 12.390625 -10.140625 C 12.390625 -8.628906 12.289062 -7.234375 12.09375 -5.953125 C 11.90625 -4.671875 11.613281 -3.445312 11.21875 -2.28125 C 10.90625 -0.875 10.488281 0.257812 9.96875 1.125 L 6.953125 -30.125 C 6.953125 -30.257812 7.09375 -30.617188 7.375 -31.203125 C 7.664062 -31.785156 8.128906 -32.585938 8.765625 -33.609375 L 10.640625 -37.328125 L 11.328125 -31.796875 C 11.578125 -30.066406 11.828125 -26.570312 12.078125 -21.3125 C 12.328125 -16.0625 12.429688 -12.335938 12.390625 -10.140625 Z M 12.390625 -10.140625 "/></g></g></g><g fill="#000000" fill-opacity="1"><g transform="translate(639.97555, 300.404991)"><g><path d="M 24.125 -27.703125 L 21.15625 -23.671875 L 16.984375 -26.640625 L 19.890625 -30.671875 Z M 29.0625 0 C 28.726562 0 28.445312 -0.0195312 28.21875 -0.0625 C 27.988281 -0.113281 27.773438 -0.1875 27.578125 -0.28125 C 27.390625 -0.382812 27.207031 -0.523438 27.03125 -0.703125 C 26.863281 -0.890625 26.664062 -1.125 26.4375 -1.40625 L 25.5625 -1.40625 C 25.03125 1.46875 23.492188 4.65625 20.953125 8.15625 C 19.722656 9.726562 18.429688 10.992188 17.078125 11.953125 C 15.722656 12.921875 14.398438 13.40625 13.109375 13.40625 C 11.671875 13.40625 9.300781 12.835938 6 11.703125 C 2.113281 9.992188 0.191406 8.914062 0.234375 8.46875 C 4.804688 9.914062 7.59375 10.597656 8.59375 10.515625 C 9.59375 10.441406 10.410156 10.234375 11.046875 9.890625 C 11.691406 9.546875 12.882812 8.800781 14.625 7.65625 C 16.363281 6.507812 18.359375 4.726562 20.609375 2.3125 C 22.148438 0.269531 22.921875 -1.351562 22.921875 -2.5625 C 22.921875 -2.90625 22.753906 -3.425781 22.421875 -4.125 C 22.304688 -4.488281 21.984375 -5.1875 21.453125 -6.21875 C 20.929688 -7.257812 20.226562 -8.367188 19.34375 -9.546875 L 22.65625 -14.265625 L 24.09375 -11.390625 L 25.59375 -8.734375 C 26.707031 -7.117188 27.640625 -5.984375 28.390625 -5.328125 C 28.953125 -5.097656 29.679688 -4.984375 30.578125 -4.984375 L 32.078125 -4.984375 L 32.078125 0 Z M 29.0625 0 "/></g></g></g><g fill="#000000" fill-opacity="1"><g transform="translate(676.137145, 291.876169)"><g><path d="M 11.96875 21.15625 C 11.96875 22.65625 11.570312 23.632812 10.78125 24.09375 L 0.4375 29.953125 C 0.507812 29.085938 0.671875 28.40625 0.921875 27.90625 C 1.210938 27.5 1.804688 27.035156 2.703125 26.515625 Z M 11.96875 21.15625 "/></g></g></g><g fill="#000000" fill-opacity="1"><g transform="translate(672.623266, 300.404991)"><g><path d="M 10.640625 -29.34375 L 7.5 -25.140625 L 3.171875 -28.28125 L 6.203125 -32.484375 Z M 13.984375 -4.984375 C 14.191406 -6.117188 14.296875 -6.800781 14.296875 -7.03125 C 14.296875 -7.125 14.285156 -7.191406 14.265625 -7.234375 C 14.191406 -7.484375 13.929688 -8.128906 13.484375 -9.171875 C 13.046875 -10.203125 12.546875 -11.21875 11.984375 -12.21875 C 11.429688 -13.21875 10.816406 -14.09375 10.140625 -14.84375 L 12.71875 -20.203125 C 13.632812 -18.972656 14.375 -17.898438 14.9375 -16.984375 C 15.507812 -16.078125 16.019531 -14.9375 16.46875 -13.5625 C 16.925781 -12.1875 17.15625 -10.960938 17.15625 -9.890625 C 17.15625 -9.367188 17.140625 -8.828125 17.109375 -8.265625 C 17.078125 -7.710938 17.015625 -7.109375 16.921875 -6.453125 L 16.515625 -3.171875 C 16.265625 -1.328125 16.09375 -0.269531 16 0 L -2.453125 0 L -2.453125 -4.984375 Z M 13.984375 -4.984375 "/></g></g></g><g fill="#000000" fill-opacity="1"><g transform="translate(690.942779, 300.404991)"><g/></g></g><g fill="#000000" fill-opacity="1"><g transform="translate(708.000104, 300.404991)"><g><path d="M 6.078125 0 L 3.71875 -32.828125 L 7.328125 -37.1875 C 7.328125 -35.050781 7.707031 -29.082031 8.46875 -19.28125 C 8.820312 -15.863281 9.113281 -13.03125 9.34375 -10.78125 C 9.570312 -8.53125 9.734375 -7.269531 9.828125 -7 L 9.890625 -6.453125 L 10.296875 -5.625 C 10.484375 -5.445312 10.863281 -5.265625 11.4375 -5.078125 L 12.59375 -4.984375 L 14.640625 -4.984375 L 14.640625 0 Z M 6.078125 0 "/></g></g></g><g fill="#000000" fill-opacity="1"><g transform="translate(722.08943, 300.404991)"><g><path d="M 12.046875 11.640625 L 8.796875 16 L 4.296875 12.765625 L 7.4375 8.390625 Z M 14.125 -4.984375 C 14.332031 -6.117188 14.4375 -6.800781 14.4375 -7.03125 C 14.4375 -7.125 14.421875 -7.191406 14.390625 -7.234375 C 14.328125 -7.484375 14.066406 -8.128906 13.609375 -9.171875 C 13.179688 -10.203125 12.6875 -11.21875 12.125 -12.21875 C 11.570312 -13.21875 10.953125 -14.09375 10.265625 -14.84375 L 12.859375 -20.203125 C 13.773438 -18.972656 14.515625 -17.898438 15.078125 -16.984375 C 15.648438 -16.078125 16.160156 -14.9375 16.609375 -13.5625 C 17.066406 -12.1875 17.296875 -10.960938 17.296875 -9.890625 C 17.296875 -9.367188 17.28125 -8.828125 17.25 -8.265625 C 17.21875 -7.710938 17.15625 -7.109375 17.0625 -6.453125 L 16.65625 -3.171875 C 16.40625 -1.328125 16.234375 -0.269531 16.140625 0 L -2.3125 0 L -2.3125 -4.984375 Z M 14.125 -4.984375 "/></g></g></g><g fill="#000000" fill-opacity="1"><g transform="translate(740.136072, 300.404991)"><g><path d="M 13.265625 -38.21875 L 11.5625 -38.046875 C 10.695312 -37.953125 9.5625 -37.460938 8.15625 -36.578125 L 6.34375 -35.375 C 6.320312 -35.425781 6.3125 -35.492188 6.3125 -35.578125 C 6.3125 -36.015625 6.675781 -36.53125 7.40625 -37.125 L 8.734375 -38.21875 L 7.609375 -38.3125 L 7.0625 -38.421875 L 6.453125 -38.625 C 5.785156 -38.800781 5.453125 -39.0625 5.453125 -39.40625 C 5.453125 -40.34375 5.921875 -41.390625 6.859375 -42.546875 C 7.898438 -43.867188 9.117188 -44.53125 10.515625 -44.53125 C 10.867188 -44.53125 11.160156 -44.421875 11.390625 -44.203125 C 11.617188 -43.984375 11.78125 -43.703125 11.875 -43.359375 L 11.703125 -42.890625 C 11.628906 -42.679688 11.5625 -42.546875 11.5 -42.484375 C 11.382812 -42.234375 11.25 -42.015625 11.09375 -41.828125 C 10.75 -42.515625 10.15625 -42.859375 9.3125 -42.859375 C 8.695312 -42.859375 8.171875 -42.75 7.734375 -42.53125 C 7.304688 -42.3125 6.992188 -41.972656 6.796875 -41.515625 L 6.75 -41.25 C 6.75 -40.882812 7.101562 -40.625 7.8125 -40.46875 L 9.34375 -40.125 L 14.265625 -40.125 Z M 12.390625 -10.140625 C 12.390625 -8.628906 12.289062 -7.234375 12.09375 -5.953125 C 11.90625 -4.671875 11.613281 -3.445312 11.21875 -2.28125 C 10.90625 -0.875 10.488281 0.257812 9.96875 1.125 L 6.953125 -30.125 C 6.953125 -30.257812 7.09375 -30.617188 7.375 -31.203125 C 7.664062 -31.785156 8.128906 -32.585938 8.765625 -33.609375 L 10.640625 -37.328125 L 11.328125 -31.796875 C 11.578125 -30.066406 11.828125 -26.570312 12.078125 -21.3125 C 12.328125 -16.0625 12.429688 -12.335938 12.390625 -10.140625 Z M 12.390625 -10.140625 "/></g></g></g></svg>