<?xml version="1.0" encoding="UTF-8" standalone="no"?>
<!-- Created with Inkscape (http://www.inkscape.org/) -->

<svg
   width="68.94899mm"
   height="68.94899mm"
   viewBox="0 0 68.94899 68.94899"
   version="1.1"
   id="svg1"
   inkscape:export-filename="icon.svg"
   inkscape:export-xdpi="96"
   inkscape:export-ydpi="96"
   xmlns:inkscape="http://www.inkscape.org/namespaces/inkscape"
   xmlns:sodipodi="http://sodipodi.sourceforge.net/DTD/sodipodi-0.dtd"
   xmlns="http://www.w3.org/2000/svg"
   xmlns:svg="http://www.w3.org/2000/svg">
  <sodipodi:namedview
     id="namedview1"
     pagecolor="#ffffff"
     bordercolor="#000000"
     borderopacity="0.25"
     inkscape:showpageshadow="2"
     inkscape:pageopacity="0.0"
     inkscape:pagecheckerboard="0"
     inkscape:deskcolor="#d1d1d1"
     inkscape:document-units="mm">
    <inkscape:page
       x="0"
       y="0"
       width="68.94899"
       height="68.94899"
       id="page2"
       margin="0"
       bleed="0" />
  </sodipodi:namedview>
  <defs
     id="defs1" />
  <g
     inkscape:label="طبقة 1"
     inkscape:groupmode="layer"
     id="layer1"
     transform="translate(-102.99694,-190.6146)">
    <g
       id="g8">
      <circle
         style="fill:none;stroke:#000000;stroke-width:1.13459;stroke-dasharray:none;stroke-opacity:1"
         id="path6"
         cx="137.47144"
         cy="225.0891"
         r="33.9072" />
      <g
         id="g6"
         transform="translate(-49.643611,-32.724395)">
        <path
           d="m 186.93963,252.82374 c -0.42095,-0.24537 -0.66172,-0.43931 -0.66172,-0.53313 0,-0.19767 0.74427,-1.29884 0.87709,-1.29763 0.0577,6.7e-4 0.37412,0.17264 0.70274,0.38243 0.67865,0.43302 0.62759,0.4486 1.08823,-0.33261 0.12885,-0.21849 0.28945,-0.41846 0.35719,-0.44436 0.14552,-0.0559 1.50098,0.7915 1.50098,0.93837 0,0.0557 -0.16352,0.34986 -0.36354,0.65365 -0.43286,0.65765 -0.53949,0.67559 -1.29672,0.21826 -0.27914,-0.16854 -0.52944,-0.30644 -0.55642,-0.30644 -0.0272,0 -0.18018,0.22098 -0.34052,0.49106 -0.29369,0.49543 -0.40376,0.61675 -0.55986,0.61632 -0.0471,-1.3e-4 -0.38338,-0.17378 -0.74745,-0.38592 z m -17.35799,-3.31682 c -2.28838,-0.37861 -3.63246,-1.14281 -4.18835,-2.38127 -0.49424,-1.10125 -0.35983,-2.22131 0.43286,-3.60635 0.5125,-0.89533 0.75644,-1.19145 0.92763,-1.12575 0.11297,0.0434 0.0664,0.18558 -0.28496,0.86918 -0.50879,0.99031 -0.59981,1.50725 -0.39185,2.22295 0.3556,1.2232 1.93067,2.06796 4.40029,2.35982 1.01732,0.12025 3.36179,0.0447 4.39922,-0.14174 1.51236,-0.27178 3.71502,-0.9154 3.71502,-1.08545 0,-0.0416 -0.0616,-0.19476 -0.13679,-0.34025 -0.099,-0.19148 -0.12832,-0.43299 -0.10583,-0.87445 0.0458,-0.91041 0.41407,-1.59994 1.34805,-2.52484 0.83238,-0.82442 1.54331,-1.28291 2.08359,-1.34379 0.32332,-0.0364 0.40852,-0.008 0.67231,0.22338 0.16589,0.14582 0.39317,0.46718 0.50482,0.71411 0.17092,0.37817 0.20267,0.5837 0.20056,1.30302 -0.003,1.02421 -0.15293,1.53041 -0.68607,2.30886 l -0.36962,0.5401 0.78528,0.18648 c 1.48643,0.353 2.84904,0.20195 3.83805,-0.42543 0.5252,-0.33335 1.09114,-0.85772 1.38853,-1.28672 0.27781,-0.4009 0.50192,-0.43476 0.67416,-0.10186 0.44,0.85087 1.93966,1.61919 3.76634,1.92952 l 0.98214,1.85267 c -2.76701,-0.2205 -4.18941,-0.74287 -5.04614,-1.85322 -0.19526,-0.25313 -0.4019,-0.46022 -0.45931,-0.46022 -0.0574,0 -0.28575,0.22606 -0.50721,0.50237 -1.0197,1.27129 -1.94813,1.72521 -3.52875,1.72521 -1.03637,0 -2.03835,-0.21325 -3.05646,-0.65045 l -0.68898,-0.29599 -1.10675,0.39145 c -1.456,0.51488 -2.97524,0.92951 -4.39499,1.19952 -1.41658,0.26942 -4.04151,0.35536 -5.16679,0.16914 z m 11.78243,-3.81219 c 0.37729,-0.18918 0.77179,-0.4155 0.8763,-0.50297 0.18468,-0.15473 0.18653,-0.17198 0.0646,-0.6408 -0.26115,-1.00269 -0.66252,-1.49193 -1.12925,-1.37665 -0.3884,0.0959 -0.98874,0.52623 -1.55072,1.11143 -0.57309,0.59682 -0.58208,0.65405 -0.16325,1.04548 0.17754,0.16616 1.07024,0.70175 1.17634,0.70591 0.0217,9.5e-4 0.34846,-0.15322 0.72602,-0.3424 z m -1.59809,-5.81761 c -0.36406,-0.19187 -0.66198,-0.3979 -0.66198,-0.45786 0,-0.15698 0.76438,-1.49386 0.85407,-1.49386 0.17569,0 1.45177,0.81518 1.45177,0.92744 0,0.21598 -0.72099,1.37642 -0.85407,1.37475 -0.0704,-9.5e-4 -0.42598,-0.15862 -0.78979,-0.35047 z m 7.67239,0.52734 c 0,0.17487 0.21035,-0.32146 1.30546,-0.90958 0.55377,-0.29734 0.97657,-0.5693 0.93953,-0.60436 -0.13282,-0.12592 -1.00277,-0.33541 -1.38509,-0.33356 -0.46488,0.002 -1.03479,0.24323 -1.33086,0.56261 -0.11774,0.127 -0.23627,0.20854 -0.26379,0.18121 -0.0931,-0.0931 0.17622,-0.67559 0.47255,-1.02161 0.58923,-0.68842 1.465,-0.83947 2.65324,-0.45754 0.35243,0.11329 0.74798,0.22974 0.87921,0.25876 0.13124,0.029 0.25903,0.10647 0.28443,0.17209 0.0667,0.17377 -0.27437,0.89278 -0.45456,0.95853 -0.0844,0.0309 -0.27966,0.16468 -0.43365,0.29739 -0.39608,0.34123 -0.85804,0.56036 -1.69042,0.80156 -0.82841,0.24005 -0.97605,-0.0654 -0.97605,0.0945 z"
           id="path1"
           style="stroke-width:0.264583" />
        <path
           d="m 192.47551,246.91411 c 1.55099,0.24908 3.37291,0.20712 5.02126,-0.54829 0.80169,-0.36735 1.42293,-1.02886 1.82536,-1.94315 0.0844,-0.1923 0.18521,-0.34963 0.22358,-0.34963 0.33972,0 -0.0818,1.55822 -0.65194,2.41057 -0.16007,0.23905 -0.16007,0.23918 -0.008,0.23918 0.41884,0 1.86161,-0.25045 2.35638,-0.40902 1.08426,-0.34766 1.53882,-0.78081 2.29156,-2.18355 0.2233,-0.41603 0.43815,-0.75642 0.47757,-0.75642 0.13996,0 0.11985,0.27305 -0.0685,0.92914 -0.10477,0.36576 -0.16933,0.6994 -0.1434,0.74139 0.14261,0.2308 1.97855,0.87204 2.16561,0.75642 0.0945,-0.0584 0.0897,-1.37528 -0.007,-1.89799 -0.0659,-0.35703 -0.0534,-0.51544 0.086,-1.08352 0.18415,-0.75139 0.30982,-0.98613 0.4318,-0.80714 0.20637,0.30255 0.29554,0.86945 0.29474,1.87187 -0.002,1.52982 -0.32649,2.91137 -0.80539,3.42414 -0.18494,0.19793 -0.2577,0.22436 -0.6178,0.22436 -0.71094,0 -1.48749,-0.29911 -2.38892,-0.92006 -0.0741,-0.0509 -0.11668,-0.0467 -0.13891,0.0136 -0.0175,0.048 -0.12938,0.22199 -0.24871,0.38669 -0.64929,0.89614 -2.43549,1.35559 -4.32646,1.11289 l -0.71041,-0.0912 -0.88318,0.25723 c -1.40653,0.40955 -2.0492,0.52694 -3.12023,0.48678 z m 4.34552,-8.98842 c -0.0434,-0.0434 0.15398,-0.73993 0.25347,-0.8944 0.0693,-0.10792 0.62177,-0.31895 3.94282,-1.50603 1.47108,-0.52576 2.91994,-1.05048 3.21998,-1.16602 0.30003,-0.11555 0.56171,-0.18402 0.58155,-0.15214 0.0534,0.0866 -0.16827,0.78246 -0.27861,0.874 -0.109,0.0904 -1.22978,0.50541 -4.24656,1.5726 -1.74545,0.61749 -2.46777,0.89326 -3.3528,1.28048 -0.0426,0.0187 -0.0966,0.0148 -0.11985,-0.009 z"
           id="path2"
           style="stroke-width:0.264583" />
        <path
           d="m 172.95296,236.79423 c 0.0161,-0.0483 0.30983,-0.27866 0.65247,-0.512 0.85434,-0.58163 1.90897,-1.47627 2.28309,-1.93691 l 0.31088,-0.38272 -0.5461,-0.19277 c -0.7919,-0.27949 -0.91731,-0.39185 -0.91466,-0.81939 0.004,-0.64961 0.59319,-1.56639 1.19274,-1.85661 0.28495,-0.13802 0.33205,-0.14229 0.55298,-0.05 0.17409,0.0728 0.2839,0.19157 0.39449,0.42683 0.18071,0.38462 0.31221,1.2124 0.25215,1.58819 -0.0418,0.2612 -0.0376,0.26707 0.24738,0.35251 0.26697,0.0799 0.28628,0.10214 0.24369,0.27808 -0.12198,0.50456 -0.14526,0.52824 -0.47229,0.47919 l -0.30321,-0.0455 -0.27543,0.39984 c -0.47651,0.69178 -1.64809,1.56905 -2.86306,2.14384 -0.47519,0.22473 -0.80592,0.28061 -0.75512,0.12745 z m 3.5224,-4.60511 c -0.19394,-0.43885 -0.42598,-0.49435 -0.75062,-0.17966 -0.23098,0.22388 -0.44186,0.60504 -0.3728,0.67403 0.0188,0.0188 0.3011,0.13845 0.62759,0.26581 l 0.5932,0.23155 0.0212,-0.33788 c 0.014,-0.22284 -0.0262,-0.44547 -0.11854,-0.65385 z"
           id="path4"
           style="stroke-width:0.264583" />
      </g>
      <g
         id="g7"
         transform="translate(-2.2586907,-4.948212)">
        <path
           d="m 138.98414,254.08234 c 0.024,-0.0589 0.084,-0.24641 0.13351,-0.41665 0.0797,-0.27417 0.13493,-0.32825 0.48304,-0.47318 0.7378,-0.30718 6.03341,-2.19726 6.06478,-2.16462 0.0726,0.0756 -0.15231,0.6623 -0.30305,0.79078 -0.0902,0.0769 -0.91309,0.40565 -1.82853,0.73059 -0.91537,0.32492 -2.30122,0.82735 -3.07965,1.11647 -0.77844,0.28912 -1.43748,0.52525 -1.46451,0.52472 -0.027,-5.3e-4 -0.0295,-0.0492 -0.006,-0.10812 z m -10.08074,-0.80191 c -0.30897,-0.18803 -0.60004,-0.38991 -0.6468,-0.44858 -0.0672,-0.0844 -0.003,-0.23358 0.30482,-0.71295 0.24306,-0.37798 0.43788,-0.60478 0.51738,-0.60233 0.0701,0.002 0.37768,0.17417 0.68345,0.38222 l 0.55589,0.3783 0.38723,-0.58609 c 0.21296,-0.32234 0.40977,-0.58578 0.43737,-0.58539 0.10034,10e-4 1.39722,0.88046 1.39592,0.94617 -0.002,0.0946 -0.13546,0.32827 -0.44665,0.78133 -0.32855,0.47836 -0.4259,0.48474 -1.10096,0.0721 -0.27944,-0.17077 -0.53563,-0.31107 -0.5693,-0.31174 -0.0337,-6.6e-4 -0.16803,0.17414 -0.29853,0.38847 -0.32841,0.53936 -0.33705,0.54954 -0.50695,0.59764 -0.10115,0.0287 -0.33683,-0.0703 -0.71287,-0.29913 z m -7.25498,-1.61401 c -1.62094,-0.21384 -3.87935,-1.08389 -3.87128,-1.49142 0.003,-0.13023 0.29209,-0.0989 1.33269,0.14416 1.21294,0.28331 3.0372,0.35274 3.84052,0.14609 1.48598,-0.38223 2.67207,-1.23307 3.61631,-2.59415 0.38776,-0.55893 0.90095,-1.55091 1.14023,-2.20403 l 0.1474,-0.40237 -0.35128,4.5e-4 c -0.48578,4.8e-4 -0.67033,-0.0784 -0.80005,-0.34187 -0.14122,-0.28686 -0.19231,-0.86597 -0.10207,-1.15703 l 0.0694,-0.22398 0.74659,-0.0267 c 0.95024,-0.034 1.50428,-0.26641 1.93297,-0.81085 0.3323,-0.42202 0.42301,-0.67954 0.54864,-1.55773 0.10748,-0.75126 0.14871,-0.88067 0.27965,-0.87808 0.16613,0.003 0.45477,0.83531 0.77821,2.24309 0.3857,1.67881 0.61853,2.48151 0.90567,3.12211 0.59932,1.33711 1.9573,1.98921 4.0331,1.93667 2.19877,-0.0556 3.78036,-0.82647 4.54579,-2.21559 0.1577,-0.28618 0.31803,-0.51972 0.35629,-0.51896 0.13123,0.003 0.16,0.39507 0.0598,0.81676 -0.11618,0.48921 -0.39085,1.09616 -0.71531,1.58069 -0.12528,0.18705 -0.22807,0.35544 -0.22844,0.37416 -0.002,0.0941 1.43914,-0.0812 1.9277,-0.23455 1.10186,-0.34575 1.8086,-0.85631 2.4599,-1.77715 0.1816,-0.25701 0.36992,-0.45253 0.41799,-0.43451 0.18677,0.07 0.0574,0.72373 -0.26173,1.32321 l -0.31004,0.58206 0.30855,0.12091 c 0.74998,0.29373 1.40425,0.38246 1.70154,0.23073 0.1775,-0.0904 0.53098,-0.74131 0.9025,-1.6619 0.28664,-0.70974 0.45645,-1.01269 0.56623,-1.01051 0.14179,0.003 0.13673,0.24463 -0.0177,0.83838 -0.15469,0.59517 -0.1558,0.62471 -0.0286,0.72422 0.80106,0.62749 2.25242,0.80909 3.54368,0.44348 0.56126,-0.15891 1.05965,-0.40356 1.06172,-0.5211 0.002,-0.10536 -0.63423,-0.5534 -0.95159,-0.6703 -0.14922,-0.0549 -0.42718,-0.077 -0.6904,-0.0547 -0.24229,0.0205 -0.45437,0.0123 -0.47149,-0.0183 -0.0654,-0.11662 0.20839,-0.88785 0.43528,-1.22667 0.47967,-0.71568 1.05342,-1.01089 2.03861,-1.04862 1.31253,-0.0502 2.53719,0.4878 2.76074,1.21268 0.0587,0.19111 0.0536,0.35257 -0.021,0.6445 -0.12307,0.4815 -0.17866,0.58916 -0.55316,1.07214 -0.1643,0.21187 -0.29906,0.40227 -0.29948,0.42309 -0.002,0.11235 0.89266,0.30524 1.64563,0.35471 0.97497,0.0641 1.37484,-0.003 1.7328,-0.29258 0.44429,-0.35909 0.48223,-0.51064 0.36832,-1.46693 -0.31767,-2.66689 -1.42938,-9.13439 -1.6532,-9.61831 -0.28117,-0.60799 -0.26384,-0.73496 0.19393,-1.41387 0.22684,-0.33619 0.44742,-0.61072 0.49055,-0.61003 0.0428,6.5e-4 0.16588,0.2025 0.27295,0.44851 0.10707,0.24599 0.34274,0.6525 0.52355,0.90333 0.1808,0.25086 0.32823,0.48997 0.32741,0.53139 -7.9e-4,0.0414 -0.16203,0.28456 -0.35817,0.54033 l -0.35694,0.46507 0.41577,2.22992 c 0.69564,3.73149 0.88685,5.1674 0.86363,6.48665 -0.0179,0.99618 -0.10597,1.40862 -0.44417,2.07637 -0.46185,0.91173 -1.32915,1.424 -2.38233,1.40727 -0.89683,-0.0143 -1.76748,-0.36178 -2.69963,-1.07756 l -0.46999,-0.36095 -0.3988,0.25358 c -1.12377,0.71454 -2.10478,1.02175 -3.17867,0.99542 -0.87155,-0.0213 -1.27026,-0.14625 -1.93334,-0.60554 -0.24017,-0.16647 -0.44274,-0.29365 -0.44984,-0.28259 -0.007,0.0111 -0.17913,0.27903 -0.38202,0.59545 -0.75229,1.17242 -1.29699,1.26973 -2.85198,0.50946 l -0.65018,-0.31789 -0.51377,0.25649 c -0.77382,0.38636 -1.35328,0.50609 -2.35874,0.48742 -0.61275,-0.0114 -1.00453,-0.0588 -1.34894,-0.16338 -0.60668,-0.18421 -0.59195,-0.1841 -1.28898,-0.01 -2.11075,0.52747 -4.13658,0.40563 -5.12118,-0.30801 -0.92049,-0.66683 -1.2565,-1.37178 -1.80776,-3.79181 -0.1657,-0.72748 -0.33943,-1.42485 -0.38602,-1.54973 l -0.0847,-0.22704 -0.098,0.29855 c -0.23265,0.70861 -0.58164,1.16918 -1.20179,1.58613 -0.41014,0.27573 -0.45599,0.33259 -0.46072,0.5712 -0.016,0.80692 -0.60306,2.62734 -1.13813,3.5291 -0.56838,0.95791 -1.4451,1.85499 -2.18486,2.23555 -0.79737,0.41021 -2.22689,0.59255 -3.41584,0.4357 z m 41.43497,-3.66567 c -0.11652,-1.95997 -0.54194,-4.71814 -1.50519,-9.75614 -0.25971,-1.35729 -0.4693,-2.60002 -0.4661,-2.76159 0.007,-0.3585 0.2285,-1.47579 0.34282,-1.72938 0.11654,-0.25875 0.18384,-0.10269 0.27679,0.64238 0.0413,0.33135 0.43759,2.63787 0.8808,5.12562 0.93688,5.2604 1.01687,5.81756 0.99635,6.94739 -0.0178,1.00489 -0.24962,2.19449 -0.42606,2.19099 -0.0331,-6.6e-4 -0.078,-0.29733 -0.0994,-0.65927 z m -21.14375,-5.98969 c -0.28598,-0.16614 -0.58223,-0.37364 -0.65832,-0.46115 -0.13634,-0.15677 -0.13453,-0.16518 0.12419,-0.57455 0.14436,-0.22851 0.34894,-0.51262 0.45458,-0.63139 l 0.19209,-0.21589 0.57606,0.38722 c 0.31684,0.21298 0.60532,0.3878 0.64106,0.3885 0.0357,6.9e-4 0.20916,-0.2308 0.38536,-0.51446 0.17623,-0.28367 0.35457,-0.53593 0.39607,-0.56054 0.0827,-0.0488 0.67212,0.28343 1.17038,0.65966 l 0.31419,0.23719 -0.14973,0.27758 c -0.253,0.46852 -0.6208,0.90681 -0.75861,0.90349 -0.0719,-0.002 -0.38514,-0.15505 -0.69559,-0.34071 l -0.56461,-0.3375 -0.25479,0.40744 c -0.25949,0.41497 -0.49474,0.68302 -0.59605,0.67924 -0.031,-0.001 -0.29029,-0.13802 -0.57628,-0.30413 z m 0.35761,-2.87813 c -0.39481,-0.22138 -0.60021,-0.38262 -0.61177,-0.48021 -0.0222,-0.18711 0.67729,-1.37263 0.80834,-1.37004 0.17433,0.003 1.36459,0.78045 1.36243,0.88938 -0.004,0.19181 -0.72982,1.30168 -0.84899,1.29787 -0.0636,-0.002 -0.38311,-0.15367 -0.71001,-0.337 z m 5.3971,-1.98229 c 0.0736,-0.21506 0.20513,-0.4293 0.30052,-0.4891 0.14685,-0.0921 5.7918,-2.17718 6.18345,-2.28401 0.12719,-0.0347 0.13756,-0.0107 0.0902,0.20482 -0.12937,0.58583 -0.15029,0.6001 -1.68849,1.15463 -0.79002,0.28488 -2.20794,0.80628 -3.15067,1.15865 -0.94246,0.3524 -1.74816,0.64003 -1.78969,0.63921 -0.045,-9e-4 -0.0228,-0.15727 0.0547,-0.3842 z"
           id="path3"
           style="stroke-width:0.264583" />
        <path
           d="m 118.86922,247.38382 c -0.99706,-0.37785 -1.14985,-1.62035 -0.43394,-3.52909 0.12233,-0.32615 0.26177,-0.66691 0.30985,-0.75723 0.0615,-0.11554 0.0679,-0.19605 0.0214,-0.27154 -0.0468,-0.0761 -0.0215,-0.33308 0.0872,-0.88409 0.0842,-0.42723 0.1677,-0.79072 0.18544,-0.80775 0.0692,-0.0665 0.99885,0.28452 1.62416,0.6132 1.50799,0.79266 2.13348,1.91493 1.86717,3.35019 -0.0996,0.5368 -0.44709,1.20323 -0.79931,1.53287 -0.71259,0.6669 -2.11563,1.03627 -2.86193,0.75344 z m 1.62163,-1.76504 c 0.51621,-0.12242 1.22501,-0.43666 1.27781,-0.56652 0.0597,-0.1467 -0.38017,-0.71774 -0.8121,-1.05439 -0.36939,-0.28793 -1.43747,-0.86231 -1.6796,-0.90328 -0.31789,-0.0538 -0.69218,1.77141 -0.4443,2.16661 0.24672,0.39329 0.90704,0.5357 1.65819,0.35758 z m -2.30352,-7.30405 c -0.35504,-0.21479 -0.67116,-0.43853 -0.70249,-0.49721 -0.0416,-0.0779 0.0454,-0.26345 0.32286,-0.68812 0.51494,-0.78828 0.50763,-0.78231 0.77862,-0.63693 0.1219,0.0654 0.42154,0.25327 0.66586,0.41745 0.24433,0.1642 0.46572,0.29789 0.49197,0.29708 0.0262,-3.4e-4 0.22698,-0.28059 0.44603,-0.62176 0.21905,-0.3412 0.42664,-0.61979 0.46135,-0.61911 0.12113,0.002 1.50217,0.97292 1.50055,1.05452 -0.002,0.12293 -0.7024,1.16285 -0.83559,1.24142 -0.12215,0.0721 -0.4314,-0.066 -1.14792,-0.51241 l -0.33857,-0.21098 -0.35319,0.5594 c -0.19426,0.30768 -0.37862,0.5589 -0.40967,0.55828 -0.0311,-6e-4 -0.0965,0.0101 -0.14538,0.0239 -0.0489,0.0138 -0.37939,-0.15073 -0.73443,-0.36553 z"
           id="path5"
           style="stroke-width:0.264583" />
      </g>
    </g>
  </g>
</svg>
